<svg width="152" height="113" fill="none" xmlns="http://www.w3.org/2000/svg"><path d="M8.679 95.461v6.206a9.638 9.638 0 009.637 9.638h12.962a9.64 9.64 0 009.637-9.638v-6.206m-29.258-53.4l25.172 10.601a6.679 6.679 0 012.13 10.88 6.679 6.679 0 01-4.722 1.957H2m22.802-40.746H14.336a3.392 3.392 0 00-3.393 3.392v1.127a3.23 3.23 0 001.928 2.94l5.985 2.688m109.893-4.153L119.95 7.752a9.636 9.636 0 00-9.001-6.187H40.761a9.637 9.637 0 00-9.001 6.187l-8.79 22.995m105.779 0l18.147 18.147a9.637 9.637 0 012.824 6.813v30.117a9.635 9.635 0 01-9.637 9.637H11.637A9.637 9.637 0 012 85.824V55.707a9.637 9.637 0 012.824-6.813L22.97 30.747m105.778 0H22.971M143.032 95.46v6.206a9.65 9.65 0 01-2.823 6.815 9.641 9.641 0 01-6.815 2.823h-12.962a9.637 9.637 0 01-9.637-9.638V95.46m29.268-53.4l-25.172 10.601a6.672 6.672 0 00-4.096 6.158 6.68 6.68 0 006.679 6.679h32.246m-22.802-40.746h10.466a3.401 3.401 0 013.393 3.392v1.127a3.223 3.223 0 01-1.928 2.94l-5.985 2.688m-74.91 42.713h29.394a9.638 9.638 0 019.637 9.637v8.211H48.317v-8.21a9.637 9.637 0 019.637-9.638zM57 48.518h37.614v5.532H57v-5.532z" stroke="url(#paint0_linear_904_2377)" stroke-width="3" stroke-linecap="round" stroke-linejoin="round"/><defs><linearGradient id="paint0_linear_904_2377" x1="75.86" y1="1.565" x2="75.86" y2="111.305" gradientUnits="userSpaceOnUse"><stop stop-color="#00F0FF"/><stop offset="1" stop-color="#C071FF"/></linearGradient></defs></svg>