<svg width="95" height="142" fill="none" xmlns="http://www.w3.org/2000/svg"><path d="M47.665 77.234S47.535 49.23 61.639 30.7M10.27 77.225h74.78a8.27 8.27 0 018.27 8.27v.01a8.27 8.27 0 01-8.27 8.27H10.27A8.27 8.27 0 012 85.504v-.01a8.27 8.27 0 018.27-8.27zM72.346 139.8H22.939a4.63 4.63 0 01-4.575-3.927l-7.705-42.09h73.928l-7.705 42.09a4.628 4.628 0 01-4.537 3.927zM49.387 56.675s2.602-27.55-31.801-31.773c4.167 34.024 31.162 31.875 31.801 31.773zm13.058-25.957s10.789 13.039 27.495 0c-16.512-12.92-27.254-.315-27.495 0zm-1.204-1.223s13.04-10.789 0-27.495c-12.91 16.521-.333 27.255 0 27.495z" stroke="url(#paint0_linear_904_2431)" stroke-width="3" stroke-linecap="round" stroke-linejoin="round"/><defs><linearGradient id="paint0_linear_904_2431" x1="47.66" y1="2" x2="47.66" y2="139.8" gradientUnits="userSpaceOnUse"><stop stop-color="#00F0FF"/><stop offset="1" stop-color="#C071FF"/></linearGradient></defs></svg>