<svg width="116" height="142" fill="none" xmlns="http://www.w3.org/2000/svg"><path d="M58.186 51.127c5.917 0 8.113-5.9 7.943-7.6-.17-1.699-4.357-3.506-7.943-3.506-3.559 0-7.763 1.835-7.943 3.506-.179 1.672 2.026 7.6 7.943 7.6zm0 0v24.172m38.898 23.485c.125-2.169-1.05-13.166-1.668-16.265a12.21 12.21 0 002.233.217 12.351 12.351 0 008.55-3.776 12.55 12.55 0 003.514-8.717 12.55 12.55 0 00-3.514-8.717 12.351 12.351 0 00-8.55-3.776 14.792 14.792 0 00-6.628 1.518 14.915 14.915 0 00-5.269 4.329m-50.506 66.462c5.558 3.325 13.007 5.205 22.94 5.205 9.933 0 17.302-1.862 22.842-5.142M30.691 63.678a16.059 16.059 0 00-5.34-4.27 15.936 15.936 0 00-6.618-1.648 12.31 12.31 0 00-4.846.852 12.387 12.387 0 00-4.136 2.685 12.502 12.502 0 00-2.774 4.095 12.584 12.584 0 000 9.72 12.502 12.502 0 002.774 4.095 12.389 12.389 0 004.136 2.685 12.3 12.3 0 004.846.853 12.12 12.12 0 002.232-.217c-.619 3.09-1.793 14.024-1.677 16.166m15.15 17.765c-3.388-11.557-13.258-19.32-22.214-16.735-9.86 2.828-13.68 19.329-6.553 31.817s19.149 7.843 21.748 6.488a15.381 15.381 0 005.37-4.905 15.538 15.538 0 002.537-6.842m45.38-.046c.313 2.42 1.19 4.73 2.56 6.742a15.37 15.37 0 005.32 4.834c2.599 1.364 14.612 6.009 21.747-6.479 7.136-12.488 3.273-28.998-6.553-31.826-8.964-2.584-18.826 5.187-22.214 16.735m22.842-98.875a15.433 15.433 0 00-3.417-9.679 15.218 15.218 0 00-8.704-5.344 15.133 15.133 0 00-10.1 1.381 15.312 15.312 0 00-6.977 7.489 35.092 35.092 0 00-17.033-4.415 35.092 35.092 0 00-17.033 4.415 15.343 15.343 0 00-4.797-6.123 15.174 15.174 0 00-7.163-2.957 15.128 15.128 0 00-7.68.97 15.25 15.25 0 00-6.217 4.65 15.42 15.42 0 00-3.149 7.127 15.477 15.477 0 00.731 7.767 15.364 15.364 0 004.422 6.404 15.19 15.19 0 006.973 3.388 36.105 36.105 0 00-1.408 9.94c0 19.663 15.814 32.883 35.312 32.883 19.498 0 35.312-13.22 35.312-32.883 0-3.364-.474-6.71-1.407-9.94 3.471-.68 6.6-2.555 8.851-5.305a15.441 15.441 0 003.484-9.768zM77.442 35.92c0 1.612-.863 2.919-1.927 2.919-1.065 0-1.928-1.307-1.928-2.92 0-1.611.863-2.918 1.928-2.918 1.064 0 1.927 1.307 1.927 2.919zm-34.397 0c0 1.612-.863 2.919-1.928 2.919-1.064 0-1.927-1.307-1.927-2.92 0-1.611.863-2.918 1.927-2.918 1.065 0 1.928 1.307 1.928 2.919z" stroke="url(#paint0_linear_904_2413)" stroke-width="3" stroke-linecap="round" stroke-linejoin="round"/><defs><linearGradient id="paint0_linear_904_2413" x1="58" y1="2" x2="58" y2="140" gradientUnits="userSpaceOnUse"><stop stop-color="#00F0FF"/><stop offset="1" stop-color="#C071FF"/></linearGradient></defs></svg>