<svg width="105" height="113" fill="none" xmlns="http://www.w3.org/2000/svg"><path d="M55.492 34.662V24.143H1.525v10.52m53.967 0H1.525m53.967 0v11.14a4.383 4.383 0 01-1.105 2.906L44.131 60.284a4.383 4.383 0 00-1.104 2.91v5.501a4.383 4.383 0 01-4.383 4.383H18.368a4.383 4.383 0 01-4.382-4.383v-5.5a4.384 4.384 0 00-1.105-2.91L2.625 48.709a4.383 4.383 0 01-1.1-2.906v-11.14m14.652-10.625V6.375a4.602 4.602 0 00-9.204 0v17.663m43.075 0V6.375a4.602 4.602 0 00-9.204 0v17.663m16.217 87.399H41.628a19.72 19.72 0 01-19.696-19.692v-9.958H35.08v9.975a6.575 6.575 0 006.548 6.544h15.433a6.575 6.575 0 006.548-6.543V25.068a19.697 19.697 0 1139.389 0v15.31H89.849v-15.31a6.548 6.548 0 10-13.092 0v66.677a19.722 19.722 0 01-19.696 19.692zM18.333 73.078h20.35v4.3A4.382 4.382 0 0134.3 81.76H22.716a4.383 4.383 0 01-4.383-4.383V73.07v.008z" stroke="url(#paint0_linear_904_2359)" stroke-width="3" stroke-linecap="round" stroke-linejoin="round"/><path d="M19.477 43.467H37.54m-18.062 6.29H37.54" stroke="url(#paint1_linear_904_2359)" stroke-width="3" stroke-linecap="round" stroke-linejoin="round"/><defs><linearGradient id="paint0_linear_904_2359" x1="52.262" y1="1.773" x2="52.262" y2="111.437" gradientUnits="userSpaceOnUse"><stop stop-color="#00F0FF"/><stop offset="1" stop-color="#C071FF"/></linearGradient><linearGradient id="paint1_linear_904_2359" x1="28.508" y1="43.467" x2="28.508" y2="49.757" gradientUnits="userSpaceOnUse"><stop stop-color="#00F0FF"/><stop offset="1" stop-color="#C071FF"/></linearGradient></defs></svg>