<svg width="156" height="140" fill="none" xmlns="http://www.w3.org/2000/svg"><path d="M148.488 73.477l-3.781-3.925a5.334 5.334 0 00-7.622-.072l-.155.144a5.355 5.355 0 01-5.898 1.13 5.345 5.345 0 01-1.736-1.202 5.334 5.334 0 00-7.622-.072l-.155.144a5.343 5.343 0 01-5.889 1.129 5.334 5.334 0 01-1.733-1.201 5.345 5.345 0 00-5.875-1.24 5.354 5.354 0 00-1.759 1.168l-.155.144a5.343 5.343 0 01-5.889 1.129 5.336 5.336 0 01-1.733-1.201 5.348 5.348 0 00-7.634-.072l-4.008 3.996m-4.128-5.408l8.136-8.124a5.35 5.35 0 017.634.072 5.336 5.336 0 007.622.072l.155-.144a5.354 5.354 0 015.898-1.13c.653.281 1.243.69 1.736 1.202a5.334 5.334 0 007.622.072l.155-.144a5.348 5.348 0 013.826-1.565 5.337 5.337 0 013.796 1.637 5.345 5.345 0 005.875 1.24 5.355 5.355 0 001.759-1.168l.167-.168a5.33 5.33 0 015.879-1.125c.651.28 1.239.687 1.731 1.197l5.444 5.611m2.836-29.912l-2.477-2.572a5.348 5.348 0 00-7.622-.084l-.155.155a5.343 5.343 0 01-5.889 1.13 5.335 5.335 0 01-1.733-1.201 5.362 5.362 0 00-7.634-.084l-.155.155a5.343 5.343 0 01-5.889 1.13 5.335 5.335 0 01-1.733-1.201 5.362 5.362 0 00-7.634-.084l-.155.155a5.343 5.343 0 01-5.889 1.13 5.335 5.335 0 01-1.733-1.201 5.362 5.362 0 00-7.634-.084l-2.117 2.118m.801-10.338l1.316-1.316a5.359 5.359 0 017.634.084 5.345 5.345 0 005.865 1.236 5.356 5.356 0 001.757-1.165l.155-.155a5.37 5.37 0 013.835-1.555 5.364 5.364 0 013.799 1.639 5.345 5.345 0 005.865 1.236 5.356 5.356 0 001.757-1.165l.155-.155a5.37 5.37 0 013.835-1.555 5.364 5.364 0 013.799 1.639 5.345 5.345 0 005.865 1.236 5.356 5.356 0 001.757-1.165l.167-.167a5.343 5.343 0 013.805-1.595 5.338 5.338 0 013.805 1.595l2.046 2.118m-48.231 70.51v8.267m11.917-8.268v8.268m11.905-8.268v8.268m11.917-8.268v8.268m7.957-1.256l-1.412-17.17s7.969-40.681 7.335-50.875c-.634-10.194-3.901-28.405-26.682-31.995S99.324 5.742 97.768 8.243c-1.555 2.5-4.69 27.783-2.5 39.33 0 0-14.359-15.926-23.56-9.68-9.2 6.245 4.523 18.258 5.983 20.448 1.46 2.19 7.645 15.291 9.68 17.947 2.034 2.656 9.835 9.201 9.835 9.201l-2.393 17.637s16.392 2.5 27.316 2.5 25.892-2.5 25.892-2.5z" stroke="url(#paint0_linear_904_2350)" stroke-width="3" stroke-linecap="round" stroke-linejoin="round"/><path d="M7.492 66.046l3.781 3.925a5.336 5.336 0 007.622.072l.155-.156a5.361 5.361 0 017.634.084 5.337 5.337 0 007.622.072l.155-.156a5.361 5.361 0 017.634.084 5.336 5.336 0 007.622.072l.155-.156a5.347 5.347 0 017.622.084 5.347 5.347 0 007.633.072l4.009-3.997m4.128 5.408l-8.137 8.125a5.35 5.35 0 01-7.633-.072 5.336 5.336 0 00-7.622-.072l-.155.144a5.335 5.335 0 01-7.622-.072 5.348 5.348 0 00-7.634-.072l-.155.144a5.337 5.337 0 01-7.622-.072 5.347 5.347 0 00-7.634-.072l-.167.156a5.339 5.339 0 01-7.61 0l-5.444-5.612m-2.836 29.853l2.477 2.572a5.33 5.33 0 003.796 1.637 5.325 5.325 0 003.826-1.565l.155-.144a5.358 5.358 0 013.832-1.566 5.34 5.34 0 013.802 1.638 5.33 5.33 0 003.796 1.637 5.326 5.326 0 003.826-1.565l.155-.144a5.344 5.344 0 013.826-1.565 5.343 5.343 0 013.796 1.637 5.346 5.346 0 007.633.072l.156-.144a5.344 5.344 0 013.826-1.565 5.343 5.343 0 013.796 1.637 5.344 5.344 0 005.875 1.241 5.36 5.36 0 001.758-1.169l2.118-2.118m-.801 10.35l-1.317 1.304a5.344 5.344 0 01-5.897 1.13 5.344 5.344 0 01-1.736-1.202 5.345 5.345 0 00-3.796-1.637 5.345 5.345 0 00-3.826 1.566l-.156.143a5.344 5.344 0 01-5.897 1.13 5.346 5.346 0 01-1.736-1.202 5.344 5.344 0 00-3.796-1.637 5.345 5.345 0 00-3.826 1.566l-.155.143a5.342 5.342 0 01-3.826 1.565 5.344 5.344 0 01-3.796-1.637 5.34 5.34 0 00-3.802-1.637 5.34 5.34 0 00-3.832 1.566l-.167.155a5.34 5.34 0 01-5.868 1.18 5.34 5.34 0 01-1.742-1.18l-2.046-2.106M51.667 43.42v-8.267M39.75 43.42v-8.267M27.833 43.42v-8.267M15.927 43.42v-8.267M7.96 36.385l1.412 17.17S1.4 94.295 2.035 104.43c.634 10.134 3.9 28.405 26.682 31.994 22.781 3.59 27.938-2.644 29.494-5.144 1.555-2.501 4.69-27.783 2.5-39.33 0 0 14.358 15.914 23.572 9.68 9.212-6.234-4.535-18.258-5.983-20.448-1.448-2.19-7.646-15.291-9.68-17.948-2.034-2.656-9.835-9.213-9.835-9.213l2.393-17.636s-16.38-2.489-27.304-2.489-25.916 2.489-25.916 2.489z" stroke="url(#paint1_linear_904_2350)" stroke-width="3" stroke-linecap="round" stroke-linejoin="round"/><defs><linearGradient id="paint0_linear_904_2350" x1="111.268" y1="2" x2="111.268" y2="105.626" gradientUnits="userSpaceOnUse"><stop stop-color="#00F0FF"/><stop offset="1" stop-color="#C071FF"/></linearGradient><linearGradient id="paint1_linear_904_2350" x1="44.72" y1="33.896" x2="44.72" y2="137.512" gradientUnits="userSpaceOnUse"><stop stop-color="#00F0FF"/><stop offset="1" stop-color="#C071FF"/></linearGradient></defs></svg>