<svg width="752" height="303" fill="none" xmlns="http://www.w3.org/2000/svg"><g filter="url(#filter0_f_903_2217)"><ellipse cx="376" cy="151.013" rx="226" ry="43" fill="url(#paint0_linear_903_2217)"/></g><g filter="url(#filter1_f_903_2217)"><ellipse cx="376" cy="175.513" rx="268" ry="18.5" fill="url(#paint1_linear_903_2217)"/></g><g filter="url(#filter2_f_903_2217)"><path d="M247.13 193.813h-34.91l-15.88-29.93h-5.38v29.93H160v-85.8h30.91v30.87h6.19l17.58-30.87h32.65l-25.58 41.7 25.38 44.1zm-33.16-3h28l-23.7-41.15 23.7-38.65h-25.54l-17.58 30.87h-10.94v-30.87H163v79.8h24.91v-29.93h10.19l15.87 29.93z" fill="url(#paint2_linear_903_2217)"/><path d="M334.03 193.813h-30.44v-39.45l-26.08 39.45h-28.68v-85.8h30.44v39.57l26.2-39.57h28.56v85.8zm-27.44-3h24.44v-79.8h-23.95l-30.81 46.5v-46.5h-24.44v79.8h24.07l30.69-46.43v46.43z" fill="url(#paint3_linear_903_2217)"/><path d="M390.84 193.813H345.7v-85.8h74.79v24h-44.35v6.58h18.25c10.39 0 18.53 2.28 24.18 6.78 5.75 4.58 8.66 11.24 8.66 19.8 0 8.88-3.29 16-9.8 21-6.51 5-15.33 7.64-26.59 7.64zm-42.14-3h42.14c10.57 0 18.89-2.32 24.74-6.9 5.85-4.58 8.64-10.67 8.64-18.69 0-7.71-2.46-13.42-7.53-17.46-5.07-4.04-12.61-6.12-22.31-6.12h-21.24v-12.58h44.35v-18H348.7v79.75zm40.25-16.52h-15.81v-16.25h15.81c8.47 0 10.25 4.29 10.25 7.89a7.464 7.464 0 01-2.89 6.27 11.793 11.793 0 01-7.36 2.09zm-12.81-3h12.81a9.005 9.005 0 005.53-1.46 4.581 4.581 0 001.72-3.9c0-2.28-.82-4.89-7.25-4.89h-12.81v10.25z" fill="url(#paint4_linear_903_2217)"/><path d="M505.65 193.813h-71.83v-85.8h70.3v24h-39.9v6.7h35v23.11h-35v7.88h41.39l.04 24.11zm-68.83-3h65.83v-18.06h-41.43v-13.88h35v-17.11h-35v-12.7h39.9v-18h-64.3v79.75z" fill="url(#paint5_linear_903_2217)"/><path d="M544.92 193.813h-30.91v-85.8h41.36a50.455 50.455 0 0120.66 3.92 31.186 31.186 0 0113.71 11.37 31.221 31.221 0 014.86 17.44 30.996 30.996 0 01-4.86 17.38 31.803 31.803 0 01-13.7 11.39 49.869 49.869 0 01-20.67 4h-10.45v20.3zm-27.91-3h24.91v-20.3h13.45a46.864 46.864 0 0019.42-3.71 28.762 28.762 0 0012.43-10.29 28 28 0 004.37-15.73 28.282 28.282 0 00-4.37-15.84 28.38 28.38 0 00-12.43-10.28 47.593 47.593 0 00-19.43-3.65h-38.35v79.8zm36.58-38.88h-11.67v-22.42h11.67c4.24 0 7.47 1 9.6 3a10.737 10.737 0 013.26 8.2 10.722 10.722 0 01-3.23 8.22c-2.16 1.99-5.39 3-9.63 3zm-8.67-3h8.67c3.46 0 6-.73 7.55-2.19a7.767 7.767 0 002.31-6 7.784 7.784 0 00-2.31-6c-1.56-1.45-4.1-2.19-7.55-2.19h-8.67v16.38z" fill="url(#paint6_linear_903_2217)"/></g><g filter="url(#filter3_f_903_2217)"><path d="M246.267 192.314a1 1 0 01-.866 1.499h-32.58a1 1 0 01-.883-.532l-15.316-28.867a1 1 0 00-.883-.531h-3.779a1 1 0 00-1 1v27.93a1 1 0 01-1 1H161a1 1 0 01-1-1v-83.8a1 1 0 011-1h28.91a1 1 0 011 1v28.87a1 1 0 001 1h4.609c.359 0 .691-.193.869-.505l17.004-29.86c.178-.312.51-.505.869-.505h30.282a1 1 0 01.853 1.523l-24.335 39.67a1.001 1.001 0 00-.015 1.022l24.221 42.086zm-32.579-2.033c.174.327.513.532.884.532h25.668a1 1 0 00.867-1.499l-22.54-39.136a.999.999 0 01.014-1.022l22.455-36.621a1 1 0 00-.852-1.522h-23.173c-.359 0-.691.193-.869.505l-17.004 29.86c-.178.312-.51.505-.869.505h-9.359a1 1 0 01-1-1v-28.87a1 1 0 00-1-1H164a1 1 0 00-1 1v77.8a1 1 0 001 1h22.91a1 1 0 001-1v-27.93a1 1 0 011-1h8.588a1 1 0 01.884.531l15.306 28.867z" fill="url(#paint7_linear_903_2217)"/><path d="M334.03 192.813a1 1 0 01-1 1h-28.44a1 1 0 01-1-1v-35.124c0-.992-1.287-1.379-1.834-.552l-23.949 36.227c-.186.28-.499.449-.835.449H249.83a1 1 0 01-1-1v-83.8a1 1 0 011-1h28.44a1 1 0 011 1v35.248c0 .991 1.287 1.378 1.834.552l24.069-36.352c.186-.28.499-.448.834-.448h27.023a1 1 0 011 1v83.8zm-27.44-3a1 1 0 001 1h22.44a1 1 0 001-1v-77.8a1 1 0 00-1-1h-22.413c-.335 0-.648.168-.834.447l-28.679 43.285c-.548.826-1.834.439-1.834-.552v-42.18a1 1 0 00-1-1h-22.44a1 1 0 00-1 1v77.8a1 1 0 001 1h22.532c.336 0 .649-.169.835-.449l28.559-43.206c.546-.827 1.834-.44 1.834.551v42.104z" fill="url(#paint8_linear_903_2217)"/><path d="M390.84 193.813H346.7a1 1 0 01-1-1v-83.8a1 1 0 011-1h72.79a1 1 0 011 1v22a1 1 0 01-1 1h-42.35a1 1 0 00-1 1v4.58a1 1 0 001 1h17.25c10.39 0 18.53 2.28 24.18 6.78 5.75 4.58 8.66 11.24 8.66 19.8 0 8.88-3.29 16-9.8 21-6.51 5-15.33 7.64-26.59 7.64zm-42.14-4a1 1 0 001 1h41.14c10.57 0 18.89-2.32 24.74-6.9 5.85-4.58 8.64-10.67 8.64-18.69 0-7.71-2.46-13.42-7.53-17.46-5.07-4.04-12.61-6.12-22.31-6.12h-20.24a1 1 0 01-1-1v-10.58a1 1 0 011-1h42.35a1 1 0 001-1v-16a1 1 0 00-1-1H349.7a1 1 0 00-1 1v77.75zm40.25-15.52h-14.81a1 1 0 01-1-1v-14.25a1 1 0 011-1h14.81c8.47 0 10.25 4.29 10.25 7.89a7.464 7.464 0 01-2.89 6.27 11.793 11.793 0 01-7.36 2.09zm-12.81-4a1 1 0 001 1h11.81a9.005 9.005 0 005.53-1.46 4.581 4.581 0 001.72-3.9c0-2.28-.82-4.89-7.25-4.89h-11.81a1 1 0 00-1 1v8.25z" fill="url(#paint9_linear_903_2217)"/><path d="M505.648 192.811a1 1 0 01-1 1.002H434.82a1 1 0 01-1-1v-83.8a1 1 0 011-1h68.3a1 1 0 011 1v22a1 1 0 01-1 1h-37.9a1 1 0 00-1 1v4.7a1 1 0 001 1h33a1 1 0 011 1v21.11a1 1 0 01-1 1h-33a1 1 0 00-1 1v5.88a1 1 0 001 1h39.392a1 1 0 011 .998l.036 22.11zm-68.828-2.998a1 1 0 001 1h63.83a1 1 0 001-1v-16.06a1 1 0 00-1-1h-39.43a1 1 0 01-1-1v-11.88a1 1 0 011-1h33a1 1 0 001-1v-15.11a1 1 0 00-1-1h-33a1 1 0 01-1-1v-10.7a1 1 0 011-1h37.9a1 1 0 001-1v-16a1 1 0 00-1-1h-62.3a1 1 0 00-1 1v77.75z" fill="url(#paint10_linear_903_2217)"/><path d="M544.92 192.813a1 1 0 01-1 1h-28.91a1 1 0 01-1-1v-83.8a1 1 0 011-1h40.36a50.455 50.455 0 0120.66 3.92 31.186 31.186 0 0113.71 11.37 31.221 31.221 0 014.86 17.44 30.996 30.996 0 01-4.86 17.38 31.803 31.803 0 01-13.7 11.39 49.869 49.869 0 01-20.67 4h-9.45a1 1 0 00-1 1v18.3zm-27.91-3a1 1 0 001 1h22.91a1 1 0 001-1v-18.3a1 1 0 011-1h12.45a46.864 46.864 0 0019.42-3.71 28.762 28.762 0 0012.43-10.29 28 28 0 004.37-15.73 28.282 28.282 0 00-4.37-15.84 28.38 28.38 0 00-12.43-10.28 47.593 47.593 0 00-19.43-3.65h-37.35a1 1 0 00-1 1v77.8zm36.58-37.88h-10.67a1 1 0 01-1-1v-20.42a1 1 0 011-1h10.67c4.24 0 7.47 1 9.6 3a10.737 10.737 0 013.26 8.2 10.722 10.722 0 01-3.23 8.22c-2.16 1.99-5.39 3-9.63 3zm-8.67-4a1 1 0 001 1h7.67c3.46 0 6-.73 7.55-2.19a7.767 7.767 0 002.31-6 7.784 7.784 0 00-2.31-6c-1.56-1.45-4.1-2.19-7.55-2.19h-7.67a1 1 0 00-1 1v14.38z" fill="url(#paint11_linear_903_2217)"/></g><g filter="url(#filter4_f_903_2217)" fill-rule="evenodd" clip-rule="evenodd" fill="#000" fill-opacity=".5"><path d="M541.92 160.933a1 1 0 001 1h10.67c4.24 0 7.47-1.01 9.63-3a10.73 10.73 0 003.23-8.22 10.743 10.743 0 00-3.26-8.2c-2.13-2-5.36-3-9.6-3h-10.67a1 1 0 00-1 1v20.42zm11.67-2h-7.67a1 1 0 01-1-1v-14.38a1 1 0 011-1h7.67c3.45 0 5.99.74 7.55 2.19a7.785 7.785 0 012.31 6 7.767 7.767 0 01-2.31 6c-1.55 1.46-4.09 2.19-7.55 2.19z"/><path d="M514.01 202.813a1 1 0 001 1h28.91a1 1 0 001-1v-18.3a1 1 0 011-1h9.45a49.869 49.869 0 0020.67-4 31.803 31.803 0 0013.7-11.39 30.996 30.996 0 004.86-17.38 31.221 31.221 0 00-4.86-17.44 31.186 31.186 0 00-13.71-11.37 50.455 50.455 0 00-20.66-3.92h-40.36a1 1 0 00-1 1v83.8zm27.91-3a1 1 0 01-1 1h-22.91a1 1 0 01-1-1v-77.8a1 1 0 011-1h37.35a47.593 47.593 0 0119.43 3.65 28.38 28.38 0 0112.43 10.28 28.282 28.282 0 014.37 15.84 28 28 0 01-4.37 15.73 28.762 28.762 0 01-12.43 10.29 46.864 46.864 0 01-19.42 3.71h-12.45a1 1 0 00-1 1v18.3zm-295.653 2.501a1 1 0 01-.866 1.499h-32.58a1 1 0 01-.883-.532l-15.316-28.867a1 1 0 00-.883-.531h-3.779a1 1 0 00-1 1v27.93a1 1 0 01-1 1H161a1 1 0 01-1-1v-83.8a1 1 0 011-1h28.91a1 1 0 011 1v28.87a1 1 0 001 1h4.609c.359 0 .691-.193.869-.505l17.004-29.86c.178-.312.51-.505.869-.505h30.282a1 1 0 01.853 1.523l-24.335 39.67a1.001 1.001 0 00-.015 1.022l24.221 42.086zm-32.579-2.033c.174.327.513.532.884.532h25.668a1 1 0 00.867-1.499l-22.54-39.136a.999.999 0 01.014-1.022l22.455-36.621a1 1 0 00-.852-1.522h-23.173c-.359 0-.691.193-.869.505l-17.004 29.86c-.178.312-.51.505-.869.505h-9.359a1 1 0 01-1-1v-28.87a1 1 0 00-1-1H164a1 1 0 00-1 1v77.8a1 1 0 001 1h22.91a1 1 0 001-1v-27.93a1 1 0 011-1h8.588a1 1 0 01.884.531l15.306 28.867zm120.342 2.532a1 1 0 01-1 1h-28.44a1 1 0 01-1-1v-35.124c0-.992-1.287-1.379-1.834-.552l-23.949 36.227c-.186.28-.499.449-.835.449H249.83a1 1 0 01-1-1v-83.8a1 1 0 011-1h28.44a1 1 0 011 1v35.248c0 .991 1.287 1.378 1.834.552l24.069-36.352c.186-.28.499-.448.834-.448h27.023a1 1 0 011 1v83.8zm-27.44-3a1 1 0 001 1h22.44a1 1 0 001-1v-77.8a1 1 0 00-1-1h-22.413c-.335 0-.648.168-.834.447l-28.679 43.285c-.548.826-1.834.439-1.834-.552v-42.18a1 1 0 00-1-1h-22.44a1 1 0 00-1 1v77.8a1 1 0 001 1h22.532c.336 0 .649-.169.835-.449l28.559-43.206c.546-.827 1.834-.44 1.834.551v42.104zm66.55-16.52a1 1 0 001 1h14.81a11.793 11.793 0 007.36-2.09 7.46 7.46 0 002.89-6.27c0-3.6-1.78-7.89-10.25-7.89h-14.81a1 1 0 00-1 1v14.25zm15.81-2h-11.81a1 1 0 01-1-1v-8.25a1 1 0 011-1h11.81c6.43 0 7.25 2.61 7.25 4.89a4.575 4.575 0 01-1.72 3.9 9.005 9.005 0 01-5.53 1.46z"/><path d="M345.7 202.813a1 1 0 001 1h44.14c11.26 0 20.08-2.64 26.59-7.64 6.51-5 9.8-12.12 9.8-21 0-8.56-2.91-15.22-8.66-19.8-5.65-4.5-13.79-6.78-24.18-6.78h-17.25a1 1 0 01-1-1v-4.58a1 1 0 011-1h42.35a1 1 0 001-1v-22a1 1 0 00-1-1H346.7a1 1 0 00-1 1v83.8zm45.14-2H349.7a1 1 0 01-1-1v-77.75a1 1 0 011-1h66.79a1 1 0 011 1v16a1 1 0 01-1 1h-42.35a1 1 0 00-1 1v10.58a1 1 0 001 1h20.24c9.7 0 17.24 2.08 22.31 6.12s7.53 9.75 7.53 17.46c0 8.02-2.79 14.11-8.64 18.69-5.85 4.58-14.17 6.9-24.74 6.9zm114.808 1.998a1 1 0 01-1 1.002H434.82a1 1 0 01-1-1v-83.8a1 1 0 011-1h68.3a1 1 0 011 1v22a1 1 0 01-1 1h-37.9a1 1 0 00-1 1v4.7a1 1 0 001 1h33a1 1 0 011 1v21.11a1 1 0 01-1 1h-33a1 1 0 00-1 1v5.88a1 1 0 001 1h39.392a1 1 0 011 .998l.036 22.11zm-68.828-2.998a1 1 0 001 1h63.83a1 1 0 001-1v-16.06a1 1 0 00-1-1h-39.43a1 1 0 01-1-1v-11.88a1 1 0 011-1h33a1 1 0 001-1v-15.11a1 1 0 00-1-1h-33a1 1 0 01-1-1v-10.7a1 1 0 011-1h37.9a1 1 0 001-1v-16a1 1 0 00-1-1h-62.3a1 1 0 00-1 1v77.75z"/></g><g filter="url(#filter5_d_903_2217)" fill-rule="evenodd" clip-rule="evenodd"><path d="M541.92 150.933a1 1 0 001 1h10.67c4.24 0 7.47-1.01 9.63-3a10.73 10.73 0 003.23-8.22 10.743 10.743 0 00-3.26-8.2c-2.13-2-5.36-3-9.6-3h-10.67a1 1 0 00-1 1v20.42zm11.67-2h-7.67a1 1 0 01-1-1v-14.38a1 1 0 011-1h7.67c3.45 0 5.99.74 7.55 2.19a7.785 7.785 0 012.31 6 7.767 7.767 0 01-2.31 6c-1.55 1.46-4.09 2.19-7.55 2.19z" fill="url(#paint12_linear_903_2217)"/><path d="M514.01 192.813a1 1 0 001 1h28.91a1 1 0 001-1v-18.3a1 1 0 011-1h9.45a49.869 49.869 0 0020.67-4 31.803 31.803 0 0013.7-11.39 30.996 30.996 0 004.86-17.38 31.221 31.221 0 00-4.86-17.44 31.186 31.186 0 00-13.71-11.37 50.455 50.455 0 00-20.66-3.92h-40.36a1 1 0 00-1 1v83.8zm27.91-3a1 1 0 01-1 1h-22.91a1 1 0 01-1-1v-77.8a1 1 0 011-1h37.35a47.593 47.593 0 0119.43 3.65 28.38 28.38 0 0112.43 10.28 28.282 28.282 0 014.37 15.84 28 28 0 01-4.37 15.73 28.762 28.762 0 01-12.43 10.29 46.864 46.864 0 01-19.42 3.71h-12.45a1 1 0 00-1 1v18.3z" fill="url(#paint13_linear_903_2217)"/><path d="M246.267 192.314a1 1 0 01-.866 1.499h-32.58a1 1 0 01-.883-.532l-15.316-28.867a1 1 0 00-.883-.531h-3.779a1 1 0 00-1 1v27.93a1 1 0 01-1 1H161a1 1 0 01-1-1v-83.8a1 1 0 011-1h28.91a1 1 0 011 1v28.87a1 1 0 001 1h4.609c.359 0 .691-.193.869-.505l17.004-29.86c.178-.312.51-.505.869-.505h30.282a1 1 0 01.853 1.523l-24.335 39.67a1.001 1.001 0 00-.015 1.022l24.221 42.086zm-32.579-2.033c.174.327.513.532.884.532h25.668a1 1 0 00.867-1.499l-22.54-39.136a.999.999 0 01.014-1.022l22.455-36.621a1 1 0 00-.852-1.522h-23.173c-.359 0-.691.193-.869.505l-17.004 29.86c-.178.312-.51.505-.869.505h-9.359a1 1 0 01-1-1v-28.87a1 1 0 00-1-1H164a1 1 0 00-1 1v77.8a1 1 0 001 1h22.91a1 1 0 001-1v-27.93a1 1 0 011-1h8.588a1 1 0 01.884.531l15.306 28.867z" fill="url(#paint14_linear_903_2217)"/><path d="M334.03 192.813a1 1 0 01-1 1h-28.44a1 1 0 01-1-1v-35.124c0-.992-1.287-1.379-1.834-.552l-23.949 36.227c-.186.28-.499.449-.835.449H249.83a1 1 0 01-1-1v-83.8a1 1 0 011-1h28.44a1 1 0 011 1v35.248c0 .991 1.287 1.378 1.834.552l24.069-36.352c.186-.28.499-.448.834-.448h27.023a1 1 0 011 1v83.8zm-27.44-3a1 1 0 001 1h22.44a1 1 0 001-1v-77.8a1 1 0 00-1-1h-22.413c-.335 0-.648.168-.834.447l-28.679 43.285c-.548.826-1.834.439-1.834-.552v-42.18a1 1 0 00-1-1h-22.44a1 1 0 00-1 1v77.8a1 1 0 001 1h22.532c.336 0 .649-.169.835-.449l28.559-43.206c.546-.827 1.834-.44 1.834.551v42.104z" fill="url(#paint15_linear_903_2217)"/><path d="M373.14 173.293a1 1 0 001 1h14.81a11.793 11.793 0 007.36-2.09 7.46 7.46 0 002.89-6.27c0-3.6-1.78-7.89-10.25-7.89h-14.81a1 1 0 00-1 1v14.25zm15.81-2h-11.81a1 1 0 01-1-1v-8.25a1 1 0 011-1h11.81c6.43 0 7.25 2.61 7.25 4.89a4.575 4.575 0 01-1.72 3.9 9.005 9.005 0 01-5.53 1.46z" fill="url(#paint16_linear_903_2217)"/><path d="M345.7 192.813a1 1 0 001 1h44.14c11.26 0 20.08-2.64 26.59-7.64 6.51-5 9.8-12.12 9.8-21 0-8.56-2.91-15.22-8.66-19.8-5.65-4.5-13.79-6.78-24.18-6.78h-17.25a1 1 0 01-1-1v-4.58a1 1 0 011-1h42.35a1 1 0 001-1v-22a1 1 0 00-1-1H346.7a1 1 0 00-1 1v83.8zm45.14-2H349.7a1 1 0 01-1-1v-77.75a1 1 0 011-1h66.79a1 1 0 011 1v16a1 1 0 01-1 1h-42.35a1 1 0 00-1 1v10.58a1 1 0 001 1h20.24c9.7 0 17.24 2.08 22.31 6.12s7.53 9.75 7.53 17.46c0 8.02-2.79 14.11-8.64 18.69-5.85 4.58-14.17 6.9-24.74 6.9z" fill="url(#paint17_linear_903_2217)"/><path d="M505.648 192.811a1 1 0 01-1 1.002H434.82a1 1 0 01-1-1v-83.8a1 1 0 011-1h68.3a1 1 0 011 1v22a1 1 0 01-1 1h-37.9a1 1 0 00-1 1v4.7a1 1 0 001 1h33a1 1 0 011 1v21.11a1 1 0 01-1 1h-33a1 1 0 00-1 1v5.88a1 1 0 001 1h39.392a1 1 0 011 .998l.036 22.11zm-68.828-2.998a1 1 0 001 1h63.83a1 1 0 001-1v-16.06a1 1 0 00-1-1h-39.43a1 1 0 01-1-1v-11.88a1 1 0 011-1h33a1 1 0 001-1v-15.11a1 1 0 00-1-1h-33a1 1 0 01-1-1v-10.7a1 1 0 011-1h37.9a1 1 0 001-1v-16a1 1 0 00-1-1h-62.3a1 1 0 00-1 1v77.75z" fill="url(#paint18_linear_903_2217)"/></g><defs><linearGradient id="paint0_linear_903_2217" x1="243.5" y1="127.013" x2="553.5" y2="194.013" gradientUnits="userSpaceOnUse"><stop stop-color="#2F45F4"/><stop offset="1" stop-color="#F09" stop-opacity="0"/></linearGradient><linearGradient id="paint1_linear_903_2217" x1="218.876" y1="165.187" x2="502.875" y2="334.369" gradientUnits="userSpaceOnUse"><stop stop-color="#2F45F4"/><stop offset="1" stop-color="#F09"/></linearGradient><linearGradient id="paint2_linear_903_2217" x1="510.857" y1="119.513" x2="595.856" y2="122.237" gradientUnits="userSpaceOnUse"><stop stop-color="#8000FF"/><stop offset="1" stop-color="#FF00C7"/></linearGradient><linearGradient id="paint3_linear_903_2217" x1="510.857" y1="119.513" x2="595.856" y2="122.237" gradientUnits="userSpaceOnUse"><stop stop-color="#8000FF"/><stop offset="1" stop-color="#FF00C7"/></linearGradient><linearGradient id="paint4_linear_903_2217" x1="510.857" y1="119.513" x2="595.856" y2="122.237" gradientUnits="userSpaceOnUse"><stop stop-color="#8000FF"/><stop offset="1" stop-color="#FF00C7"/></linearGradient><linearGradient id="paint5_linear_903_2217" x1="510.857" y1="119.513" x2="595.856" y2="122.237" gradientUnits="userSpaceOnUse"><stop stop-color="#8000FF"/><stop offset="1" stop-color="#FF00C7"/></linearGradient><linearGradient id="paint6_linear_903_2217" x1="510.857" y1="119.513" x2="595.856" y2="122.237" gradientUnits="userSpaceOnUse"><stop stop-color="#8000FF"/><stop offset="1" stop-color="#FF00C7"/></linearGradient><linearGradient id="paint7_linear_903_2217" x1="510.857" y1="119.513" x2="595.856" y2="122.237" gradientUnits="userSpaceOnUse"><stop stop-color="#8000FF"/><stop offset="1" stop-color="#FF00C7"/></linearGradient><linearGradient id="paint8_linear_903_2217" x1="510.857" y1="119.513" x2="595.856" y2="122.237" gradientUnits="userSpaceOnUse"><stop stop-color="#8000FF"/><stop offset="1" stop-color="#FF00C7"/></linearGradient><linearGradient id="paint9_linear_903_2217" x1="510.857" y1="119.513" x2="595.856" y2="122.237" gradientUnits="userSpaceOnUse"><stop stop-color="#8000FF"/><stop offset="1" stop-color="#FF00C7"/></linearGradient><linearGradient id="paint10_linear_903_2217" x1="510.857" y1="119.513" x2="595.856" y2="122.237" gradientUnits="userSpaceOnUse"><stop stop-color="#8000FF"/><stop offset="1" stop-color="#FF00C7"/></linearGradient><linearGradient id="paint11_linear_903_2217" x1="510.857" y1="119.513" x2="595.856" y2="122.237" gradientUnits="userSpaceOnUse"><stop stop-color="#8000FF"/><stop offset="1" stop-color="#FF00C7"/></linearGradient><linearGradient id="paint12_linear_903_2217" x1="513.268" y1="105.513" x2="598.609" y2="108.829" gradientUnits="userSpaceOnUse"><stop stop-color="#00D1FF"/><stop offset="1" stop-color="#00A3FF"/></linearGradient><linearGradient id="paint13_linear_903_2217" x1="513.268" y1="105.513" x2="598.609" y2="108.829" gradientUnits="userSpaceOnUse"><stop stop-color="#00D1FF"/><stop offset="1" stop-color="#00A3FF"/></linearGradient><linearGradient id="paint14_linear_903_2217" x1="513.268" y1="105.513" x2="598.609" y2="108.829" gradientUnits="userSpaceOnUse"><stop stop-color="#00D1FF"/><stop offset="1" stop-color="#00A3FF"/></linearGradient><linearGradient id="paint15_linear_903_2217" x1="513.268" y1="105.513" x2="598.609" y2="108.829" gradientUnits="userSpaceOnUse"><stop stop-color="#00D1FF"/><stop offset="1" stop-color="#00A3FF"/></linearGradient><linearGradient id="paint16_linear_903_2217" x1="513.268" y1="105.513" x2="598.609" y2="108.829" gradientUnits="userSpaceOnUse"><stop stop-color="#00D1FF"/><stop offset="1" stop-color="#00A3FF"/></linearGradient><linearGradient id="paint17_linear_903_2217" x1="513.268" y1="105.513" x2="598.609" y2="108.829" gradientUnits="userSpaceOnUse"><stop stop-color="#00D1FF"/><stop offset="1" stop-color="#00A3FF"/></linearGradient><linearGradient id="paint18_linear_903_2217" x1="513.268" y1="105.513" x2="598.609" y2="108.829" gradientUnits="userSpaceOnUse"><stop stop-color="#00D1FF"/><stop offset="1" stop-color="#00A3FF"/></linearGradient><filter id="filter0_f_903_2217" x="42" y=".013" width="668" height="302" filterUnits="userSpaceOnUse" color-interpolation-filters="sRGB"><feFlood flood-opacity="0" result="BackgroundImageFix"/><feBlend in="SourceGraphic" in2="BackgroundImageFix" result="shape"/><feGaussianBlur stdDeviation="54" result="effect1_foregroundBlur_903_2217"/></filter><filter id="filter1_f_903_2217" x="0" y="49.013" width="752" height="253" filterUnits="userSpaceOnUse" color-interpolation-filters="sRGB"><feFlood flood-opacity="0" result="BackgroundImageFix"/><feBlend in="SourceGraphic" in2="BackgroundImageFix" result="shape"/><feGaussianBlur stdDeviation="54" result="effect1_foregroundBlur_903_2217"/></filter><filter id="filter2_f_903_2217" x="155" y="103" width="444.608" height="95.813" filterUnits="userSpaceOnUse" color-interpolation-filters="sRGB"><feFlood flood-opacity="0" result="BackgroundImageFix"/><feBlend in="SourceGraphic" in2="BackgroundImageFix" result="shape"/><feGaussianBlur stdDeviation="2.5" result="effect1_foregroundBlur_903_2217"/></filter><filter id="filter3_f_903_2217" x="155" y="103" width="444.608" height="95.813" filterUnits="userSpaceOnUse" color-interpolation-filters="sRGB"><feFlood flood-opacity="0" result="BackgroundImageFix"/><feBlend in="SourceGraphic" in2="BackgroundImageFix" result="shape"/><feGaussianBlur stdDeviation="2.5" result="effect1_foregroundBlur_903_2217"/></filter><filter id="filter4_f_903_2217" x="156" y="114" width="442.608" height="93.813" filterUnits="userSpaceOnUse" color-interpolation-filters="sRGB"><feFlood flood-opacity="0" result="BackgroundImageFix"/><feBlend in="SourceGraphic" in2="BackgroundImageFix" result="shape"/><feGaussianBlur stdDeviation="2" result="effect1_foregroundBlur_903_2217"/></filter><filter id="filter5_d_903_2217" x="149" y="97" width="456.608" height="107.813" filterUnits="userSpaceOnUse" color-interpolation-filters="sRGB"><feFlood flood-opacity="0" result="BackgroundImageFix"/><feColorMatrix in="SourceAlpha" values="0 0 0 0 0 0 0 0 0 0 0 0 0 0 0 0 0 0 127 0" result="hardAlpha"/><feOffset/><feGaussianBlur stdDeviation="5.5"/><feComposite in2="hardAlpha" operator="out"/><feColorMatrix values="0 0 0 0 0 0 0 0 0 0.58 0 0 0 0 1 0 0 0 1 0"/><feBlend in2="BackgroundImageFix" result="effect1_dropShadow_903_2217"/><feBlend in="SourceGraphic" in2="effect1_dropShadow_903_2217" result="shape"/></filter></defs></svg>