<svg width="1410" height="261" fill="none" xmlns="http://www.w3.org/2000/svg"><g filter="url(#filter0_f_919_2756)"><ellipse cx="753" cy="130.5" rx="725" ry="22.5" fill="url(#paint0_linear_919_2756)"/></g><g filter="url(#filter1_f_919_2756)"><path d="M365.232 162.104l-.729 1.862.016.007.016.006.697-1.875zm-7.68-4.864l-1.386 1.442 1.386-1.442zm-5.12-7.36l-1.841.781.005.012.005.012 1.831-.805zm0-18.56l-1.831-.805-.005.012-.005.012 1.841.781zm5.12-7.36l-1.372-1.456-.007.007-.007.007 1.386 1.442zm7.744-4.8l.705 1.872.012-.005.012-.005-.729-1.862zm20.16.32l-.803 1.832.015.006.015.007.773-1.845zm7.936 5.888l1.356 1.47 1.386-1.279-1.195-1.459-1.547 1.268zm-6.656 6.144l-1.503 1.32 1.353 1.54 1.506-1.39-1.356-1.47zm-5.12-3.904l-.862 1.805.017.008.017.008.828-1.821zm-16.448 2.624l1.414 1.414-1.414-1.414zm-3.008 4.544l-1.848-.766-.008.019-.007.02 1.863.727zm0 11.648l-1.863.727.007.02.008.019 1.848-.766zm3.008 4.544l-1.414 1.414 1.414-1.414zm16.448 2.688l.827 1.821.017-.008.017-.008-.861-1.805zm5.12-4.032l1.356-1.47-1.524-1.407-1.351 1.575 1.519 1.302zm6.656 6.144l1.547 1.268 1.195-1.459-1.386-1.279-1.356 1.47zm-7.936 5.952l-.794-1.836-.009.004.803 1.832zm-10.56.048c-3.239 0-6.222-.519-8.968-1.539l-1.393 3.75c3.228 1.199 6.687 1.789 10.361 1.789v-4zm-8.935-1.526c-2.712-1.061-5.046-2.544-7.024-4.444l-2.771 2.884c2.374 2.281 5.16 4.041 8.337 5.284l1.458-3.724zm-7.024-4.444a20.838 20.838 0 01-4.674-6.723l-3.662 1.61a24.836 24.836 0 005.565 7.997l2.771-2.884zm-4.664-6.699c-1.08-2.545-1.633-5.369-1.633-8.499h-4c0 3.612.641 6.974 1.951 10.061l3.682-1.562zm-1.633-8.499c0-3.13.553-5.954 1.633-8.499l-3.682-1.562c-1.31 3.087-1.951 6.449-1.951 10.061h4zm1.623-8.475a20.838 20.838 0 014.674-6.723l-2.771-2.884a24.836 24.836 0 00-5.565 7.997l3.662 1.61zm4.66-6.709c2.02-1.904 4.373-3.365 7.078-4.384l-1.41-3.744c-3.184 1.2-5.994 2.939-8.411 5.216l2.743 2.912zm7.102-4.394c2.688-1.051 5.659-1.59 8.935-1.59v-4c-3.722 0-7.193.613-10.393 1.866l1.458 3.724zm8.935-1.59c3.645 0 6.865.64 9.693 1.88l1.606-3.664c-3.402-1.491-7.179-2.216-11.299-2.216v4zm9.723 1.893c2.861 1.198 5.239 2.965 7.162 5.311l3.094-2.536c-2.345-2.86-5.257-5.018-8.71-6.465l-1.546 3.69zm7.352 2.573l-6.656 6.144 2.713 2.94 6.656-6.144-2.713-2.94zm-3.796 6.294c-1.699-1.934-3.629-3.42-5.796-4.405l-1.655 3.642c1.588.722 3.072 1.839 4.445 3.403l3.006-2.64zm-5.762-4.389c-2.164-1.033-4.509-1.539-7.005-1.539v4c1.941 0 3.692.39 5.282 1.149l1.723-3.61zm-7.005-1.539c-2.312 0-4.481.378-6.487 1.161l1.454 3.726c1.493-.582 3.163-.887 5.033-.887v-4zm-6.487 1.161c-1.997.779-3.749 1.91-5.231 3.393l2.828 2.828c1.077-1.077 2.355-1.909 3.857-2.495l-1.454-3.726zm-5.231 3.393c-1.475 1.474-2.621 3.212-3.442 5.192l3.695 1.532c.63-1.518 1.489-2.81 2.575-3.896l-2.828-2.828zm-3.457 5.231c-.785 2.01-1.161 4.202-1.161 6.551h4c0-1.918.306-3.609.887-5.097l-3.726-1.454zm-1.161 6.551c0 2.349.376 4.541 1.161 6.551l3.726-1.454c-.581-1.488-.887-3.179-.887-5.097h-4zm1.176 6.59c.821 1.98 1.967 3.718 3.442 5.192l2.828-2.828c-1.086-1.086-1.945-2.378-2.575-3.896l-3.695 1.532zm3.442 5.192c1.482 1.483 3.234 2.614 5.231 3.393l1.454-3.726c-1.502-.586-2.78-1.418-3.857-2.495l-2.828 2.828zm5.231 3.393c2.006.783 4.175 1.161 6.487 1.161v-4c-1.87 0-3.54-.305-5.033-.887l-1.454 3.726zm6.487 1.161c2.482 0 4.815-.479 6.971-1.459l-1.655-3.642c-1.598.727-3.361 1.101-5.316 1.101v4zm7.005-1.475c2.161-1.031 4.084-2.56 5.777-4.535l-3.037-2.604c-1.379 1.609-2.869 2.768-4.463 3.529l1.723 3.61zm2.902-4.367l6.656 6.144 2.713-2.94-6.656-6.144-2.713 2.94zm6.466 3.406c-1.927 2.351-4.312 4.143-7.183 5.384l1.588 3.672c3.443-1.489 6.348-3.665 8.689-6.52l-3.094-2.536zm-7.192 5.388c-2.826 1.239-6.066 1.88-9.757 1.88v4c4.159 0 7.959-.724 11.363-2.216l-1.606-3.664zM440.341 163l-1.679 1.086.591.914h1.088v-2zm-13.952-21.568l-1.033-1.713-1.767 1.066 1.121 1.733 1.679-1.086zm8.384-5.056l1.676-1.092-1.054-1.618-1.655.997 1.033 1.713zM452.117 163v2h3.69l-2.014-3.092-1.676 1.092zm-40.896 0h-2v2h2v-2zm0-44.8v-2h-2v2h2zm10.304 0h2v-2h-2v2zm0 44.8v2h2v-2h-2zm-3.008-18.048h-2v2h2v-2zm0-8.64v-2h-2v2h2zm15.616 0h2v-2h-2v2zm0 8.64v2h2v-2h-2zm1.6-3.2l-.24 1.986 1.212.146.685-1.011-1.657-1.121zm-9.536-1.152l-1.678-1.088-1.744 2.689 3.182.385.24-1.986zm14.528-22.4v-2h-1.086l-.592.912 1.678 1.088zm10.944 0l1.657 1.121 2.111-3.121h-3.768v2zm-9.648 43.714l-13.952-21.568-3.359 2.172 13.952 21.568 3.359-2.172zm-14.599-18.769l8.384-5.056-2.066-3.426-8.384 5.056 2.066 3.426zm5.675-5.677l17.344 26.624 3.352-2.184-17.344-26.624-3.352 2.184zM452.117 161h-11.776v4h11.776v-4zm-38.896 2v-44.8h-4V163h4zm-2-42.8h10.304v-4h-10.304v4zm8.304-2V163h4v-44.8h-4zm2 42.8h-10.304v4h10.304v-4zm-1.008-16.048v-8.64h-4v8.64h4zm-2-6.64h15.616v-4h-15.616v4zm13.616-2v8.64h4v-8.64h-4zm2 6.64h-15.616v4h15.616v-4zm1.84-3.186l-9.536-1.152-.48 3.972 9.536 1.152.48-3.972zm-8.098 1.922l14.528-22.4-3.356-2.176-14.528 22.4 3.356 2.176zm12.85-21.488h10.944v-4h-10.944v4zm9.288-3.121l-15.936 23.552 3.313 2.242 15.936-23.552-3.313-2.242zM468.174 163h-2v2h2v-2zm0-44.8v-2h-2v2h2zm10.304 0h2v-2h-2v2zm0 29.184h-2v6.115l3.614-4.933-1.614-1.182zm21.376-29.184v-2h-1.014l-.599.818 1.613 1.182zm9.728 0h2v-2h-2v2zm0 44.8v2h2v-2h-2zm-10.24 0h-2v2h2v-2zm0-29.12h2v-6.104l-3.612 4.921 1.612 1.183zM477.966 163v2h1.013l.599-.817-1.612-1.183zm-7.792 0v-44.8h-4V163h4zm-2-42.8h10.304v-4h-10.304v4zm8.304-2v29.184h4V118.2h-4zm3.614 30.366l21.376-29.184-3.227-2.364-21.376 29.184 3.227 2.364zm19.762-28.366h9.728v-4h-9.728v4zm7.728-2V163h4v-44.8h-4zm2 42.8h-10.24v4h10.24v-4zm-8.24 2v-29.12h-4V163h4zm-3.612-30.303l-21.376 29.12 3.224 2.366 21.376-29.12-3.224-2.366zM477.966 161h-9.792v4h9.792v-4zm83.354-2.608h-2v2h2v-2zm0-31.744h2v-2h-2v2zm-15.36 0v-2h-1.942l-.057 1.941 1.999.059zm-.192 6.528l1.998.092.001-.016v-.017l-1.999-.059zm-.576 7.872l-1.989-.206-.002.017-.001.017 1.992.172zm-1.024 6.784l1.948.456.002-.009-1.95-.447zm-1.856 5.12l-1.756-.958-.011.021-.011.021 1.778.916zm-2.752 3.008l-.252 1.984.636.081.564-.304-.948-1.761zm-11.072-1.408l.056-1.999-.308 3.983.252-1.984zm3.776-1.6l-1.469-1.357-.015.016-.014.016 1.498 1.325zm2.432-4.672l1.917.571.003-.011-1.92-.56zm1.28-7.168l-1.988-.217-.002.015-.001.015 1.991.187zm.64-8.896l1.999.08v-.007l-1.999-.073zm.512-14.016v-2H535.2l-.07 1.927 1.998.073zm34.432 0h2v-2h-2v2zm0 40.192v2h2v-2h-2zm-44.544 13.888l-2-.007-.007 2.007h2.007v-2zm.064-17.728v-2h-1.993l-.007 1.993 2 .007zm50.752 0h2v-2h-2v2zm0 17.728v2h2v-2h-2zm-9.6 0h-2v2h2v-2zm0-9.28h2v-2h-2v2zm-31.616 0v-2h-2v2h2zm0 9.28v2h2v-2h-2zm26.704-13.888v-31.744h-4v31.744h4zm-2-33.744h-15.36v4h15.36v-4zm-17.359 1.941l-.192 6.528 3.998.118.192-6.528-3.998-.118zm-.191 6.495a136.224 136.224 0 01-.567 7.758l3.979.412c.26-2.517.455-5.179.584-7.986l-3.996-.184zm-.57 7.792c-.207 2.398-.536 4.566-.981 6.509l3.899.894c.493-2.153.847-4.508 1.067-7.059l-3.985-.344zm-.979 6.5c-.439 1.877-1.003 3.406-1.665 4.618l3.512 1.916c.875-1.604 1.548-3.489 2.048-5.622l-3.895-.912zm-1.687 4.66c-.588 1.142-1.25 1.801-1.922 2.163l1.896 3.522c1.547-.833 2.72-2.179 3.582-3.853l-3.556-1.832zm-.721 1.94l-11.072-1.408-.505 3.968 11.072 1.408.505-3.968zm-11.38 2.575c2.102.059 3.939-.702 5.329-2.274l-2.996-2.65c-.572.647-1.253.953-2.222.926l-.111 3.998zm5.301-2.242c1.295-1.403 2.226-3.266 2.879-5.458l-3.834-1.142c-.541 1.819-1.231 3.071-1.984 3.886l2.939 2.714zm2.882-5.469c.642-2.199 1.087-4.718 1.352-7.541l-3.983-.374c-.247 2.638-.655 4.898-1.209 6.795l3.84 1.12zm1.348-7.511c.305-2.783.521-5.794.651-9.033l-3.997-.16c-.127 3.161-.337 6.08-.63 8.759l3.976.434zm.651-9.04l.512-14.016-3.997-.146-.512 14.016 3.997.146zm-1.487-12.089h34.432v-4h-34.432v4zm32.432-2v40.192h4V118.2h-4zm2 38.192h-10.24v4h10.24v-4zm-42.544 15.895l.064-17.728-4-.014-.064 17.728 4 .014zm-1.936-15.735h50.752v-4H527.08v4zm48.752-2v17.728h4v-17.728h-4zm2 15.728h-9.6v4h9.6v-4zm-7.6 2V163h-4v9.28h4zm-2-11.28h-31.616v4h31.616v-4zm-33.616 2v9.28h4V163h-4zm2 7.28h-9.6v4h9.6v-4zm88.388-7.28l-1.68 1.086.592.914h1.088v-2zm-13.952-21.568l-1.033-1.713-1.768 1.066 1.121 1.733 1.68-1.086zm8.384-5.056l1.676-1.092-1.055-1.618-1.654.997 1.033 1.713zM636.78 163v2h3.69l-2.014-3.092L636.78 163zm-40.896 0h-2v2h2v-2zm0-44.8v-2h-2v2h2zm10.304 0h2v-2h-2v2zm0 44.8v2h2v-2h-2zm-3.008-18.048h-2v2h2v-2zm0-8.64v-2h-2v2h2zm15.616 0h2v-2h-2v2zm0 8.64v2h2v-2h-2zm1.6-3.2l-.24 1.986 1.212.146.684-1.011-1.656-1.121zm-9.536-1.152l-1.678-1.088-1.744 2.689 3.182.385.24-1.986zm14.528-22.4v-2h-1.087l-.591.912 1.678 1.088zm10.944 0l1.656 1.121 2.112-3.121h-3.768v2zm-9.649 43.714l-13.952-21.568-3.359 2.172 13.952 21.568 3.359-2.172zm-14.598-18.769l8.384-5.056-2.066-3.426-8.384 5.056 2.066 3.426zm5.675-5.677l17.344 26.624 3.352-2.184-17.344-26.624-3.352 2.184zM636.78 161h-11.776v4h11.776v-4zm-38.896 2v-44.8h-4V163h4zm-2-42.8h10.304v-4h-10.304v4zm8.304-2V163h4v-44.8h-4zm2 42.8h-10.304v4h10.304v-4zm-1.008-16.048v-8.64h-4v8.64h4zm-2-6.64h15.616v-4H603.18v4zm13.616-2v8.64h4v-8.64h-4zm2 6.64H603.18v4h15.616v-4zm1.84-3.186l-9.536-1.152-.48 3.972 9.536 1.152.48-3.972zm-8.098 1.922l14.528-22.4-3.356-2.176-14.528 22.4 3.356 2.176zm12.85-21.488h10.944v-4h-10.944v4zm9.287-3.121l-15.936 23.552 3.313 2.242 15.936-23.552-3.313-2.242zM652.837 163h-2v2h2v-2zm0-44.8v-2h-2v2h2zm10.304 0h2v-2h-2v2zm0 29.184h-2v6.115l3.613-4.933-1.613-1.182zm21.376-29.184v-2h-1.014l-.6.818 1.614 1.182zm9.728 0h2v-2h-2v2zm0 44.8v2h2v-2h-2zm-10.24 0h-2v2h2v-2zm0-29.12h2v-6.104l-3.613 4.921 1.613 1.183zM662.629 163v2h1.013l.599-.817-1.612-1.183zm-7.792 0v-44.8h-4V163h4zm-2-42.8h10.304v-4h-10.304v4zm8.304-2v29.184h4V118.2h-4zm3.613 30.366l21.376-29.184-3.227-2.364-21.376 29.184 3.227 2.364zm19.763-28.366h9.728v-4h-9.728v4zm7.728-2V163h4v-44.8h-4zm2 42.8h-10.24v4h10.24v-4zm-8.24 2v-29.12h-4V163h4zm-3.613-30.303l-21.376 29.12 3.225 2.366 21.376-29.12-3.225-2.366zM662.629 161h-9.792v4h9.792v-4zm112.991-2.608h-2v2h2v-2zm0-31.744h2v-2h-2v2zm-15.36 0v-2h-1.942l-.057 1.941 1.999.059zm-.192 6.528l1.998.092.001-.016v-.017l-1.999-.059zm-.576 7.872l-1.989-.206-.002.017-.001.017 1.992.172zm-1.024 6.784l1.948.456.002-.009-1.95-.447zm-1.856 5.12l-1.756-.958-.011.021-.011.021 1.778.916zm-2.752 3.008l-.252 1.984.636.081.564-.304-.948-1.761zm-11.072-1.408l.056-1.999-.308 3.983.252-1.984zm3.776-1.6l-1.469-1.357-.015.016-.014.016 1.498 1.325zm2.432-4.672l1.917.571.003-.011-1.92-.56zm1.28-7.168l-1.988-.217-.002.015-.001.015 1.991.187zm.64-8.896l1.999.08v-.007l-1.999-.073zm.512-14.016v-2H749.5l-.07 1.927 1.998.073zm34.432 0h2v-2h-2v2zm0 40.192v2h2v-2h-2zm-44.544 13.888l-2-.007-.007 2.007h2.007v-2zm.064-17.728v-2h-1.993l-.007 1.993 2 .007zm50.752 0h2v-2h-2v2zm0 17.728v2h2v-2h-2zm-9.6 0h-2v2h2v-2zm0-9.28h2v-2h-2v2zm-31.616 0v-2h-2v2h2zm0 9.28v2h2v-2h-2zm26.704-13.888v-31.744h-4v31.744h4zm-2-33.744h-15.36v4h15.36v-4zm-17.359 1.941l-.192 6.528 3.998.118.192-6.528-3.998-.118zm-.191 6.495a136.224 136.224 0 01-.567 7.758l3.979.412c.26-2.517.455-5.179.584-7.986l-3.996-.184zm-.57 7.792c-.207 2.398-.536 4.566-.981 6.509l3.899.894c.493-2.153.847-4.508 1.067-7.059l-3.985-.344zm-.979 6.5c-.439 1.877-1.003 3.406-1.665 4.618l3.512 1.916c.875-1.604 1.548-3.489 2.048-5.622l-3.895-.912zm-1.687 4.66c-.588 1.142-1.25 1.801-1.922 2.163l1.896 3.522c1.547-.833 2.72-2.179 3.582-3.853l-3.556-1.832zm-.721 1.94l-11.072-1.408-.505 3.968 11.072 1.408.505-3.968zm-11.38 2.575c2.102.059 3.939-.702 5.329-2.274l-2.996-2.65c-.572.647-1.253.953-2.222.926l-.111 3.998zm5.301-2.242c1.295-1.403 2.226-3.266 2.879-5.458l-3.834-1.142c-.541 1.819-1.231 3.071-1.984 3.886l2.939 2.714zm2.882-5.469c.641-2.199 1.087-4.718 1.351-7.541l-3.982-.374c-.247 2.638-.655 4.898-1.209 6.795l3.84 1.12zm1.348-7.511c.305-2.783.521-5.794.651-9.033l-3.997-.16c-.127 3.161-.337 6.08-.63 8.759l3.976.434zm.651-9.04l.512-14.016-3.997-.146-.512 14.016 3.997.146zm-1.487-12.089h34.432v-4h-34.432v4zm32.432-2v40.192h4V118.2h-4zm2 38.192h-10.24v4h10.24v-4zm-42.544 15.895l.064-17.728-4-.014-.064 17.728 4 .014zm-1.936-15.735h50.752v-4H741.38v4zm48.752-2v17.728h4v-17.728h-4zm2 15.728h-9.6v4h9.6v-4zm-7.6 2V163h-4v9.28h4zm-2-11.28h-31.616v4h31.616v-4zm-33.616 2v9.28h4V163h-4zm2 7.28h-9.6v4h9.6v-4zm70.98-8.24l-.72 1.866.009.003.711-1.869zm-7.808-4.864l-1.386 1.442.007.007.007.007 1.372-1.456zm-5.12-7.36l-1.841.781.005.012.005.012 1.831-.805zm0-18.432l-1.831-.805-.005.012-.005.012 1.841.781zm5.184-7.36l-1.372-1.456 1.372 1.456zm7.808-4.864l-.72-1.866.72 1.866zm19.456 0l-.729 1.863.009.003.72-1.866zm7.744 4.864l-1.386 1.442.007.007.007.007 1.372-1.456zm5.184 7.36l-1.831.805.004.01 1.827-.815zm0 18.496l1.831.805.004-.011-1.835-.794zm-5.184 7.36l1.37 1.456h.001l-1.371-1.456zm-7.744 4.8l-.72-1.866-.009.004.729 1.862zm-4.224-8.128l-.743-1.857-.008.003-.008.004.759 1.85zm4.48-2.944l-1.414-1.414 1.414 1.414zm2.944-4.544l-1.848-.766-.008.019-.007.02 1.863.727zm0-11.648l-1.863.727.007.02.008.019 1.848-.766zm-2.944-4.544l-1.438 1.39.012.012.012.012 1.414-1.414zm-4.416-2.944l-.743 1.857.743-1.857zm-11.136 0l-.743-1.857-.008.003-.008.004.759 1.85zm-4.416 2.944l1.414 1.414-1.414-1.414zm-3.008 4.544l-1.848-.766-.008.019-.007.02 1.863.727zm0 11.648l-1.869.712.01.027.011.027 1.848-.766zm2.944 4.544l-1.438 1.39.012.012.012.012 1.414-1.414zm4.48 2.944l.743-1.857-.743 1.857zm5.632 7.856c-3.321 0-6.363-.539-9.145-1.597l-1.422 3.738c3.276 1.246 6.805 1.859 10.567 1.859v-4zm-9.137-1.594c-2.757-1.063-5.135-2.549-7.156-4.454l-2.743 2.912c2.417 2.277 5.244 4.033 8.46 5.274l1.439-3.732zm-7.142-4.44a20.838 20.838 0 01-4.674-6.723l-3.662 1.61a24.836 24.836 0 005.565 7.997l2.771-2.884zm-4.664-6.699c-1.081-2.548-1.633-5.352-1.633-8.435h-4c0 3.573.642 6.913 1.951 9.997l3.682-1.562zm-1.633-8.435c0-3.083.552-5.887 1.633-8.435l-3.682-1.562c-1.309 3.084-1.951 6.424-1.951 9.997h4zm1.623-8.411a20.37 20.37 0 014.724-6.709l-2.743-2.912a24.373 24.373 0 00-5.643 8.011l3.662 1.61zm4.724-6.709c2.021-1.905 4.399-3.391 7.157-4.454l-1.44-3.732c-3.216 1.241-6.043 2.997-8.46 5.274l2.743 2.912zm7.156-4.454c2.737-1.056 5.733-1.594 9.009-1.594v-4c-3.722 0-7.211.614-10.448 1.862l1.439 3.732zm9.009-1.594c3.322 0 6.313.54 8.999 1.59l1.458-3.724c-3.203-1.254-6.696-1.866-10.457-1.866v4zm9.008 1.594c2.754 1.062 5.105 2.545 7.078 4.44l2.771-2.884c-2.379-2.286-5.19-4.046-8.41-5.288l-1.439 3.732zm7.092 4.454a20.373 20.373 0 014.725 6.709l3.662-1.61a24.376 24.376 0 00-5.644-8.011l-2.743 2.912zm4.729 6.719c1.111 2.49 1.683 5.28 1.683 8.401h4c0-3.62-.666-6.974-2.03-10.031l-3.653 1.63zm1.683 8.401c0 3.074-.57 5.895-1.692 8.486l3.671 1.588c1.353-3.126 2.021-6.492 2.021-10.074h-4zm-1.687 8.475a20.373 20.373 0 01-4.725 6.709l2.743 2.912a24.376 24.376 0 005.644-8.011l-3.662-1.61zm-4.724 6.709c-1.974 1.858-4.33 3.324-7.093 4.39l1.439 3.732c3.211-1.238 6.018-2.972 8.395-5.21l-2.741-2.912zm-7.102 4.394c-2.688 1.051-5.659 1.59-8.935 1.59v4c3.721 0 7.193-.613 10.393-1.866l-1.458-3.724zm-8.999-3.242c2.236 0 4.332-.381 6.263-1.174l-1.518-3.7c-1.397.573-2.97.874-4.745.874v4zm6.247-1.167a15.2 15.2 0 005.151-3.387l-2.828-2.828a11.217 11.217 0 01-3.809 2.501l1.486 3.714zm5.151-3.387c1.483-1.483 2.614-3.234 3.393-5.231l-3.726-1.454c-.586 1.501-1.418 2.78-2.495 3.857l2.828 2.828zm3.377-5.192c.838-2.021 1.241-4.227 1.241-6.59h-4c0 1.904-.323 3.58-.936 5.058l3.695 1.532zm1.241-6.59c0-2.363-.403-4.569-1.241-6.59l-3.695 1.532c.613 1.478.936 3.154.936 5.058h4zm-1.225-6.551c-.779-1.997-1.91-3.748-3.393-5.231l-2.828 2.828c1.077 1.077 1.909 2.356 2.495 3.857l3.726-1.454zm-3.369-5.207a14.533 14.533 0 00-5.111-3.411l-1.486 3.714a10.546 10.546 0 013.721 2.477l2.876-2.78zm-5.111-3.411c-1.964-.785-4.075-1.167-6.311-1.167v4c1.774 0 3.375.301 4.825.881l1.486-3.714zm-6.311-1.167c-2.237 0-4.347.382-6.311 1.167l1.486 3.714c1.449-.58 3.051-.881 4.825-.881v-4zm-6.327 1.174a15.356 15.356 0 00-5.071 3.38l2.828 2.828a11.37 11.37 0 013.761-2.508l-1.518-3.7zm-5.071 3.38c-1.475 1.474-2.621 3.212-3.442 5.192l3.695 1.532c.63-1.518 1.489-2.81 2.575-3.896l-2.828-2.828zm-3.457 5.231c-.785 2.01-1.161 4.202-1.161 6.551h4c0-1.918.306-3.609.887-5.097l-3.726-1.454zm-1.161 6.551c0 2.312.378 4.497 1.155 6.536l3.738-1.424c-.589-1.545-.893-3.243-.893-5.112h-4zm1.176 6.59c.816 1.966 1.931 3.696 3.354 5.168l2.876-2.78c-1.052-1.088-1.899-2.388-2.535-3.92l-3.695 1.532zm3.378 5.192a15.19 15.19 0 005.151 3.387l1.486-3.714a11.197 11.197 0 01-3.809-2.501l-2.828 2.828zm5.151 3.387c1.964.785 4.074 1.167 6.311 1.167v-4c-1.774 0-3.376-.301-4.825-.881l-1.486 3.714zm85.607 5.439l-.993 1.737.011.005.982-1.742zm-6.912-7.488l1.793-.885-1.793.885zm.448-25.28l-1.754-.961-.005.008-.004.009 1.763.944zm8.064-8.192l-.955-1.757-.009.005.964 1.752zm18.752-2.048l.458-1.947-.458 1.947zm5.632 2.304l1.786.9.807-1.602-1.505-.976-1.088 1.678zm-3.84 7.616l-1.136 1.646 1.889 1.303 1.033-2.049-1.786-.9zm-3.968-1.728l-.471 1.944.028.006.028.006.415-1.956zm-13.632 3.008l-1.44-1.388 1.44 1.388zm-3.392 12.992h-2v.045l.002.046 1.998-.091zm.384 2.816l-1.365 1.462 4.757 4.44-1.442-6.345-1.95.443zm-2.88-2.688l-1.798-.876-.648 1.329 1.081 1.009 1.365-1.462zm3.136-4.16l1.31 1.511.014-.012.014-.012-1.338-1.487zm4.544-2.56l.604 1.906.014-.004.014-.005-.632-1.897zm13.696.832l.894-1.789-.894 1.789zm5.504 4.864l-1.675 1.094.008.011.008.012 1.659-1.117zm-.192 15.296l-1.655-1.124-.004.007 1.659 1.117zm-6.08 5.184l.857 1.807.007-.003.006-.003-.87-1.801zm-5.312-6.72l.838 1.816.015-.007.014-.007-.867-1.802zm2.688-2.368l1.696 1.06-1.696-1.06zm-1.152-8.384l-1.343 1.482.024.022.025.021 1.294-1.525zm-9.536-.96l.867 1.802.027-.013.026-.013-.92-1.776zm-2.752 2.368l-1.664-1.109-.006.008-.005.008 1.675 1.093zm0 6.912l-1.696 1.06.01.016.011.017 1.675-1.093zm2.688 2.368l-.921 1.776.026.013.027.013.868-1.802zm4.8 6.576c-3.814 0-7.026-.792-9.707-2.302l-1.963 3.484c3.378 1.904 7.291 2.818 11.67 2.818v-4zm-9.696-2.296c-2.618-1.496-4.654-3.685-6.111-6.637l-3.587 1.77c1.786 3.618 4.358 6.422 7.713 8.339l1.985-3.472zm-6.111-6.637c-1.449-2.937-2.225-6.668-2.225-11.275h-4c0 5.035.845 9.412 2.638 13.045l3.587-1.77zm-2.225-11.275c0-4.92.915-8.95 2.643-12.176l-3.526-1.888c-2.112 3.942-3.117 8.659-3.117 14.064h4zm2.634-12.159c1.789-3.268 4.21-5.716 7.274-7.401l-1.928-3.504c-3.764 2.069-6.718 5.083-8.854 8.983l3.508 1.922zm7.264-7.396c3.125-1.697 6.756-2.573 10.95-2.573v-4c-4.767 0-9.071 1.001-12.859 3.059l1.909 3.514zm10.95-2.573c2.245 0 4.374.24 6.39.715l.916-3.894c-2.336-.549-4.773-.821-7.306-.821v4zm6.39.715c1.993.469 3.648 1.157 5.001 2.035l2.177-3.356c-1.804-1.17-3.903-2.018-6.262-2.573l-.916 3.894zm4.304-.543l-3.84 7.616 3.572 1.8 3.84-7.616-3.572-1.8zm-.919 6.87a12.913 12.913 0 00-4.688-2.038l-.83 3.912a8.95 8.95 0 013.247 1.418l2.271-3.292zm-4.632-2.026a20.674 20.674 0 00-4.887-.568v4c1.386 0 2.7.154 3.945.456l.942-3.888zm-4.887-.568c-4.314 0-7.947 1.32-10.656 4.132l2.88 2.776c1.813-1.882 4.324-2.908 7.776-2.908v-4zm-10.656 4.132c-2.747 2.85-3.952 6.91-3.952 11.82h4c0-4.306 1.056-7.201 2.832-9.044l-2.88-2.776zm-3.952 11.82v2.56h4v-2.56h-4zm.002 2.651c.048 1.06.192 2.117.431 3.168l3.901-.886a13.918 13.918 0 01-.336-2.464l-3.996.182zm3.746 1.263l-2.88-2.688-2.729 2.924 2.88 2.688 2.729-2.924zm-2.446-.35c.703-1.444 1.59-2.608 2.648-3.525l-2.62-3.022c-1.502 1.301-2.706 2.911-3.624 4.795l3.596 1.752zm2.676-3.549c1.054-.949 2.314-1.666 3.81-2.141l-1.209-3.812c-2.003.635-3.772 1.624-5.277 2.979l2.676 2.974zm3.838-2.15c1.564-.521 3.31-.793 5.256-.793v-4c-2.321 0-4.5.325-6.521.999l1.265 3.794zm5.256-.793c2.63 0 4.92.52 6.913 1.517l1.789-3.578c-2.615-1.307-5.53-1.939-8.702-1.939v4zm6.913 1.517c1.998.999 3.559 2.384 4.724 4.169l3.349-2.188c-1.565-2.397-3.673-4.254-6.284-5.559l-1.789 3.578zm4.74 4.192c1.16 1.723 1.771 3.777 1.771 6.243h4c0-3.166-.797-6.018-2.453-8.477l-3.318 2.234zm1.771 6.243c0 2.674-.672 4.918-1.959 6.812l3.309 2.248c1.785-2.629 2.65-5.675 2.65-9.06h-4zm-1.963 6.819c-1.283 1.906-3.03 3.407-5.292 4.5l1.741 3.602c2.858-1.382 5.165-3.337 6.869-5.868l-3.318-2.234zm-5.279 4.494c-2.212 1.05-4.771 1.599-7.718 1.599v4c3.452 0 6.611-.646 9.433-1.985l-1.715-3.614zm-8.294-2.145c1.686 0 3.261-.298 4.678-.952l-1.676-3.632c-.802.37-1.787.584-3.002.584v4zm4.707-.966c1.472-.709 2.664-1.746 3.517-3.11l-3.392-2.12c-.428.684-1.028 1.225-1.86 1.626l1.735 3.604zm3.517-3.11c.857-1.372 1.264-2.92 1.264-4.58h-4c0 .985-.234 1.784-.656 2.46l3.392 2.12zm1.264-4.58c0-2.563-.91-4.77-2.818-6.389l-2.588 3.05c.908.77 1.406 1.806 1.406 3.339h4zm-2.769-6.346c-1.819-1.648-4.176-2.374-6.847-2.374v4c1.937 0 3.249.512 4.161 1.338l2.686-2.964zm-6.847-2.374c-1.798 0-3.469.351-4.953 1.12l1.841 3.552c.82-.426 1.838-.672 3.112-.672v-4zm-4.9 1.094c-1.461.704-2.659 1.727-3.548 3.061l3.328 2.218c.476-.714 1.113-1.269 1.955-1.675l-1.735-3.604zm-3.559 3.077c-.879 1.347-1.285 2.89-1.285 4.549h4c0-.986.233-1.748.635-2.363l-3.35-2.186zm-1.285 4.549c0 1.631.413 3.155 1.264 4.516l3.392-2.12c-.429-.687-.656-1.467-.656-2.396h-4zm1.285 4.549c.848 1.3 2.018 2.312 3.442 3.051l1.841-3.552c-.879-.456-1.501-1.022-1.933-1.685l-3.35 2.186zm3.495 3.077c1.492.718 3.214 1.03 5.092 1.03v-4c-1.451 0-2.544-.243-3.357-.634l-1.735 3.604zm46.93 4.086l-1.069 1.69.009.006.009.006 1.051-1.702zm-6.848-7.936l-1.802.868 1.802-.868zm0-25.088l1.802.868-1.802-.868zm6.848-7.872l1.051 1.702.009-.006.009-.006-1.069-1.69zm19.712 0l-1.081 1.683.015.01.015.009 1.051-1.702zm6.848 7.872l-1.802.868 1.802-.868zm0 25.088l-1.802-.868 1.802.868zm-6.848 7.936l1.062 1.695.007-.005-1.069-1.69zm-5.312-7.552l-1.192-1.606-.013.009-.012.01 1.217 1.587zm3.072-4.672l-1.882-.677-.006.016-.006.017 1.894.644zm0-16.512l-1.894.644.006.017.006.016 1.882-.677zm-3.072-4.672l-1.217 1.587.012.01.013.009 1.192-1.606zm-9.088 0l-1.192-1.606-.013.009-.012.01 1.217 1.587zm-3.072 4.672l-1.882-.677-.006.016-.006.017 1.894.644zm0 16.512l-1.894.644.006.017.006.016 1.882-.677zm3.072 4.672l-1.217 1.587.012.01.013.009 1.192-1.606zm4.544 8.24c-3.328 0-6.244-.808-8.805-2.39l-2.102 3.404c3.241 2.002 6.896 2.986 10.907 2.986v-4zm-8.787-2.378c-2.549-1.612-4.594-3.954-6.115-7.114l-3.604 1.736c1.807 3.752 4.327 6.701 7.581 8.758l2.138-3.38zm-6.115-7.114c-1.503-3.12-2.298-6.989-2.298-11.676h-4c0 5.126.868 9.62 2.694 13.412l3.604-1.736zM955.59 140.6c0-4.687.795-8.556 2.298-11.676l-3.604-1.736c-1.826 3.792-2.694 8.286-2.694 13.412h4zm2.298-11.676c1.519-3.157 3.56-5.471 6.097-7.038l-2.102-3.404c-3.266 2.017-5.791 4.951-7.599 8.706l3.604 1.736zm6.115-7.05c2.559-1.618 5.469-2.442 8.787-2.442v-4c-4.021 0-7.682 1.011-10.925 3.062l2.138 3.38zm8.787-2.442c3.366 0 6.269.826 8.775 2.435l2.161-3.366c-3.211-2.061-6.878-3.069-10.936-3.069v4zm8.805 2.454c2.537 1.567 4.577 3.881 6.097 7.038l3.604-1.736c-1.809-3.755-4.334-6.689-7.599-8.706l-2.102 3.404zm6.097 7.038c1.502 3.12 2.298 6.989 2.298 11.676h4c0-5.126-.869-9.62-2.694-13.412l-3.604 1.736zm2.298 11.676c0 4.687-.796 8.556-2.298 11.676l3.604 1.736c1.825-3.792 2.694-8.286 2.694-13.412h-4zm-2.298 11.676c-1.521 3.16-3.567 5.502-6.115 7.114l2.138 3.38c3.254-2.057 5.774-5.006 7.581-8.758l-3.604-1.736zm-6.109 7.109c-2.508 1.573-5.418 2.383-8.793 2.383v4c4.049 0 7.71-.982 10.918-2.993l-2.125-3.39zM972.79 157c2.15 0 4.101-.613 5.761-1.885l-2.434-3.174c-.901.69-1.978 1.059-3.327 1.059v4zm5.735-1.866c1.75-1.298 2.965-3.254 3.774-5.634l-3.787-1.288c-.641 1.887-1.474 3.045-2.37 3.71l2.383 3.212zm3.763-5.601c.874-2.429 1.27-5.433 1.27-8.933h-4c0 3.241-.372 5.741-1.034 7.579l3.764 1.354zm1.27-8.933c0-3.5-.396-6.504-1.27-8.933l-3.764 1.354c.662 1.838 1.034 4.338 1.034 7.579h4zm-1.259-8.9c-.809-2.38-2.024-4.336-3.774-5.634l-2.383 3.212c.896.665 1.729 1.823 2.37 3.71l3.787-1.288zm-3.748-5.615c-1.66-1.272-3.611-1.885-5.761-1.885v4c1.349 0 2.426.369 3.327 1.059l2.434-3.174zm-5.761-1.885c-2.119 0-4.055.619-5.736 1.866l2.383 3.212c.965-.716 2.059-1.078 3.353-1.078v-4zm-5.761 1.885c-1.684 1.291-2.89 3.228-3.737 5.582l3.764 1.354c.688-1.912 1.531-3.09 2.407-3.762l-2.434-3.174zm-3.749 5.615c-.821 2.417-1.194 5.408-1.194 8.9h4c0-3.249.352-5.762.981-7.612l-3.787-1.288zm-1.194 8.9c0 3.492.373 6.483 1.194 8.9l3.787-1.288c-.629-1.85-.981-4.363-.981-7.612h-4zm1.206 8.933c.847 2.354 2.053 4.291 3.737 5.582l2.434-3.174c-.876-.672-1.719-1.85-2.407-3.762l-3.764 1.354zm3.762 5.601c1.681 1.247 3.617 1.866 5.736 1.866v-4c-1.294 0-2.388-.362-3.353-1.078l-2.383 3.212zM1014.69 163l-1.65-1.128-2.14 3.128h3.79v-2zm30.59-44.8v-2h-1.05l-.6.872 1.65 1.128zm7.62 0l1.65 1.128 2.14-3.128h-3.79v2zm-30.59 44.8v2h1.05l.6-.872-1.65-1.128zm-9.47-22.08l-1.05 1.703.01.01.02.01 1.02-1.723zm-3.97-4.288l-1.79.894.01.025.01.024 1.77-.943zm0-13.12l-1.77-.943v.016l-.01.016 1.78.911zm3.97-4.288l1.04 1.703-1.04-1.703zm15.42 4.288l1.78-.911-1.78.911zm0 13.12l1.78.911v-.008l.01-.009-1.79-.894zm-3.9 4.288l1.01 1.723.02-.01.01-.01-1.04-1.703zm-2.37-5.504l1.6 1.19.01-.013.01-.015-1.62-1.162zm0-10.688l-1.63 1.162.01.015.01.013 1.61-1.19zm-6.79 0l-1.6-1.2v.01l1.6 1.19zm0 10.624l-1.62 1.162.01.019.01.019 1.6-1.2zm28.04 26.688l-1.05 1.703.02.016.03.015 1-1.734zm-3.91-4.288l-1.79.894.01.009v.008l1.78-.911zm0-13.12l1.78.911-1.78-.911zm3.91-4.288l-1.03-1.715-.01.006-.01.006 1.05 1.703zm11.58 0l-1.05 1.703 1.05-1.703zm3.9 4.288l1.78-.911-1.78.911zm0 13.12l1.78.911.01-.008v-.009l-1.79-.894zm-3.9 4.288l1.02 1.723.01-.01.02-.01-1.05-1.703zm-2.43-5.504l1.6 1.19.01-.013.01-.015-1.62-1.162zm0-10.688l-1.63 1.162 1.63-1.162zm-6.79 0l-1.6-1.2v.01l1.6 1.19zm0 10.688l-1.62 1.162.02.034.02.032 1.58-1.228zm-29.26 7.592l30.59-44.8-3.3-2.256-30.59 44.8 3.3 2.256zm28.94-43.928h7.62v-4h-7.62v4zm5.97-3.128l-30.59 44.8 3.3 2.256 30.59-44.8-3.3-2.256zM1022.31 161h-7.62v4h7.62v-4zm-3.71-20.608c-1.87 0-3.43-.417-4.75-1.195l-2.03 3.446c2.01 1.185 4.29 1.749 6.78 1.749v-4zm-4.72-1.175c-1.34-.827-2.42-1.985-3.25-3.528l-3.53 1.886c1.14 2.126 2.7 3.827 4.69 5.048l2.09-3.406zm-3.22-3.479c-.78-1.55-1.2-3.43-1.2-5.698h-4c0 2.767.52 5.281 1.62 7.486l3.58-1.788zm-1.2-5.698c0-2.27.42-4.12 1.19-5.617l-3.56-1.822c-1.11 2.172-1.63 4.674-1.63 7.439h4zm1.17-5.585c.83-1.543 1.91-2.701 3.25-3.528l-2.09-3.406c-1.99 1.221-3.55 2.922-4.69 5.048l3.53 1.886zm3.25-3.528c1.32-.808 2.87-1.239 4.72-1.239v-4c-2.51 0-4.8.593-6.81 1.833l2.09 3.406zm4.72-1.239c1.84 0 3.39.431 4.71 1.239l2.09-3.406c-2.01-1.24-4.3-1.833-6.8-1.833v4zm4.71 1.239c1.33.822 2.39 1.969 3.17 3.496l3.56-1.822c-1.1-2.142-2.64-3.854-4.64-5.08l-2.09 3.406zm3.17 3.496c.76 1.497 1.19 3.347 1.19 5.617h4c0-2.765-.52-5.267-1.63-7.439l-3.56 1.822zm1.19 5.617c0 2.268-.42 4.148-1.2 5.698l3.58 1.788c1.1-2.205 1.62-4.719 1.62-7.486h-4zm-1.19 5.681c-.78 1.527-1.84 2.674-3.17 3.496l2.09 3.406c2-1.226 3.54-2.938 4.64-5.08l-3.56-1.822zm-3.14 3.476c-1.32.778-2.88 1.195-4.74 1.195v4c2.48 0 4.76-.564 6.77-1.749l-2.03-3.446zm-4.74-.053c2.05 0 3.77-.887 4.99-2.538l-3.21-2.38c-.48.653-1.02.918-1.78.918v4zm5.01-2.566c1.21-1.687 1.66-3.971 1.66-6.538h-4c0 2.212-.41 3.511-.91 4.214l3.25 2.324zm1.66-6.538c0-2.558-.45-4.844-1.68-6.502l-3.21 2.38c.48.646.89 1.902.89 4.122h4zm-1.66-6.474c-1.21-1.694-2.93-2.63-5.01-2.63v4c.73 0 1.26.259 1.76.954l3.25-2.324zm-5.01-2.63c-2.06 0-3.76.948-5 2.592l3.2 2.4c.56-.746 1.12-.992 1.8-.992v-4zm-5 2.602c-1.23 1.658-1.68 3.944-1.68 6.502h4c0-2.22.41-3.476.89-4.122l-3.21-2.38zm-1.68 6.502c0 2.534.45 4.792 1.66 6.474l3.25-2.324c-.5-.708-.91-1.99-.91-4.15h-4zm1.68 6.512c1.24 1.644 2.94 2.592 5 2.592v-4c-.68 0-1.24-.246-1.8-.992l-3.2 2.4zm35.4 24.96c-1.82 0-3.39-.413-4.77-1.206l-1.99 3.468c2.03 1.17 4.3 1.738 6.76 1.738v-4zm-4.72-1.175c-1.33-.822-2.39-1.969-3.17-3.496l-3.56 1.822c1.1 2.142 2.64 3.854 4.64 5.08l2.09-3.406zm-3.16-3.479c-.77-1.55-1.2-3.43-1.2-5.698h-4c0 2.767.52 5.281 1.62 7.486l3.58-1.788zm-1.2-5.698c0-2.27.43-4.12 1.19-5.617l-3.56-1.822c-1.11 2.172-1.63 4.674-1.63 7.439h4zm1.19-5.617c.78-1.527 1.84-2.674 3.17-3.496l-2.09-3.406c-2 1.226-3.54 2.938-4.64 5.08l3.56 1.822zm3.15-3.484c1.38-.824 2.94-1.251 4.74-1.251v-4c-2.47 0-4.75.597-6.79 1.821l2.05 3.43zm4.74-1.251c1.9 0 3.46.435 4.77 1.239l2.1-3.406c-2.02-1.244-4.34-1.833-6.87-1.833v4zm4.77 1.239c1.34.822 2.39 1.969 3.17 3.496l3.56-1.822c-1.09-2.142-2.64-3.854-4.63-5.08l-2.1 3.406zm3.17 3.496c.77 1.497 1.19 3.347 1.19 5.617h4c0-2.765-.51-5.267-1.63-7.439l-3.56 1.822zm1.19 5.617c0 2.268-.42 4.148-1.2 5.698l3.58 1.788c1.1-2.205 1.62-4.719 1.62-7.486h-4zm-1.19 5.681c-.78 1.527-1.83 2.674-3.17 3.496l2.1 3.406c1.99-1.226 3.54-2.938 4.63-5.08l-3.56-1.822zm-3.14 3.476c-1.31.775-2.89 1.195-4.8 1.195v4c2.52 0 4.82-.561 6.84-1.749l-2.04-3.446zm-4.8-.053c2.05 0 3.77-.887 4.99-2.538l-3.21-2.38c-.48.653-1.02.918-1.78.918v4zm5.01-2.566c1.21-1.687 1.66-3.971 1.66-6.538h-4c0 2.212-.41 3.511-.91 4.214l3.25 2.324zm1.66-6.538c0-2.534-.45-4.792-1.66-6.474l-3.25 2.324c.5.708.91 1.99.91 4.15h4zm-1.66-6.474c-1.21-1.694-2.93-2.63-5.01-2.63v4c.73 0 1.26.259 1.76.954l3.25-2.324zm-5.01-2.63c-2.06 0-3.76.948-5 2.592l3.2 2.4c.56-.746 1.12-.992 1.8-.992v-4zm-5 2.602c-1.23 1.658-1.68 3.944-1.68 6.502h4c0-2.22.41-3.476.89-4.122l-3.21-2.38zm-1.68 6.502c0 2.567.45 4.851 1.66 6.538l3.25-2.324c-.5-.703-.91-2.002-.91-4.214h-4zm1.7 6.604c1.25 1.6 2.95 2.5 4.98 2.5v-4c-.71 0-1.27-.252-1.82-.956l-3.16 2.456z" fill="url(#paint1_linear_919_2756)"/></g><g filter="url(#filter2_d_919_2756)"><path d="M365.232 162.104l-.729 1.862.032.013.697-1.875zm-7.68-4.864l-1.386 1.442 1.386-1.442zm-5.12-7.36l-1.841.781a.244.244 0 00.01.024l1.831-.805zm0-18.56l-1.831-.805-.01.024 1.841.781zm5.12-7.36l-1.372-1.456-.014.014 1.386 1.442zm7.744-4.8l.705 1.872a.244.244 0 00.024-.01l-.729-1.862zm20.16.32l-.803 1.832.03.013.773-1.845zm7.936 5.888l1.356 1.47a2.001 2.001 0 00.191-2.738l-1.547 1.268zm-6.656 6.144l-1.503 1.32a2 2 0 002.859.15l-1.356-1.47zm-5.12-3.904l-.862 1.805.034.016.828-1.821zm-16.448 2.624l1.414 1.414-1.414-1.414zm-3.008 4.544l-1.848-.766-.015.039 1.863.727zm0 11.648l-1.863.727.015.039 1.848-.766zm3.008 4.544l-1.414 1.414 1.414-1.414zm16.448 2.688l.827 1.821.034-.016-.861-1.805zm5.12-4.032l1.356-1.47a2.004 2.004 0 00-1.473-.527 2.005 2.005 0 00-1.402.695l1.519 1.302zm6.656 6.144l1.547 1.268a2.001 2.001 0 00-.191-2.738l-1.356 1.47zm-7.936 5.952l-.794-1.836-.009.004.803 1.832zm-10.56.048c-3.239 0-6.222-.519-8.968-1.539l-1.393 3.75c3.228 1.199 6.687 1.789 10.361 1.789v-4zm-8.935-1.526c-2.712-1.061-5.046-2.544-7.024-4.444l-2.771 2.884c2.374 2.281 5.16 4.041 8.337 5.284l1.458-3.724zm-7.024-4.444a20.838 20.838 0 01-4.674-6.723l-3.662 1.61a24.836 24.836 0 005.565 7.997l2.771-2.884zm-4.664-6.699c-1.08-2.545-1.633-5.369-1.633-8.499h-4c0 3.612.641 6.974 1.951 10.061l3.682-1.562zm-1.633-8.499c0-3.13.553-5.954 1.633-8.499l-3.682-1.562c-1.31 3.087-1.951 6.449-1.951 10.061h4zm1.623-8.475a20.838 20.838 0 014.674-6.723l-2.771-2.884a24.836 24.836 0 00-5.565 7.997l3.662 1.61zm4.66-6.709c2.02-1.904 4.373-3.365 7.078-4.384l-1.41-3.744c-3.184 1.2-5.994 2.939-8.411 5.216l2.743 2.912zm7.102-4.394c2.688-1.051 5.659-1.59 8.935-1.59v-4c-3.722 0-7.193.613-10.393 1.866l1.458 3.724zm8.935-1.59c3.645 0 6.865.64 9.693 1.88l1.606-3.664c-3.402-1.491-7.179-2.216-11.299-2.216v4zm9.723 1.893c2.861 1.198 5.239 2.965 7.162 5.311l3.094-2.536c-2.345-2.86-5.257-5.018-8.71-6.465l-1.546 3.69zm7.352 2.573l-6.656 6.144 2.713 2.94 6.656-6.144-2.713-2.94zm-3.796 6.294c-1.699-1.934-3.629-3.42-5.796-4.405l-1.655 3.642c1.588.722 3.072 1.839 4.445 3.403l3.006-2.64zm-5.762-4.389c-2.164-1.033-4.509-1.539-7.005-1.539v4c1.941 0 3.692.39 5.282 1.149l1.723-3.61zm-7.005-1.539c-2.312 0-4.481.378-6.487 1.161l1.454 3.726c1.493-.582 3.163-.887 5.033-.887v-4zm-6.487 1.161c-1.997.779-3.749 1.91-5.231 3.393l2.828 2.828c1.077-1.077 2.355-1.909 3.857-2.495l-1.454-3.726zm-5.231 3.393c-1.475 1.474-2.621 3.212-3.442 5.192l3.695 1.532c.63-1.518 1.489-2.81 2.575-3.896l-2.828-2.828zm-3.457 5.231c-.785 2.01-1.161 4.202-1.161 6.551h4c0-1.918.306-3.609.887-5.097l-3.726-1.454zm-1.161 6.551c0 2.349.376 4.541 1.161 6.551l3.726-1.454c-.581-1.488-.887-3.179-.887-5.097h-4zm1.176 6.59c.821 1.98 1.967 3.718 3.442 5.192l2.828-2.828c-1.086-1.086-1.945-2.378-2.575-3.896l-3.695 1.532zm3.442 5.192c1.482 1.483 3.234 2.614 5.231 3.393l1.454-3.726c-1.502-.586-2.78-1.418-3.857-2.495l-2.828 2.828zm5.231 3.393c2.006.783 4.175 1.161 6.487 1.161v-4c-1.87 0-3.54-.305-5.033-.887l-1.454 3.726zm6.487 1.161c2.482 0 4.815-.479 6.971-1.459l-1.655-3.642c-1.598.727-3.361 1.101-5.316 1.101v4zm7.005-1.475c2.161-1.031 4.084-2.56 5.777-4.535l-3.037-2.604c-1.379 1.609-2.869 2.768-4.463 3.529l1.723 3.61zm2.902-4.367l6.656 6.144 2.713-2.94-6.656-6.144-2.713 2.94zm6.466 3.406c-1.927 2.351-4.312 4.143-7.183 5.384l1.588 3.672c3.443-1.489 6.348-3.665 8.689-6.52l-3.094-2.536zm-7.192 5.388c-2.826 1.239-6.066 1.88-9.757 1.88v4c4.159 0 7.959-.724 11.363-2.216l-1.606-3.664zM440.341 163l-1.679 1.086a2 2 0 001.679.914v-2zm-13.952-21.568l-1.033-1.713a1.998 1.998 0 00-.646 2.799l1.679-1.086zm8.384-5.056l1.676-1.092a2 2 0 00-2.709-.621l1.033 1.713zM452.117 163v2a2.001 2.001 0 001.676-3.092L452.117 163zm-40.896 0h-2a2 2 0 002 2v-2zm0-44.8v-2a2 2 0 00-2 2h2zm10.304 0h2a2 2 0 00-2-2v2zm0 44.8v2a2 2 0 002-2h-2zm-3.008-18.048h-2a2 2 0 002 2v-2zm0-8.64v-2a2 2 0 00-2 2h2zm15.616 0h2a2 2 0 00-2-2v2zm0 8.64v2a2 2 0 002-2h-2zm1.6-3.2l-.24 1.986a2.002 2.002 0 001.897-.865l-1.657-1.121zm-9.536-1.152l-1.678-1.088a2 2 0 001.438 3.074l.24-1.986zm14.528-22.4v-2a2 2 0 00-1.678.912l1.678 1.088zm10.944 0l1.657 1.121a2.002 2.002 0 00-1.657-3.121v2zm-9.648 43.714l-13.952-21.568-3.359 2.172 13.952 21.568 3.359-2.172zm-14.599-18.769l8.384-5.056-2.066-3.426-8.384 5.056 2.066 3.426zm5.675-5.677l17.344 26.624 3.352-2.184-17.344-26.624-3.352 2.184zM452.117 161h-11.776v4h11.776v-4zm-38.896 2v-44.8h-4V163h4zm-2-42.8h10.304v-4h-10.304v4zm8.304-2V163h4v-44.8h-4zm2 42.8h-10.304v4h10.304v-4zm-1.008-16.048v-8.64h-4v8.64h4zm-2-6.64h15.616v-4h-15.616v4zm13.616-2v8.64h4v-8.64h-4zm2 6.64h-15.616v4h15.616v-4zm1.84-3.186l-9.536-1.152-.48 3.972 9.536 1.152.48-3.972zm-8.098 1.922l14.528-22.4-3.356-2.176-14.528 22.4 3.356 2.176zm12.85-21.488h10.944v-4h-10.944v4zm9.288-3.121l-15.936 23.552 3.313 2.242 15.936-23.552-3.313-2.242zM468.174 163h-2a2 2 0 002 2v-2zm0-44.8v-2a2 2 0 00-2 2h2zm10.304 0h2a2 2 0 00-2-2v2zm0 29.184h-2a2 2 0 003.614 1.182l-1.614-1.182zm21.376-29.184v-2a2 2 0 00-1.613.818l1.613 1.182zm9.728 0h2a2 2 0 00-2-2v2zm0 44.8v2a2 2 0 002-2h-2zm-10.24 0h-2a2 2 0 002 2v-2zm0-29.12h2a2 2 0 00-3.612-1.183l1.612 1.183zM477.966 163v2c.637 0 1.236-.303 1.612-.817L477.966 163zm-7.792 0v-44.8h-4V163h4zm-2-42.8h10.304v-4h-10.304v4zm8.304-2v29.184h4V118.2h-4zm3.614 30.366l21.376-29.184-3.227-2.364-21.376 29.184 3.227 2.364zm19.762-28.366h9.728v-4h-9.728v4zm7.728-2V163h4v-44.8h-4zm2 42.8h-10.24v4h10.24v-4zm-8.24 2v-29.12h-4V163h4zm-3.612-30.303l-21.376 29.12 3.224 2.366 21.376-29.12-3.224-2.366zM477.966 161h-9.792v4h9.792v-4zm83.354-2.608h-2a2 2 0 002 2v-2zm0-31.744h2a2 2 0 00-2-2v2zm-15.36 0v-2a2 2 0 00-1.999 1.941l1.999.059zm-.192 6.528l1.998.092.001-.033-1.999-.059zm-.576 7.872l-1.989-.206a4.416 4.416 0 01-.003.034l1.992.172zm-1.024 6.784l1.948.456.002-.009-1.95-.447zm-1.856 5.12l-1.756-.958-.022.042 1.778.916zm-2.752 3.008l-.252 1.984c.414.053.833-.025 1.2-.223l-.948-1.761zm-11.072-1.408l.056-1.999a2 2 0 00-.308 3.983l.252-1.984zm3.776-1.6l-1.469-1.357-.029.032 1.498 1.325zm2.432-4.672l1.917.571.003-.011-1.92-.56zm1.28-7.168l-1.988-.217-.003.03 1.991.187zm.64-8.896l1.999.08v-.007l-1.999-.073zm.512-14.016v-2a2 2 0 00-1.998 1.927l1.998.073zm34.432 0h2a2 2 0 00-2-2v2zm0 40.192v2a2 2 0 002-2h-2zm-44.544 13.888l-2-.007a2.003 2.003 0 002 2.007v-2zm.064-17.728v-2a2 2 0 00-2 1.993l2 .007zm50.752 0h2a2 2 0 00-2-2v2zm0 17.728v2a2 2 0 002-2h-2zm-9.6 0h-2a2 2 0 002 2v-2zm0-9.28h2a2 2 0 00-2-2v2zm-31.616 0v-2a2 2 0 00-2 2h2zm0 9.28v2a2 2 0 002-2h-2zm26.704-13.888v-31.744h-4v31.744h4zm-2-33.744h-15.36v4h15.36v-4zm-17.359 1.941l-.192 6.528 3.998.118.192-6.528-3.998-.118zm-.191 6.495a136.224 136.224 0 01-.567 7.758l3.979.412c.26-2.517.455-5.179.584-7.986l-3.996-.184zm-.57 7.792c-.207 2.398-.536 4.566-.981 6.509l3.899.894c.493-2.153.847-4.508 1.067-7.059l-3.985-.344zm-.979 6.5c-.439 1.877-1.003 3.406-1.665 4.618l3.512 1.916c.875-1.604 1.548-3.489 2.048-5.622l-3.895-.912zm-1.687 4.66c-.588 1.142-1.25 1.801-1.922 2.163l1.896 3.522c1.547-.833 2.72-2.179 3.582-3.853l-3.556-1.832zm-.721 1.94l-11.072-1.408-.505 3.968 11.072 1.408.505-3.968zm-11.38 2.575c2.102.059 3.939-.702 5.329-2.274l-2.996-2.65c-.572.647-1.253.953-2.222.926l-.111 3.998zm5.301-2.242c1.295-1.403 2.226-3.266 2.879-5.458l-3.834-1.142c-.541 1.819-1.231 3.071-1.984 3.886l2.939 2.714zm2.882-5.469c.642-2.199 1.087-4.718 1.352-7.541l-3.983-.374c-.247 2.638-.655 4.898-1.209 6.795l3.84 1.12zm1.348-7.511c.305-2.783.521-5.794.651-9.033l-3.997-.16c-.127 3.161-.337 6.08-.63 8.759l3.976.434zm.651-9.04l.512-14.016-3.997-.146-.512 14.016 3.997.146zm-1.487-12.089h34.432v-4h-34.432v4zm32.432-2v40.192h4V118.2h-4zm2 38.192h-10.24v4h10.24v-4zm-42.544 15.895l.064-17.728-4-.014-.064 17.728 4 .014zm-1.936-15.735h50.752v-4H527.08v4zm48.752-2v17.728h4v-17.728h-4zm2 15.728h-9.6v4h9.6v-4zm-7.6 2V163h-4v9.28h4zm-2-11.28h-31.616v4h31.616v-4zm-33.616 2v9.28h4V163h-4zm2 7.28h-9.6v4h9.6v-4zm88.388-7.28l-1.68 1.086a2 2 0 001.68.914v-2zm-13.952-21.568l-1.033-1.713a2 2 0 00-.647 2.799l1.68-1.086zm8.384-5.056l1.676-1.092a2 2 0 00-2.709-.621l1.033 1.713zM636.78 163v2a2 2 0 001.676-3.092L636.78 163zm-40.896 0h-2a2 2 0 002 2v-2zm0-44.8v-2a2 2 0 00-2 2h2zm10.304 0h2a2 2 0 00-2-2v2zm0 44.8v2a2 2 0 002-2h-2zm-3.008-18.048h-2a2 2 0 002 2v-2zm0-8.64v-2a2 2 0 00-2 2h2zm15.616 0h2a2 2 0 00-2-2v2zm0 8.64v2a2 2 0 002-2h-2zm1.6-3.2l-.24 1.986a2.001 2.001 0 001.896-.865l-1.656-1.121zm-9.536-1.152l-1.678-1.088a2 2 0 001.438 3.074l.24-1.986zm14.528-22.4v-2a2 2 0 00-1.678.912l1.678 1.088zm10.944 0l1.656 1.121a2 2 0 00-1.656-3.121v2zm-9.649 43.714l-13.952-21.568-3.359 2.172 13.952 21.568 3.359-2.172zm-14.598-18.769l8.384-5.056-2.066-3.426-8.384 5.056 2.066 3.426zm5.675-5.677l17.344 26.624 3.352-2.184-17.344-26.624-3.352 2.184zM636.78 161h-11.776v4h11.776v-4zm-38.896 2v-44.8h-4V163h4zm-2-42.8h10.304v-4h-10.304v4zm8.304-2V163h4v-44.8h-4zm2 42.8h-10.304v4h10.304v-4zm-1.008-16.048v-8.64h-4v8.64h4zm-2-6.64h15.616v-4H603.18v4zm13.616-2v8.64h4v-8.64h-4zm2 6.64H603.18v4h15.616v-4zm1.84-3.186l-9.536-1.152-.48 3.972 9.536 1.152.48-3.972zm-8.098 1.922l14.528-22.4-3.356-2.176-14.528 22.4 3.356 2.176zm12.85-21.488h10.944v-4h-10.944v4zm9.287-3.121l-15.936 23.552 3.313 2.242 15.936-23.552-3.313-2.242zM652.837 163h-2a2 2 0 002 2v-2zm0-44.8v-2a2 2 0 00-2 2h2zm10.304 0h2a2 2 0 00-2-2v2zm0 29.184h-2a2 2 0 003.613 1.182l-1.613-1.182zm21.376-29.184v-2c-.638 0-1.237.304-1.614.818l1.614 1.182zm9.728 0h2a2 2 0 00-2-2v2zm0 44.8v2a2 2 0 002-2h-2zm-10.24 0h-2a2 2 0 002 2v-2zm0-29.12h2a2.001 2.001 0 00-3.613-1.183l1.613 1.183zM662.629 163v2c.637 0 1.235-.303 1.612-.817L662.629 163zm-7.792 0v-44.8h-4V163h4zm-2-42.8h10.304v-4h-10.304v4zm8.304-2v29.184h4V118.2h-4zm3.613 30.366l21.376-29.184-3.227-2.364-21.376 29.184 3.227 2.364zm19.763-28.366h9.728v-4h-9.728v4zm7.728-2V163h4v-44.8h-4zm2 42.8h-10.24v4h10.24v-4zm-8.24 2v-29.12h-4V163h4zm-3.613-30.303l-21.376 29.12 3.225 2.366 21.376-29.12-3.225-2.366zM662.629 161h-9.792v4h9.792v-4zm112.991-2.608h-2a2 2 0 002 2v-2zm0-31.744h2a2 2 0 00-2-2v2zm-15.36 0v-2a2 2 0 00-1.999 1.941l1.999.059zm-.192 6.528l1.998.092.001-.033-1.999-.059zm-.576 7.872l-1.989-.206-.003.034 1.992.172zm-1.024 6.784l1.948.456.002-.009-1.95-.447zm-1.856 5.12l-1.756-.958-.022.042 1.778.916zm-2.752 3.008l-.252 1.984c.414.053.833-.025 1.2-.223l-.948-1.761zm-11.072-1.408l.056-1.999a2 2 0 00-.308 3.983l.252-1.984zm3.776-1.6l-1.469-1.357-.029.032 1.498 1.325zm2.432-4.672l1.917.571.003-.011-1.92-.56zm1.28-7.168l-1.988-.217-.003.03 1.991.187zm.64-8.896l1.999.08v-.007l-1.999-.073zm.512-14.016v-2a2 2 0 00-1.998 1.927l1.998.073zm34.432 0h2a2 2 0 00-2-2v2zm0 40.192v2a2 2 0 002-2h-2zm-44.544 13.888l-2-.007a2.003 2.003 0 002 2.007v-2zm.064-17.728v-2a2 2 0 00-2 1.993l2 .007zm50.752 0h2a2 2 0 00-2-2v2zm0 17.728v2a2 2 0 002-2h-2zm-9.6 0h-2a2 2 0 002 2v-2zm0-9.28h2a2 2 0 00-2-2v2zm-31.616 0v-2a2 2 0 00-2 2h2zm0 9.28v2a2 2 0 002-2h-2zm26.704-13.888v-31.744h-4v31.744h4zm-2-33.744h-15.36v4h15.36v-4zm-17.359 1.941l-.192 6.528 3.998.118.192-6.528-3.998-.118zm-.191 6.495a136.224 136.224 0 01-.567 7.758l3.979.412c.26-2.517.455-5.179.584-7.986l-3.996-.184zm-.57 7.792c-.207 2.398-.536 4.566-.981 6.509l3.899.894c.493-2.153.847-4.508 1.067-7.059l-3.985-.344zm-.979 6.5c-.439 1.877-1.003 3.406-1.665 4.618l3.512 1.916c.875-1.604 1.548-3.489 2.048-5.622l-3.895-.912zm-1.687 4.66c-.588 1.142-1.25 1.801-1.922 2.163l1.896 3.522c1.547-.833 2.72-2.179 3.582-3.853l-3.556-1.832zm-.721 1.94l-11.072-1.408-.505 3.968 11.072 1.408.505-3.968zm-11.38 2.575c2.102.059 3.939-.702 5.329-2.274l-2.996-2.65c-.572.647-1.253.953-2.222.926l-.111 3.998zm5.301-2.242c1.295-1.403 2.226-3.266 2.879-5.458l-3.834-1.142c-.541 1.819-1.231 3.071-1.984 3.886l2.939 2.714zm2.882-5.469c.641-2.199 1.087-4.718 1.351-7.541l-3.982-.374c-.247 2.638-.655 4.898-1.209 6.795l3.84 1.12zm1.348-7.511c.305-2.783.521-5.794.651-9.033l-3.997-.16c-.127 3.161-.337 6.08-.63 8.759l3.976.434zm.651-9.04l.512-14.016-3.997-.146-.512 14.016 3.997.146zm-1.487-12.089h34.432v-4h-34.432v4zm32.432-2v40.192h4V118.2h-4zm2 38.192h-10.24v4h10.24v-4zm-42.544 15.895l.064-17.728-4-.014-.064 17.728 4 .014zm-1.936-15.735h50.752v-4H741.38v4zm48.752-2v17.728h4v-17.728h-4zm2 15.728h-9.6v4h9.6v-4zm-7.6 2V163h-4v9.28h4zm-2-11.28h-31.616v4h31.616v-4zm-33.616 2v9.28h4V163h-4zm2 7.28h-9.6v4h9.6v-4zm70.98-8.24l-.72 1.866.009.003.711-1.869zm-7.808-4.864l-1.386 1.442.014.014 1.372-1.456zm-5.12-7.36l-1.841.781.01.024 1.831-.805zm0-18.432l-1.831-.805-.01.024 1.841.781zm5.184-7.36l-1.372-1.456 1.372 1.456zm7.808-4.864l-.72-1.866.72 1.866zm19.456 0l-.729 1.863.009.003.72-1.866zm7.744 4.864l-1.386 1.442.014.014 1.372-1.456zm5.184 7.36l-1.831.805.004.01 1.827-.815zm0 18.496l1.831.805.004-.011-1.835-.794zm-5.184 7.36l1.37 1.456h.001l-1.371-1.456zm-7.744 4.8l-.72-1.866-.009.004.729 1.862zm-4.224-8.128l-.743-1.857-.016.007.759 1.85zm4.48-2.944l-1.414-1.414 1.414 1.414zm2.944-4.544l-1.848-.766-.015.039 1.863.727zm0-11.648l-1.863.727.015.039 1.848-.766zm-2.944-4.544l-1.438 1.39.024.024 1.414-1.414zm-4.416-2.944l-.743 1.857.743-1.857zm-11.136 0l-.743-1.857-.016.007.759 1.85zm-4.416 2.944l1.414 1.414-1.414-1.414zm-3.008 4.544l-1.848-.766-.015.039 1.863.727zm0 11.648l-1.869.712.021.054 1.848-.766zm2.944 4.544l-1.438 1.39.024.024 1.414-1.414zm4.48 2.944l.743-1.857-.743 1.857zm5.632 7.856c-3.321 0-6.363-.539-9.145-1.597l-1.422 3.738c3.276 1.246 6.805 1.859 10.567 1.859v-4zm-9.137-1.594c-2.757-1.063-5.135-2.549-7.156-4.454l-2.743 2.912c2.417 2.277 5.244 4.033 8.46 5.274l1.439-3.732zm-7.142-4.44a20.838 20.838 0 01-4.674-6.723l-3.662 1.61a24.836 24.836 0 005.565 7.997l2.771-2.884zm-4.664-6.699c-1.081-2.548-1.633-5.352-1.633-8.435h-4c0 3.573.642 6.913 1.951 9.997l3.682-1.562zm-1.633-8.435c0-3.083.552-5.887 1.633-8.435l-3.682-1.562c-1.309 3.084-1.951 6.424-1.951 9.997h4zm1.623-8.411a20.37 20.37 0 014.724-6.709l-2.743-2.912a24.373 24.373 0 00-5.643 8.011l3.662 1.61zm4.724-6.709c2.021-1.905 4.399-3.391 7.157-4.454l-1.44-3.732c-3.216 1.241-6.043 2.997-8.46 5.274l2.743 2.912zm7.156-4.454c2.737-1.056 5.733-1.594 9.009-1.594v-4c-3.722 0-7.211.614-10.448 1.862l1.439 3.732zm9.009-1.594c3.322 0 6.313.54 8.999 1.59l1.458-3.724c-3.203-1.254-6.696-1.866-10.457-1.866v4zm9.008 1.594c2.754 1.062 5.105 2.545 7.078 4.44l2.771-2.884c-2.379-2.286-5.19-4.046-8.41-5.288l-1.439 3.732zm7.092 4.454a20.373 20.373 0 014.725 6.709l3.662-1.61a24.376 24.376 0 00-5.644-8.011l-2.743 2.912zm4.729 6.719c1.111 2.49 1.683 5.28 1.683 8.401h4c0-3.62-.666-6.974-2.03-10.031l-3.653 1.63zm1.683 8.401c0 3.074-.57 5.895-1.692 8.486l3.671 1.588c1.353-3.126 2.021-6.492 2.021-10.074h-4zm-1.687 8.475a20.373 20.373 0 01-4.725 6.709l2.743 2.912a24.376 24.376 0 005.644-8.011l-3.662-1.61zm-4.724 6.709c-1.974 1.858-4.33 3.324-7.093 4.39l1.439 3.732c3.211-1.238 6.018-2.972 8.395-5.21l-2.741-2.912zm-7.102 4.394c-2.688 1.051-5.659 1.59-8.935 1.59v4c3.721 0 7.193-.613 10.393-1.866l-1.458-3.724zm-8.999-3.242c2.236 0 4.332-.381 6.263-1.174l-1.518-3.7c-1.397.573-2.97.874-4.745.874v4zm6.247-1.167a15.2 15.2 0 005.151-3.387l-2.828-2.828a11.217 11.217 0 01-3.809 2.501l1.486 3.714zm5.151-3.387c1.483-1.483 2.614-3.234 3.393-5.231l-3.726-1.454c-.586 1.501-1.418 2.78-2.495 3.857l2.828 2.828zm3.377-5.192c.838-2.021 1.241-4.227 1.241-6.59h-4c0 1.904-.323 3.58-.936 5.058l3.695 1.532zm1.241-6.59c0-2.363-.403-4.569-1.241-6.59l-3.695 1.532c.613 1.478.936 3.154.936 5.058h4zm-1.225-6.551c-.779-1.997-1.91-3.748-3.393-5.231l-2.828 2.828c1.077 1.077 1.909 2.356 2.495 3.857l3.726-1.454zm-3.369-5.207a14.533 14.533 0 00-5.111-3.411l-1.486 3.714a10.546 10.546 0 013.721 2.477l2.876-2.78zm-5.111-3.411c-1.964-.785-4.075-1.167-6.311-1.167v4c1.774 0 3.375.301 4.825.881l1.486-3.714zm-6.311-1.167c-2.237 0-4.347.382-6.311 1.167l1.486 3.714c1.449-.58 3.051-.881 4.825-.881v-4zm-6.327 1.174a15.356 15.356 0 00-5.071 3.38l2.828 2.828a11.37 11.37 0 013.761-2.508l-1.518-3.7zm-5.071 3.38c-1.475 1.474-2.621 3.212-3.442 5.192l3.695 1.532c.63-1.518 1.489-2.81 2.575-3.896l-2.828-2.828zm-3.457 5.231c-.785 2.01-1.161 4.202-1.161 6.551h4c0-1.918.306-3.609.887-5.097l-3.726-1.454zm-1.161 6.551c0 2.312.378 4.497 1.155 6.536l3.738-1.424c-.589-1.545-.893-3.243-.893-5.112h-4zm1.176 6.59c.816 1.966 1.931 3.696 3.354 5.168l2.876-2.78c-1.052-1.088-1.899-2.388-2.535-3.92l-3.695 1.532zm3.378 5.192a15.19 15.19 0 005.151 3.387l1.486-3.714a11.197 11.197 0 01-3.809-2.501l-2.828 2.828zm5.151 3.387c1.964.785 4.074 1.167 6.311 1.167v-4c-1.774 0-3.376-.301-4.825-.881l-1.486 3.714zm85.607 5.439l-.993 1.737.011.005.982-1.742zm-6.912-7.488l1.793-.885-1.793.885zm.448-25.28l-1.754-.961-.009.017 1.763.944zm8.064-8.192l-.955-1.757-.009.005.964 1.752zm18.752-2.048l.458-1.947-.458 1.947zm5.632 2.304l1.786.9a2 2 0 00-.698-2.578l-1.088 1.678zm-3.84 7.616l-1.136 1.646a1.999 1.999 0 002.922-.746l-1.786-.9zm-3.968-1.728l-.471 1.944.056.012.415-1.956zm-13.632 3.008l-1.44-1.388 1.44 1.388zm-3.392 12.992h-2c0 .03 0 .061.002.091l1.998-.091zm.384 2.816l-1.365 1.462a2 2 0 003.315-1.905l-1.95.443zm-2.88-2.688l-1.798-.876a2 2 0 00.433 2.338l1.365-1.462zm3.136-4.16l1.31 1.511.028-.024-1.338-1.487zm4.544-2.56l.604 1.906.028-.009-.632-1.897zm13.696.832l.894-1.789-.894 1.789zm5.504 4.864l-1.675 1.094.016.023 1.659-1.117zm-.192 15.296l-1.655-1.124-.004.007 1.659 1.117zm-6.08 5.184l.857 1.807.013-.006-.87-1.801zm-5.312-6.72l.838 1.816.029-.014-.867-1.802zm2.688-2.368l1.696 1.06-1.696-1.06zm-1.152-8.384l-1.343 1.482.049.043 1.294-1.525zm-9.536-.96l.867 1.802.053-.026-.92-1.776zm-2.752 2.368l-1.664-1.109a.153.153 0 00-.011.016l1.675 1.093zm0 6.912l-1.696 1.06.021.033 1.675-1.093zm2.688 2.368l-.921 1.776.053.026.868-1.802zm4.8 6.576c-3.814 0-7.026-.792-9.707-2.302l-1.963 3.484c3.378 1.904 7.291 2.818 11.67 2.818v-4zm-9.696-2.296c-2.618-1.496-4.654-3.685-6.111-6.637l-3.587 1.77c1.786 3.618 4.358 6.422 7.713 8.339l1.985-3.472zm-6.111-6.637c-1.449-2.937-2.225-6.668-2.225-11.275h-4c0 5.035.845 9.412 2.638 13.045l3.587-1.77zm-2.225-11.275c0-4.92.915-8.95 2.643-12.176l-3.526-1.888c-2.112 3.942-3.117 8.659-3.117 14.064h4zm2.634-12.159c1.789-3.268 4.21-5.716 7.274-7.401l-1.928-3.504c-3.764 2.069-6.718 5.083-8.854 8.983l3.508 1.922zm7.264-7.396c3.125-1.697 6.756-2.573 10.95-2.573v-4c-4.767 0-9.071 1.001-12.859 3.059l1.909 3.514zm10.95-2.573c2.245 0 4.374.24 6.39.715l.916-3.894c-2.336-.549-4.773-.821-7.306-.821v4zm6.39.715c1.993.469 3.648 1.157 5.001 2.035l2.177-3.356c-1.804-1.17-3.903-2.018-6.262-2.573l-.916 3.894zm4.304-.543l-3.84 7.616 3.572 1.8 3.84-7.616-3.572-1.8zm-.919 6.87a12.913 12.913 0 00-4.688-2.038l-.83 3.912a8.95 8.95 0 013.247 1.418l2.271-3.292zm-4.632-2.026a20.674 20.674 0 00-4.887-.568v4c1.386 0 2.7.154 3.945.456l.942-3.888zm-4.887-.568c-4.314 0-7.947 1.32-10.656 4.132l2.88 2.776c1.813-1.882 4.324-2.908 7.776-2.908v-4zm-10.656 4.132c-2.747 2.85-3.952 6.91-3.952 11.82h4c0-4.306 1.056-7.201 2.832-9.044l-2.88-2.776zm-3.952 11.82v2.56h4v-2.56h-4zm.002 2.651c.048 1.06.192 2.117.431 3.168l3.901-.886a13.918 13.918 0 01-.336-2.464l-3.996.182zm3.746 1.263l-2.88-2.688-2.729 2.924 2.88 2.688 2.729-2.924zm-2.446-.35c.703-1.444 1.59-2.608 2.648-3.525l-2.62-3.022c-1.502 1.301-2.706 2.911-3.624 4.795l3.596 1.752zm2.676-3.549c1.054-.949 2.314-1.666 3.81-2.141l-1.209-3.812c-2.003.635-3.772 1.624-5.277 2.979l2.676 2.974zm3.838-2.15c1.564-.521 3.31-.793 5.256-.793v-4c-2.321 0-4.5.325-6.521.999l1.265 3.794zm5.256-.793c2.63 0 4.92.52 6.913 1.517l1.789-3.578c-2.615-1.307-5.53-1.939-8.702-1.939v4zm6.913 1.517c1.998.999 3.559 2.384 4.724 4.169l3.349-2.188c-1.565-2.397-3.673-4.254-6.284-5.559l-1.789 3.578zm4.74 4.192c1.16 1.723 1.771 3.777 1.771 6.243h4c0-3.166-.797-6.018-2.453-8.477l-3.318 2.234zm1.771 6.243c0 2.674-.672 4.918-1.959 6.812l3.309 2.248c1.785-2.629 2.65-5.675 2.65-9.06h-4zm-1.963 6.819c-1.283 1.906-3.03 3.407-5.292 4.5l1.741 3.602c2.858-1.382 5.165-3.337 6.869-5.868l-3.318-2.234zm-5.279 4.494c-2.212 1.05-4.771 1.599-7.718 1.599v4c3.452 0 6.611-.646 9.433-1.985l-1.715-3.614zm-8.294-2.145c1.686 0 3.261-.298 4.678-.952l-1.676-3.632c-.802.37-1.787.584-3.002.584v4zm4.707-.966c1.472-.709 2.664-1.746 3.517-3.11l-3.392-2.12c-.428.684-1.028 1.225-1.86 1.626l1.735 3.604zm3.517-3.11c.857-1.372 1.264-2.92 1.264-4.58h-4c0 .985-.234 1.784-.656 2.46l3.392 2.12zm1.264-4.58c0-2.563-.91-4.77-2.818-6.389l-2.588 3.05c.908.77 1.406 1.806 1.406 3.339h4zm-2.769-6.346c-1.819-1.648-4.176-2.374-6.847-2.374v4c1.937 0 3.249.512 4.161 1.338l2.686-2.964zm-6.847-2.374c-1.798 0-3.469.351-4.953 1.12l1.841 3.552c.82-.426 1.838-.672 3.112-.672v-4zm-4.9 1.094c-1.461.704-2.659 1.727-3.548 3.061l3.328 2.218c.476-.714 1.113-1.269 1.955-1.675l-1.735-3.604zm-3.559 3.077c-.879 1.347-1.285 2.89-1.285 4.549h4c0-.986.233-1.748.635-2.363l-3.35-2.186zm-1.285 4.549c0 1.631.413 3.155 1.264 4.516l3.392-2.12c-.429-.687-.656-1.467-.656-2.396h-4zm1.285 4.549c.848 1.3 2.018 2.312 3.442 3.051l1.841-3.552c-.879-.456-1.501-1.022-1.933-1.685l-3.35 2.186zm3.495 3.077c1.492.718 3.214 1.03 5.092 1.03v-4c-1.451 0-2.544-.243-3.357-.634l-1.735 3.604zm46.93 4.086l-1.069 1.69.018.012 1.051-1.702zm-6.848-7.936l-1.802.868 1.802-.868zm0-25.088l1.802.868-1.802-.868zm6.848-7.872l1.051 1.702.018-.012-1.069-1.69zm19.712 0l-1.081 1.683.03.019 1.051-1.702zm6.848 7.872l-1.802.868 1.802-.868zm0 25.088l-1.802-.868 1.802.868zm-6.848 7.936l1.062 1.695.007-.005-1.069-1.69zm-5.312-7.552l-1.192-1.606-.025.019 1.217 1.587zm3.072-4.672l-1.882-.677-.012.033 1.894.644zm0-16.512l-1.894.644.012.033 1.882-.677zm-3.072-4.672l-1.217 1.587.025.019 1.192-1.606zm-9.088 0l-1.192-1.606-.025.019 1.217 1.587zm-3.072 4.672l-1.882-.677-.012.033 1.894.644zm0 16.512l-1.894.644.012.033 1.882-.677zm3.072 4.672l-1.217 1.587.025.019 1.192-1.606zm4.544 8.24c-3.328 0-6.244-.808-8.805-2.39l-2.102 3.404c3.241 2.002 6.896 2.986 10.907 2.986v-4zm-8.787-2.378c-2.549-1.612-4.594-3.954-6.115-7.114l-3.604 1.736c1.807 3.752 4.327 6.701 7.581 8.758l2.138-3.38zm-6.115-7.114c-1.503-3.12-2.298-6.989-2.298-11.676h-4c0 5.126.868 9.62 2.694 13.412l3.604-1.736zM955.59 140.6c0-4.687.795-8.556 2.298-11.676l-3.604-1.736c-1.826 3.792-2.694 8.286-2.694 13.412h4zm2.298-11.676c1.519-3.157 3.56-5.471 6.097-7.038l-2.102-3.404c-3.266 2.017-5.791 4.951-7.599 8.706l3.604 1.736zm6.115-7.05c2.559-1.618 5.469-2.442 8.787-2.442v-4c-4.021 0-7.682 1.011-10.925 3.062l2.138 3.38zm8.787-2.442c3.366 0 6.269.826 8.775 2.435l2.161-3.366c-3.211-2.061-6.878-3.069-10.936-3.069v4zm8.805 2.454c2.537 1.567 4.577 3.881 6.097 7.038l3.604-1.736c-1.809-3.755-4.334-6.689-7.599-8.706l-2.102 3.404zm6.097 7.038c1.502 3.12 2.298 6.989 2.298 11.676h4c0-5.126-.869-9.62-2.694-13.412l-3.604 1.736zm2.298 11.676c0 4.687-.796 8.556-2.298 11.676l3.604 1.736c1.825-3.792 2.694-8.286 2.694-13.412h-4zm-2.298 11.676c-1.521 3.16-3.567 5.502-6.115 7.114l2.138 3.38c3.254-2.057 5.774-5.006 7.581-8.758l-3.604-1.736zm-6.109 7.109c-2.508 1.573-5.418 2.383-8.793 2.383v4c4.049 0 7.71-.982 10.918-2.993l-2.125-3.39zM972.79 157c2.15 0 4.101-.613 5.761-1.885l-2.434-3.174c-.901.69-1.978 1.059-3.327 1.059v4zm5.735-1.866c1.75-1.298 2.965-3.254 3.774-5.634l-3.787-1.288c-.641 1.887-1.474 3.045-2.37 3.71l2.383 3.212zm3.763-5.601c.874-2.429 1.27-5.433 1.27-8.933h-4c0 3.241-.372 5.741-1.034 7.579l3.764 1.354zm1.27-8.933c0-3.5-.396-6.504-1.27-8.933l-3.764 1.354c.662 1.838 1.034 4.338 1.034 7.579h4zm-1.259-8.9c-.809-2.38-2.024-4.336-3.774-5.634l-2.383 3.212c.896.665 1.729 1.823 2.37 3.71l3.787-1.288zm-3.748-5.615c-1.66-1.272-3.611-1.885-5.761-1.885v4c1.349 0 2.426.369 3.327 1.059l2.434-3.174zm-5.761-1.885c-2.119 0-4.055.619-5.736 1.866l2.383 3.212c.965-.716 2.059-1.078 3.353-1.078v-4zm-5.761 1.885c-1.684 1.291-2.89 3.228-3.737 5.582l3.764 1.354c.688-1.912 1.531-3.09 2.407-3.762l-2.434-3.174zm-3.749 5.615c-.821 2.417-1.194 5.408-1.194 8.9h4c0-3.249.352-5.762.981-7.612l-3.787-1.288zm-1.194 8.9c0 3.492.373 6.483 1.194 8.9l3.787-1.288c-.629-1.85-.981-4.363-.981-7.612h-4zm1.206 8.933c.847 2.354 2.053 4.291 3.737 5.582l2.434-3.174c-.876-.672-1.719-1.85-2.407-3.762l-3.764 1.354zm3.762 5.601c1.681 1.247 3.617 1.866 5.736 1.866v-4c-1.294 0-2.388-.362-3.353-1.078l-2.383 3.212zM1014.69 163l-1.65-1.128a2.01 2.01 0 00-.12 2.062 2.008 2.008 0 001.77 1.066v-2zm30.59-44.8v-2c-.66 0-1.28.326-1.65.872l1.65 1.128zm7.62 0l1.65 1.128a2.01 2.01 0 00.12-2.062 2.008 2.008 0 00-1.77-1.066v2zm-30.59 44.8v2c.66 0 1.28-.326 1.65-.872l-1.65-1.128zm-9.47-22.08l-1.05 1.703.03.02 1.02-1.723zm-3.97-4.288l-1.79.894c.01.017.02.033.02.049l1.77-.943zm0-13.12l-1.77-.943c0 .01-.01.021-.01.032l1.78.911zm3.97-4.288l1.04 1.703-1.04-1.703zm15.42 4.288l1.78-.911-1.78.911zm0 13.12l1.78.911c0-.006.01-.011.01-.017l-1.79-.894zm-3.9 4.288l1.01 1.723.03-.02-1.04-1.703zm-2.37-5.504l1.6 1.19c.01-.009.02-.018.02-.028l-1.62-1.162zm0-10.688l-1.63 1.162c.01.01.01.019.02.028l1.61-1.19zm-6.79 0l-1.6-1.2v.01l1.6 1.19zm0 10.624l-1.62 1.162c0 .013.01.026.02.038l1.6-1.2zm28.04 26.688l-1.05 1.703c.01.011.03.021.05.031l1-1.734zm-3.91-4.288l-1.79.894c.01.006.01.011.01.017l1.78-.911zm0-13.12l1.78.911-1.78-.911zm3.91-4.288l-1.03-1.715c-.01.004-.02.008-.02.012l1.05 1.703zm11.58 0l-1.05 1.703 1.05-1.703zm3.9 4.288l1.78-.911-1.78.911zm0 13.12l1.78.911c.01-.006.01-.011.01-.017l-1.79-.894zm-3.9 4.288l1.02 1.723.03-.02-1.05-1.703zm-2.43-5.504l1.6 1.19c.01-.009.02-.018.02-.028l-1.62-1.162zm0-10.688l-1.63 1.162 1.63-1.162zm-6.79 0l-1.6-1.2v.01l1.6 1.19zm0 10.688l-1.62 1.162c.01.023.03.044.04.066l1.58-1.228zm-29.26 7.592l30.59-44.8-3.3-2.256-30.59 44.8 3.3 2.256zm28.94-43.928h7.62v-4h-7.62v4zm5.97-3.128l-30.59 44.8 3.3 2.256 30.59-44.8-3.3-2.256zM1022.31 161h-7.62v4h7.62v-4zm-3.71-20.608c-1.87 0-3.43-.417-4.75-1.195l-2.03 3.446c2.01 1.185 4.29 1.749 6.78 1.749v-4zm-4.72-1.175c-1.34-.827-2.42-1.985-3.25-3.528l-3.53 1.886c1.14 2.126 2.7 3.827 4.69 5.048l2.09-3.406zm-3.22-3.479c-.78-1.55-1.2-3.43-1.2-5.698h-4c0 2.767.52 5.281 1.62 7.486l3.58-1.788zm-1.2-5.698c0-2.27.42-4.12 1.19-5.617l-3.56-1.822c-1.11 2.172-1.63 4.674-1.63 7.439h4zm1.17-5.585c.83-1.543 1.91-2.701 3.25-3.528l-2.09-3.406c-1.99 1.221-3.55 2.922-4.69 5.048l3.53 1.886zm3.25-3.528c1.32-.808 2.87-1.239 4.72-1.239v-4c-2.51 0-4.8.593-6.81 1.833l2.09 3.406zm4.72-1.239c1.84 0 3.39.431 4.71 1.239l2.09-3.406c-2.01-1.24-4.3-1.833-6.8-1.833v4zm4.71 1.239c1.33.822 2.39 1.969 3.17 3.496l3.56-1.822c-1.1-2.142-2.64-3.854-4.64-5.08l-2.09 3.406zm3.17 3.496c.76 1.497 1.19 3.347 1.19 5.617h4c0-2.765-.52-5.267-1.63-7.439l-3.56 1.822zm1.19 5.617c0 2.268-.42 4.148-1.2 5.698l3.58 1.788c1.1-2.205 1.62-4.719 1.62-7.486h-4zm-1.19 5.681c-.78 1.527-1.84 2.674-3.17 3.496l2.09 3.406c2-1.226 3.54-2.938 4.64-5.08l-3.56-1.822zm-3.14 3.476c-1.32.778-2.88 1.195-4.74 1.195v4c2.48 0 4.76-.564 6.77-1.749l-2.03-3.446zm-4.74-.053c2.05 0 3.77-.887 4.99-2.538l-3.21-2.38c-.48.653-1.02.918-1.78.918v4zm5.01-2.566c1.21-1.687 1.66-3.971 1.66-6.538h-4c0 2.212-.41 3.511-.91 4.214l3.25 2.324zm1.66-6.538c0-2.558-.45-4.844-1.68-6.502l-3.21 2.38c.48.646.89 1.902.89 4.122h4zm-1.66-6.474c-1.21-1.694-2.93-2.63-5.01-2.63v4c.73 0 1.26.259 1.76.954l3.25-2.324zm-5.01-2.63c-2.06 0-3.76.948-5 2.592l3.2 2.4c.56-.746 1.12-.992 1.8-.992v-4zm-5 2.602c-1.23 1.658-1.68 3.944-1.68 6.502h4c0-2.22.41-3.476.89-4.122l-3.21-2.38zm-1.68 6.502c0 2.534.45 4.792 1.66 6.474l3.25-2.324c-.5-.708-.91-1.99-.91-4.15h-4zm1.68 6.512c1.24 1.644 2.94 2.592 5 2.592v-4c-.68 0-1.24-.246-1.8-.992l-3.2 2.4zm35.4 24.96c-1.82 0-3.39-.413-4.77-1.206l-1.99 3.468c2.03 1.17 4.3 1.738 6.76 1.738v-4zm-4.72-1.175c-1.33-.822-2.39-1.969-3.17-3.496l-3.56 1.822c1.1 2.142 2.64 3.854 4.64 5.08l2.09-3.406zm-3.16-3.479c-.77-1.55-1.2-3.43-1.2-5.698h-4c0 2.767.52 5.281 1.62 7.486l3.58-1.788zm-1.2-5.698c0-2.27.43-4.12 1.19-5.617l-3.56-1.822c-1.11 2.172-1.63 4.674-1.63 7.439h4zm1.19-5.617c.78-1.527 1.84-2.674 3.17-3.496l-2.09-3.406c-2 1.226-3.54 2.938-4.64 5.08l3.56 1.822zm3.15-3.484c1.38-.824 2.94-1.251 4.74-1.251v-4c-2.47 0-4.75.597-6.79 1.821l2.05 3.43zm4.74-1.251c1.9 0 3.46.435 4.77 1.239l2.1-3.406c-2.02-1.244-4.34-1.833-6.87-1.833v4zm4.77 1.239c1.34.822 2.39 1.969 3.17 3.496l3.56-1.822c-1.09-2.142-2.64-3.854-4.63-5.08l-2.1 3.406zm3.17 3.496c.77 1.497 1.19 3.347 1.19 5.617h4c0-2.765-.51-5.267-1.63-7.439l-3.56 1.822zm1.19 5.617c0 2.268-.42 4.148-1.2 5.698l3.58 1.788c1.1-2.205 1.62-4.719 1.62-7.486h-4zm-1.19 5.681c-.78 1.527-1.83 2.674-3.17 3.496l2.1 3.406c1.99-1.226 3.54-2.938 4.63-5.08l-3.56-1.822zm-3.14 3.476c-1.31.775-2.89 1.195-4.8 1.195v4c2.52 0 4.82-.561 6.84-1.749l-2.04-3.446zm-4.8-.053c2.05 0 3.77-.887 4.99-2.538l-3.21-2.38c-.48.653-1.02.918-1.78.918v4zm5.01-2.566c1.21-1.687 1.66-3.971 1.66-6.538h-4c0 2.212-.41 3.511-.91 4.214l3.25 2.324zm1.66-6.538c0-2.534-.45-4.792-1.66-6.474l-3.25 2.324c.5.708.91 1.99.91 4.15h4zm-1.66-6.474c-1.21-1.694-2.93-2.63-5.01-2.63v4c.73 0 1.26.259 1.76.954l3.25-2.324zm-5.01-2.63c-2.06 0-3.76.948-5 2.592l3.2 2.4c.56-.746 1.12-.992 1.8-.992v-4zm-5 2.602c-1.23 1.658-1.68 3.944-1.68 6.502h4c0-2.22.41-3.476.89-4.122l-3.21-2.38zm-1.68 6.502c0 2.567.45 4.851 1.66 6.538l3.25-2.324c-.5-.703-.91-2.002-.91-4.214h-4zm1.7 6.604c1.25 1.6 2.95 2.5 4.98 2.5v-4c-.71 0-1.27-.252-1.82-.956l-3.16 2.456z" fill="url(#paint2_linear_919_2756)"/></g><defs><linearGradient id="paint0_linear_919_2756" x1="327.945" y1="117.942" x2="705.675" y2="618.449" gradientUnits="userSpaceOnUse"><stop stop-color="#2F45F4"/><stop offset="1" stop-color="#F09" stop-opacity="0"/></linearGradient><linearGradient id="paint1_linear_919_2756" x1="705" y1="108" x2="705" y2="172" gradientUnits="userSpaceOnUse"><stop stop-color="#00F0FF"/><stop offset="1" stop-color="#C071FF"/></linearGradient><linearGradient id="paint2_linear_919_2756" x1="705" y1="108" x2="705" y2="172" gradientUnits="userSpaceOnUse"><stop stop-color="#00D1FF"/><stop offset="1" stop-color="#B354FE"/></linearGradient><filter id="filter0_f_919_2756" x="-80" y="0" width="1666" height="261" filterUnits="userSpaceOnUse" color-interpolation-filters="sRGB"><feFlood flood-opacity="0" result="BackgroundImageFix"/><feBlend in="SourceGraphic" in2="BackgroundImageFix" result="shape"/><feGaussianBlur stdDeviation="54" result="effect1_foregroundBlur_919_2756"/></filter><filter id="filter1_f_919_2756" x="334.64" y="101.432" width="741.492" height="86.848" filterUnits="userSpaceOnUse" color-interpolation-filters="sRGB"><feFlood flood-opacity="0" result="BackgroundImageFix"/><feBlend in="SourceGraphic" in2="BackgroundImageFix" result="shape"/><feGaussianBlur stdDeviation="8" result="effect1_foregroundBlur_919_2756"/></filter><filter id="filter2_d_919_2756" x="346.64" y="117.432" width="717.492" height="68.848" filterUnits="userSpaceOnUse" color-interpolation-filters="sRGB"><feFlood flood-opacity="0" result="BackgroundImageFix"/><feColorMatrix in="SourceAlpha" values="0 0 0 0 0 0 0 0 0 0 0 0 0 0 0 0 0 0 127 0" result="hardAlpha"/><feOffset dy="10"/><feGaussianBlur stdDeviation="2"/><feComposite in2="hardAlpha" operator="out"/><feColorMatrix values="0 0 0 0 0 0 0 0 0 0 0 0 0 0 0 0 0 0 0.7 0"/><feBlend in2="BackgroundImageFix" result="effect1_dropShadow_919_2756"/><feBlend in="SourceGraphic" in2="effect1_dropShadow_919_2756" result="shape"/></filter></defs></svg>