<svg width="405" height="384" fill="none" xmlns="http://www.w3.org/2000/svg"><g filter="url(#filter0_f_1020_2104)"><ellipse cx="176.5" cy="165.5" rx="53.5" ry="50.5" fill="url(#paint0_linear_1020_2104)"/></g><g filter="url(#filter1_f_1020_2104)"><ellipse cx="176" cy="167" rx="68" ry="59" fill="url(#paint1_linear_1020_2104)"/></g><g filter="url(#filter2_f_1020_2104)"><path d="M175.628 124.205l-10.773 24.042-29.675 7.395c-2.22.417-2.631 2.481-1.152 3.635l18.985 16.233-12.008 34.528c-.74 1.57.657 3.136 3.123 1.481l33.706-23.335 27.699 11.1c3.535 1.563 3.617-.996 3.042-2.399l-8.132-29.955 27.625-29.27c1.644-1.819.74-3.716-1.479-3.3l-37.32 7.16-10.436-18.393c-.903-1.897-2.465-.491-3.205 1.078z" stroke="url(#paint2_linear_1020_2104)" stroke-width="3"/></g><g filter="url(#filter3_f_1020_2104)"><path d="M175.628 134.205l-10.773 24.042-29.675 7.395c-2.22.417-2.631 2.481-1.152 3.635l18.985 16.233-12.008 34.528c-.74 1.57.657 3.136 3.123 1.481l33.706-23.335 27.699 11.1c3.535 1.563 3.617-.996 3.042-2.399l-8.132-29.955 27.625-29.27c1.644-1.819.74-3.716-1.479-3.3l-37.32 7.16-10.436-18.393c-.903-1.897-2.465-.491-3.205 1.078z" stroke="#000" stroke-opacity=".4" stroke-width="3"/></g><path d="M175.628 124.205l-10.773 24.042-29.675 7.395c-2.22.417-2.631 2.481-1.152 3.635l18.985 16.233-12.008 34.528c-.74 1.57.657 3.136 3.123 1.481l33.706-23.335 27.699 11.1c3.535 1.563 3.617-.996 3.042-2.399l-8.132-29.955 27.625-29.27c1.644-1.819.74-3.716-1.479-3.3l-37.32 7.16-10.436-18.393c-.903-1.897-2.465-.491-3.205 1.078z" stroke="#07C9FE" stroke-width="3"/><g filter="url(#filter4_f_1020_2104)"><ellipse cx="258.408" cy="239.138" rx="31.077" ry="29.335" transform="rotate(25.132 258.408 239.138)" fill="url(#paint3_linear_1020_2104)"/></g><g filter="url(#filter5_f_1020_2104)"><ellipse cx="257.775" cy="239.803" rx="39.5" ry="34.272" transform="rotate(25.132 257.775 239.803)" fill="url(#paint4_linear_1020_2104)"/></g><g filter="url(#filter6_f_1020_2104)"><path d="M268.136 217.206l-11.596 9.986-17.431-3.432c-1.27-.329-1.995.656-1.502 1.627l5.979 13.221-14.833 15.195c-.776.643-.428 1.812 1.277 1.55l23.483-3.957 11.828 12.671c1.473 1.694 2.148.368 2.192-.511l3.113-17.759 21.749-8.578c1.313-.551 1.306-1.772.036-2.1l-21.392-5.442-.951-12.247c-.007-1.221-1.175-.867-1.952-.224z" stroke="url(#paint5_linear_1020_2104)" stroke-width="3"/></g><g filter="url(#filter7_f_1020_2104)"><path d="M265.669 222.465l-11.596 9.986-17.431-3.432c-1.27-.328-1.995.656-1.502 1.627l5.979 13.221-14.833 15.196c-.776.642-.428 1.811 1.277 1.549l23.483-3.957 11.828 12.671c1.473 1.694 2.148.369 2.192-.511l3.113-17.759 21.749-8.578c1.313-.551 1.306-1.772.036-2.1l-21.392-5.442-.951-12.247c-.007-1.221-1.175-.867-1.952-.224z" stroke="#000" stroke-opacity=".4" stroke-width="3"/></g><path d="M268.136 217.206l-11.596 9.986-17.431-3.432c-1.27-.329-1.995.656-1.502 1.627l5.979 13.221-14.833 15.195c-.776.643-.428 1.812 1.277 1.55l23.483-3.957 11.828 12.671c1.473 1.694 2.148.368 2.192-.511l3.113-17.759 21.749-8.578c1.313-.551 1.306-1.772.036-2.1l-21.392-5.442-.951-12.247c-.007-1.221-1.175-.867-1.952-.224z" stroke="#07C9FE" stroke-width="3"/><defs><filter id="filter0_f_1020_2104" x="15" y="7" width="323" height="317" filterUnits="userSpaceOnUse" color-interpolation-filters="sRGB"><feFlood flood-opacity="0" result="BackgroundImageFix"/><feBlend in="SourceGraphic" in2="BackgroundImageFix" result="shape"/><feGaussianBlur stdDeviation="54" result="effect1_foregroundBlur_1020_2104"/></filter><filter id="filter1_f_1020_2104" x="0" y="0" width="352" height="334" filterUnits="userSpaceOnUse" color-interpolation-filters="sRGB"><feFlood flood-opacity="0" result="BackgroundImageFix"/><feBlend in="SourceGraphic" in2="BackgroundImageFix" result="shape"/><feGaussianBlur stdDeviation="54" result="effect1_foregroundBlur_1020_2104"/></filter><filter id="filter2_f_1020_2104" x="125.654" y="114.713" width="110.761" height="105.016" filterUnits="userSpaceOnUse" color-interpolation-filters="sRGB"><feFlood flood-opacity="0" result="BackgroundImageFix"/><feBlend in="SourceGraphic" in2="BackgroundImageFix" result="shape"/><feGaussianBlur stdDeviation="3" result="effect1_foregroundBlur_1020_2104"/></filter><filter id="filter3_f_1020_2104" x="127.654" y="126.713" width="106.761" height="101.016" filterUnits="userSpaceOnUse" color-interpolation-filters="sRGB"><feFlood flood-opacity="0" result="BackgroundImageFix"/><feBlend in="SourceGraphic" in2="BackgroundImageFix" result="shape"/><feGaussianBlur stdDeviation="2" result="effect1_foregroundBlur_1020_2104"/></filter><filter id="filter4_f_1020_2104" x="119.63" y="101.475" width="277.556" height="275.326" filterUnits="userSpaceOnUse" color-interpolation-filters="sRGB"><feFlood flood-opacity="0" result="BackgroundImageFix"/><feBlend in="SourceGraphic" in2="BackgroundImageFix" result="shape"/><feGaussianBlur stdDeviation="54" result="effect1_foregroundBlur_1020_2104"/></filter><filter id="filter5_f_1020_2104" x="111.155" y="96.524" width="293.239" height="286.558" filterUnits="userSpaceOnUse" color-interpolation-filters="sRGB"><feFlood flood-opacity="0" result="BackgroundImageFix"/><feBlend in="SourceGraphic" in2="BackgroundImageFix" result="shape"/><feGaussianBlur stdDeviation="54" result="effect1_foregroundBlur_1020_2104"/></filter><filter id="filter6_f_1020_2104" x="220.855" y="209.118" width="80.027" height="63.266" filterUnits="userSpaceOnUse" color-interpolation-filters="sRGB"><feFlood flood-opacity="0" result="BackgroundImageFix"/><feBlend in="SourceGraphic" in2="BackgroundImageFix" result="shape"/><feGaussianBlur stdDeviation="3" result="effect1_foregroundBlur_1020_2104"/></filter><filter id="filter7_f_1020_2104" x="220.388" y="216.377" width="76.027" height="59.266" filterUnits="userSpaceOnUse" color-interpolation-filters="sRGB"><feFlood flood-opacity="0" result="BackgroundImageFix"/><feBlend in="SourceGraphic" in2="BackgroundImageFix" result="shape"/><feGaussianBlur stdDeviation="2" result="effect1_foregroundBlur_1020_2104"/></filter><linearGradient id="paint0_linear_1020_2104" x1="145.134" y1="137.314" x2="221.801" y2="140.654" gradientUnits="userSpaceOnUse"><stop stop-color="#2F45F4"/><stop offset="1" stop-color="#F09" stop-opacity="0"/></linearGradient><linearGradient id="paint1_linear_1020_2104" x1="136.492" y1="42.622" x2="247.734" y2="53.873" gradientUnits="userSpaceOnUse"><stop stop-color="#2F45F4"/><stop offset="1" stop-color="#F09"/></linearGradient><linearGradient id="paint2_linear_1020_2104" x1="134.5" y1="130" x2="223" y2="201" gradientUnits="userSpaceOnUse"><stop stop-color="#05C6FE"/><stop offset="1" stop-color="#DB00FF"/></linearGradient><linearGradient id="paint3_linear_1020_2104" x1="240.187" y1="222.765" x2="284.722" y2="224.705" gradientUnits="userSpaceOnUse"><stop stop-color="#2F45F4"/><stop offset="1" stop-color="#F09" stop-opacity="0"/></linearGradient><linearGradient id="paint4_linear_1020_2104" x1="234.825" y1="167.554" x2="299.443" y2="174.09" gradientUnits="userSpaceOnUse"><stop stop-color="#2F45F4"/><stop offset="1" stop-color="#F09"/></linearGradient><linearGradient id="paint5_linear_1020_2104" x1="245.078" y1="210.107" x2="274.104" y2="269.279" gradientUnits="userSpaceOnUse"><stop stop-color="#05C6FE"/><stop offset="1" stop-color="#DB00FF"/></linearGradient></defs></svg>