<svg width="1020" height="279" fill="none" xmlns="http://www.w3.org/2000/svg"><g filter="url(#filter0_f_903_2225)"><ellipse cx="510" cy="124.5" rx="360" ry="10.5" fill="url(#paint0_linear_903_2225)"/></g><g filter="url(#filter1_f_903_2225)"><ellipse cx="510" cy="139.5" rx="402" ry="31.5" fill="url(#paint1_linear_903_2225)"/></g><g filter="url(#filter2_f_903_2225)"><path fill-rule="evenodd" clip-rule="evenodd" d="M283.941 158.208c-4.608 0-8.736-1.056-12.384-3.168-3.584-2.176-6.432-5.152-8.544-8.928-2.112-3.84-3.168-8.192-3.168-13.056 0-4.928 1.056-9.248 3.168-12.96 2.112-3.776 4.96-6.72 8.544-8.832 3.648-2.176 7.776-3.264 12.384-3.264 4.608 0 8.736 1.088 12.384 3.264 3.648 2.112 6.496 5.056 8.544 8.832 2.112 3.712 3.168 8.032 3.168 12.96 0 4.864-1.056 9.216-3.168 13.056-2.048 3.776-4.896 6.752-8.544 8.928-3.648 2.112-7.776 3.168-12.384 3.168zm0-1.824c4.224 0 8-.992 11.328-2.976 3.392-1.984 6.048-4.736 7.968-8.256 1.92-3.52 2.88-7.552 2.88-12.096 0-4.608-.96-8.64-2.88-12.096-1.92-3.52-4.576-6.24-7.968-8.16-3.328-1.984-7.104-2.976-11.328-2.976-4.224 0-8 .992-11.328 2.976-3.328 1.92-5.984 4.64-7.968 8.16-1.92 3.456-2.88 7.488-2.88 12.096 0 4.544.96 8.576 2.88 12.096 1.984 3.52 4.64 6.272 7.968 8.256 3.328 1.984 7.104 2.976 11.328 2.976z" fill="url(#paint2_linear_903_2225)"/><path fill-rule="evenodd" clip-rule="evenodd" d="M408.553 158.208c-4.8 0-9.056-1.056-12.768-3.168-3.712-2.176-6.656-5.152-8.832-8.928-2.112-3.84-3.168-8.192-3.168-13.056 0-4.928.992-9.248 2.976-12.96 1.984-3.776 4.704-6.72 8.16-8.832 3.52-2.176 7.456-3.264 11.808-3.264 4.352 0 8.256 1.056 11.712 3.168 3.52 2.048 6.272 4.928 8.256 8.64 2.048 3.712 3.072 7.968 3.072 12.768v.48h-44.16c0 4.544.992 8.576 2.976 12.096 1.984 3.52 4.704 6.272 8.16 8.256 3.456 1.984 7.392 2.976 11.808 2.976 3.328 0 6.464-.64 9.408-1.92 3.008-1.28 5.504-3.2 7.488-5.76l1.344 1.344c-2.176 2.688-4.864 4.736-8.064 6.144-3.2 1.344-6.592 2.016-10.176 2.016zm-20.256-37.248c-1.592 3.07-2.477 6.494-2.655 10.272h42.268c-.184-3.778-1.1-7.202-2.749-10.272-1.856-3.456-4.384-6.176-7.584-8.16-3.136-1.984-6.752-2.976-10.848-2.976-4.032 0-7.648.992-10.848 2.976-3.2 1.984-5.728 4.704-7.584 8.16z" fill="url(#paint3_linear_903_2225)"/><path fill-rule="evenodd" clip-rule="evenodd" d="M447.628 124.416l.768-16.128h32.448v47.904h8.256v14.592h-1.92V157.92h-50.592v12.864h-1.92v-14.592h3.156c1.729-.11 3.173-.91 4.332-2.4 1.344-1.792 2.368-4.224 3.072-7.296.704-3.072 1.216-6.528 1.536-10.368.384-3.84.672-7.744.864-11.712zm-3.648 29.472c-.681 1.022-1.471 1.79-2.37 2.304h37.314v-46.08H450.22l-.672 14.304c-.192 3.776-.48 7.584-.864 11.424-.32 3.776-.864 7.264-1.632 10.464-.704 3.136-1.728 5.664-3.072 7.584z" fill="url(#paint4_linear_903_2225)"/><path fill-rule="evenodd" clip-rule="evenodd" d="M524.24 158.208c-4.8 0-9.056-1.056-12.768-3.168-3.712-2.176-6.656-5.152-8.832-8.928-2.112-3.84-3.168-8.192-3.168-13.056 0-4.928.992-9.248 2.976-12.96 1.984-3.776 4.704-6.72 8.16-8.832 3.52-2.176 7.456-3.264 11.808-3.264 4.352 0 8.256 1.056 11.712 3.168 3.52 2.048 6.272 4.928 8.256 8.64 2.048 3.712 3.072 7.968 3.072 12.768v.48h-44.16c0 4.544.992 8.576 2.976 12.096 1.984 3.52 4.704 6.272 8.16 8.256 3.456 1.984 7.392 2.976 11.808 2.976 3.328 0 6.464-.64 9.408-1.92 3.008-1.28 5.504-3.2 7.488-5.76l1.344 1.344c-2.176 2.688-4.864 4.736-8.064 6.144-3.2 1.344-6.592 2.016-10.176 2.016zm-20.256-37.248c-1.592 3.07-2.477 6.494-2.654 10.272h42.268c-.184-3.778-1.101-7.202-2.75-10.272-1.856-3.456-4.384-6.176-7.584-8.16-3.136-1.984-6.752-2.976-10.848-2.976-4.032 0-7.648.992-10.848 2.976-3.2 1.984-5.728 4.704-7.584 8.16z" fill="url(#paint5_linear_903_2225)"/><path d="M550.163 156l-.384 1.728c.576.128 1.12.224 1.632.288a6.312 6.312 0 001.536.192c2.432 0 4.416-.896 5.952-2.688 1.536-1.856 2.72-4.352 3.552-7.488.832-3.136 1.44-6.688 1.824-10.656.448-4.032.8-8.192 1.056-12.48l.822-14.784h28.842v47.808h1.92v-49.632h-32.64l-.864 16.224c-.192 4.032-.48 7.968-.864 11.808-.32 3.776-.864 7.2-1.632 10.272-.704 3.008-1.728 5.408-3.072 7.2-1.344 1.728-3.104 2.592-5.28 2.592-.32 0-.704-.032-1.152-.096a11.385 11.385 0 00-1.248-.288z" fill="url(#paint6_linear_903_2225)"/><path fill-rule="evenodd" clip-rule="evenodd" d="M637.262 127.104c6.08.064 10.688 1.376 13.824 3.936 3.2 2.56 4.8 6.336 4.8 11.328 0 5.184-1.664 9.12-4.992 11.808-3.264 2.688-8.096 4-14.496 3.936l-16.992-.192v-49.632h1.92v18.624l15.936.192zm-.672 29.28c5.76.064 10.08-1.088 12.96-3.456 2.944-2.368 4.416-5.856 4.416-10.464 0-4.544-1.44-7.936-4.32-10.176-2.88-2.24-7.232-3.392-13.056-3.456l-15.264-.192v27.552l15.264.192z" fill="url(#paint7_linear_903_2225)"/><path d="M775.039 111.552l-38.784 46.368h-1.536v-49.632h1.92v46.368l38.784-46.368h1.536v49.632h-1.92v-46.368z" fill="url(#paint8_linear_903_2225)"/><path d="M814.585 133.536l21.973 24.384h2.304l-22.733-25.353 21.197-24.279h-2.304l-20.464 23.52h-13.232v-23.52h-1.92v49.632h1.92v-24.384h13.259z" fill="url(#paint9_linear_903_2225)"/><path d="M201 157.92v-49.632h41.664v49.632h-1.92v-47.808H202.92v47.808H201z" fill="url(#paint10_linear_903_2225)"/><path d="M325.312 108.288v49.632h1.921v-24.192h37.344v24.192h1.92v-49.632h-1.92V132h-37.344v-23.712h-1.921z" fill="url(#paint11_linear_903_2225)"/><path d="M671.062 108.288v49.632h1.921v-24.192h37.343v24.192h1.921v-49.632h-1.921V132h-37.343v-23.712h-1.921z" fill="url(#paint12_linear_903_2225)"/></g><g filter="url(#filter3_f_903_2225)"><path fill-rule="evenodd" clip-rule="evenodd" d="M283.941 158.208c-4.608 0-8.736-1.056-12.384-3.168-3.584-2.176-6.432-5.152-8.544-8.928-2.112-3.84-3.168-8.192-3.168-13.056 0-4.928 1.056-9.248 3.168-12.96 2.112-3.776 4.96-6.72 8.544-8.832 3.648-2.176 7.776-3.264 12.384-3.264 4.608 0 8.736 1.088 12.384 3.264 3.648 2.112 6.496 5.056 8.544 8.832 2.112 3.712 3.168 8.032 3.168 12.96 0 4.864-1.056 9.216-3.168 13.056-2.048 3.776-4.896 6.752-8.544 8.928-3.648 2.112-7.776 3.168-12.384 3.168zm0-1.824c4.224 0 8-.992 11.328-2.976 3.392-1.984 6.048-4.736 7.968-8.256 1.92-3.52 2.88-7.552 2.88-12.096 0-4.608-.96-8.64-2.88-12.096-1.92-3.52-4.576-6.24-7.968-8.16-3.328-1.984-7.104-2.976-11.328-2.976-4.224 0-8 .992-11.328 2.976-3.328 1.92-5.984 4.64-7.968 8.16-1.92 3.456-2.88 7.488-2.88 12.096 0 4.544.96 8.576 2.88 12.096 1.984 3.52 4.64 6.272 7.968 8.256 3.328 1.984 7.104 2.976 11.328 2.976z" fill="url(#paint13_linear_903_2225)"/><path fill-rule="evenodd" clip-rule="evenodd" d="M408.553 158.208c-4.8 0-9.056-1.056-12.768-3.168-3.712-2.176-6.656-5.152-8.832-8.928-2.112-3.84-3.168-8.192-3.168-13.056 0-4.928.992-9.248 2.976-12.96 1.984-3.776 4.704-6.72 8.16-8.832 3.52-2.176 7.456-3.264 11.808-3.264 4.352 0 8.256 1.056 11.712 3.168 3.52 2.048 6.272 4.928 8.256 8.64 2.048 3.712 3.072 7.968 3.072 12.768v.48h-44.16c0 4.544.992 8.576 2.976 12.096 1.984 3.52 4.704 6.272 8.16 8.256 3.456 1.984 7.392 2.976 11.808 2.976 3.328 0 6.464-.64 9.408-1.92 3.008-1.28 5.504-3.2 7.488-5.76l1.344 1.344c-2.176 2.688-4.864 4.736-8.064 6.144-3.2 1.344-6.592 2.016-10.176 2.016zm-20.256-37.248c-1.592 3.07-2.477 6.494-2.655 10.272h42.268c-.184-3.778-1.1-7.202-2.749-10.272-1.856-3.456-4.384-6.176-7.584-8.16-3.136-1.984-6.752-2.976-10.848-2.976-4.032 0-7.648.992-10.848 2.976-3.2 1.984-5.728 4.704-7.584 8.16z" fill="url(#paint14_linear_903_2225)"/><path fill-rule="evenodd" clip-rule="evenodd" d="M447.628 124.416l.768-16.128h32.448v47.904h8.256v14.592h-1.92V157.92h-50.592v12.864h-1.92v-14.592h3.156c1.729-.11 3.173-.91 4.332-2.4 1.344-1.792 2.368-4.224 3.072-7.296.704-3.072 1.216-6.528 1.536-10.368.384-3.84.672-7.744.864-11.712zm-3.648 29.472c-.681 1.022-1.471 1.79-2.37 2.304h37.314v-46.08H450.22l-.672 14.304c-.192 3.776-.48 7.584-.864 11.424-.32 3.776-.864 7.264-1.632 10.464-.704 3.136-1.728 5.664-3.072 7.584z" fill="url(#paint15_linear_903_2225)"/><path fill-rule="evenodd" clip-rule="evenodd" d="M524.24 158.208c-4.8 0-9.056-1.056-12.768-3.168-3.712-2.176-6.656-5.152-8.832-8.928-2.112-3.84-3.168-8.192-3.168-13.056 0-4.928.992-9.248 2.976-12.96 1.984-3.776 4.704-6.72 8.16-8.832 3.52-2.176 7.456-3.264 11.808-3.264 4.352 0 8.256 1.056 11.712 3.168 3.52 2.048 6.272 4.928 8.256 8.64 2.048 3.712 3.072 7.968 3.072 12.768v.48h-44.16c0 4.544.992 8.576 2.976 12.096 1.984 3.52 4.704 6.272 8.16 8.256 3.456 1.984 7.392 2.976 11.808 2.976 3.328 0 6.464-.64 9.408-1.92 3.008-1.28 5.504-3.2 7.488-5.76l1.344 1.344c-2.176 2.688-4.864 4.736-8.064 6.144-3.2 1.344-6.592 2.016-10.176 2.016zm-20.256-37.248c-1.592 3.07-2.477 6.494-2.654 10.272h42.268c-.184-3.778-1.101-7.202-2.75-10.272-1.856-3.456-4.384-6.176-7.584-8.16-3.136-1.984-6.752-2.976-10.848-2.976-4.032 0-7.648.992-10.848 2.976-3.2 1.984-5.728 4.704-7.584 8.16z" fill="url(#paint16_linear_903_2225)"/><path d="M550.163 156l-.384 1.728c.576.128 1.12.224 1.632.288a6.312 6.312 0 001.536.192c2.432 0 4.416-.896 5.952-2.688 1.536-1.856 2.72-4.352 3.552-7.488.832-3.136 1.44-6.688 1.824-10.656.448-4.032.8-8.192 1.056-12.48l.822-14.784h28.842v47.808h1.92v-49.632h-32.64l-.864 16.224c-.192 4.032-.48 7.968-.864 11.808-.32 3.776-.864 7.2-1.632 10.272-.704 3.008-1.728 5.408-3.072 7.2-1.344 1.728-3.104 2.592-5.28 2.592-.32 0-.704-.032-1.152-.096a11.385 11.385 0 00-1.248-.288z" fill="url(#paint17_linear_903_2225)"/><path fill-rule="evenodd" clip-rule="evenodd" d="M637.262 127.104c6.08.064 10.688 1.376 13.824 3.936 3.2 2.56 4.8 6.336 4.8 11.328 0 5.184-1.664 9.12-4.992 11.808-3.264 2.688-8.096 4-14.496 3.936l-16.992-.192v-49.632h1.92v18.624l15.936.192zm-.672 29.28c5.76.064 10.08-1.088 12.96-3.456 2.944-2.368 4.416-5.856 4.416-10.464 0-4.544-1.44-7.936-4.32-10.176-2.88-2.24-7.232-3.392-13.056-3.456l-15.264-.192v27.552l15.264.192z" fill="url(#paint18_linear_903_2225)"/><path d="M775.039 111.552l-38.784 46.368h-1.536v-49.632h1.92v46.368l38.784-46.368h1.536v49.632h-1.92v-46.368z" fill="url(#paint19_linear_903_2225)"/><path d="M814.585 133.536l21.973 24.384h2.304l-22.733-25.353 21.197-24.279h-2.304l-20.464 23.52h-13.232v-23.52h-1.92v49.632h1.92v-24.384h13.259z" fill="url(#paint20_linear_903_2225)"/><path d="M201 157.92v-49.632h41.664v49.632h-1.92v-47.808H202.92v47.808H201z" fill="url(#paint21_linear_903_2225)"/><path d="M325.312 108.288v49.632h1.921v-24.192h37.344v24.192h1.92v-49.632h-1.92V132h-37.344v-23.712h-1.921z" fill="url(#paint22_linear_903_2225)"/><path d="M671.062 108.288v49.632h1.921v-24.192h37.343v24.192h1.921v-49.632h-1.921V132h-37.343v-23.712h-1.921z" fill="url(#paint23_linear_903_2225)"/></g><g filter="url(#filter4_f_903_2225)" fill="#000" fill-opacity=".7"><path fill-rule="evenodd" clip-rule="evenodd" d="M283.941 167.208c-4.608 0-8.736-1.056-12.384-3.168-3.584-2.176-6.432-5.152-8.544-8.928-2.112-3.84-3.168-8.192-3.168-13.056 0-4.928 1.056-9.248 3.168-12.96 2.112-3.776 4.96-6.72 8.544-8.832 3.648-2.176 7.776-3.264 12.384-3.264 4.608 0 8.736 1.088 12.384 3.264 3.648 2.112 6.496 5.056 8.544 8.832 2.112 3.712 3.168 8.032 3.168 12.96 0 4.864-1.056 9.216-3.168 13.056-2.048 3.776-4.896 6.752-8.544 8.928-3.648 2.112-7.776 3.168-12.384 3.168zm0-1.824c4.224 0 8-.992 11.328-2.976 3.392-1.984 6.048-4.736 7.968-8.256 1.92-3.52 2.88-7.552 2.88-12.096 0-4.608-.96-8.64-2.88-12.096-1.92-3.52-4.576-6.24-7.968-8.16-3.328-1.984-7.104-2.976-11.328-2.976-4.224 0-8 .992-11.328 2.976-3.328 1.92-5.984 4.64-7.968 8.16-1.92 3.456-2.88 7.488-2.88 12.096 0 4.544.96 8.576 2.88 12.096 1.984 3.52 4.64 6.272 7.968 8.256 3.328 1.984 7.104 2.976 11.328 2.976zm124.612 1.824c-4.8 0-9.056-1.056-12.768-3.168-3.712-2.176-6.656-5.152-8.832-8.928-2.112-3.84-3.168-8.192-3.168-13.056 0-4.928.992-9.248 2.976-12.96 1.984-3.776 4.704-6.72 8.16-8.832 3.52-2.176 7.456-3.264 11.808-3.264 4.352 0 8.256 1.056 11.712 3.168 3.52 2.048 6.272 4.928 8.256 8.64 2.048 3.712 3.072 7.968 3.072 12.768v.48h-44.16c0 4.544.992 8.576 2.976 12.096 1.984 3.52 4.704 6.272 8.16 8.256 3.456 1.984 7.392 2.976 11.808 2.976 3.328 0 6.464-.64 9.408-1.92 3.008-1.28 5.504-3.2 7.488-5.76l1.344 1.344c-2.176 2.688-4.864 4.736-8.064 6.144-3.2 1.344-6.592 2.016-10.176 2.016zm-20.256-37.248c-1.592 3.07-2.477 6.494-2.655 10.272h42.268c-.184-3.778-1.1-7.202-2.749-10.272-1.856-3.456-4.384-6.176-7.584-8.16-3.136-1.984-6.752-2.976-10.848-2.976-4.032 0-7.648.992-10.848 2.976-3.2 1.984-5.728 4.704-7.584 8.16zm59.331 3.456l.768-16.128h32.448v47.904h8.256v14.592h-1.92V166.92h-50.592v12.864h-1.92v-14.592h3.156c1.729-.11 3.173-.91 4.332-2.4 1.344-1.792 2.368-4.224 3.072-7.296.704-3.072 1.216-6.528 1.536-10.368.384-3.84.672-7.744.864-11.712zm-3.648 29.472c-.681 1.022-1.471 1.79-2.37 2.304h37.314v-46.08H450.22l-.672 14.304c-.192 3.776-.48 7.584-.864 11.424-.32 3.776-.864 7.264-1.632 10.464-.704 3.136-1.728 5.664-3.072 7.584zm80.26 4.32c-4.8 0-9.056-1.056-12.768-3.168-3.712-2.176-6.656-5.152-8.832-8.928-2.112-3.84-3.168-8.192-3.168-13.056 0-4.928.992-9.248 2.976-12.96 1.984-3.776 4.704-6.72 8.16-8.832 3.52-2.176 7.456-3.264 11.808-3.264 4.352 0 8.256 1.056 11.712 3.168 3.52 2.048 6.272 4.928 8.256 8.64 2.048 3.712 3.072 7.968 3.072 12.768v.48h-44.16c0 4.544.992 8.576 2.976 12.096 1.984 3.52 4.704 6.272 8.16 8.256 3.456 1.984 7.392 2.976 11.808 2.976 3.328 0 6.464-.64 9.408-1.92 3.008-1.28 5.504-3.2 7.488-5.76l1.344 1.344c-2.176 2.688-4.864 4.736-8.064 6.144-3.2 1.344-6.592 2.016-10.176 2.016zm-20.256-37.248c-1.592 3.07-2.477 6.494-2.654 10.272h42.268c-.184-3.778-1.101-7.202-2.75-10.272-1.856-3.456-4.384-6.176-7.584-8.16-3.136-1.984-6.752-2.976-10.848-2.976-4.032 0-7.648.992-10.848 2.976-3.2 1.984-5.728 4.704-7.584 8.16z"/><path d="M550.163 165l-.384 1.728c.576.128 1.12.224 1.632.288a6.312 6.312 0 001.536.192c2.432 0 4.416-.896 5.952-2.688 1.536-1.856 2.72-4.352 3.552-7.488.832-3.136 1.44-6.688 1.824-10.656.448-4.032.8-8.192 1.056-12.48l.822-14.784h28.842v47.808h1.92v-49.632h-32.64l-.864 16.224c-.192 4.032-.48 7.968-.864 11.808-.32 3.776-.864 7.2-1.632 10.272-.704 3.008-1.728 5.408-3.072 7.2-1.344 1.728-3.104 2.592-5.28 2.592-.32 0-.704-.032-1.152-.096a11.385 11.385 0 00-1.248-.288z"/><path fill-rule="evenodd" clip-rule="evenodd" d="M637.262 136.104c6.08.064 10.688 1.376 13.824 3.936 3.2 2.56 4.8 6.336 4.8 11.328 0 5.184-1.664 9.12-4.992 11.808-3.264 2.688-8.096 4-14.496 3.936l-16.992-.192v-49.632h1.92v18.624l15.936.192zm-.672 29.28c5.76.064 10.08-1.088 12.96-3.456 2.944-2.368 4.416-5.856 4.416-10.464 0-4.544-1.44-7.936-4.32-10.176-2.88-2.24-7.232-3.392-13.056-3.456l-15.264-.192v27.552l15.264.192z"/><path d="M775.039 120.552l-38.784 46.368h-1.536v-49.632h1.92v46.368l38.784-46.368h1.536v49.632h-1.92v-46.368zm39.546 21.984l21.973 24.384h2.304l-22.733-25.353 21.197-24.279h-2.304l-20.464 23.52h-13.232v-23.52h-1.92v49.632h1.92v-24.384h13.259zM201 166.92v-49.632h41.664v49.632h-1.92v-47.808H202.92v47.808H201zm124.312-49.632v49.632h1.921v-24.192h37.344v24.192h1.92v-49.632h-1.92V141h-37.344v-23.712h-1.921zm345.75 0v49.632h1.921v-24.192h37.343v24.192h1.921v-49.632h-1.921V141h-37.343v-23.712h-1.921z"/></g><path fill-rule="evenodd" clip-rule="evenodd" d="M283.941 158.208c-4.608 0-8.736-1.056-12.384-3.168-3.584-2.176-6.432-5.152-8.544-8.928-2.112-3.84-3.168-8.192-3.168-13.056 0-4.928 1.056-9.248 3.168-12.96 2.112-3.776 4.96-6.72 8.544-8.832 3.648-2.176 7.776-3.264 12.384-3.264 4.608 0 8.736 1.088 12.384 3.264 3.648 2.112 6.496 5.056 8.544 8.832 2.112 3.712 3.168 8.032 3.168 12.96 0 4.864-1.056 9.216-3.168 13.056-2.048 3.776-4.896 6.752-8.544 8.928-3.648 2.112-7.776 3.168-12.384 3.168zm0-1.824c4.224 0 8-.992 11.328-2.976 3.392-1.984 6.048-4.736 7.968-8.256 1.92-3.52 2.88-7.552 2.88-12.096 0-4.608-.96-8.64-2.88-12.096-1.92-3.52-4.576-6.24-7.968-8.16-3.328-1.984-7.104-2.976-11.328-2.976-4.224 0-8 .992-11.328 2.976-3.328 1.92-5.984 4.64-7.968 8.16-1.92 3.456-2.88 7.488-2.88 12.096 0 4.544.96 8.576 2.88 12.096 1.984 3.52 4.64 6.272 7.968 8.256 3.328 1.984 7.104 2.976 11.328 2.976zm124.612 1.824c-4.8 0-9.056-1.056-12.768-3.168-3.712-2.176-6.656-5.152-8.832-8.928-2.112-3.84-3.168-8.192-3.168-13.056 0-4.928.992-9.248 2.976-12.96 1.984-3.776 4.704-6.72 8.16-8.832 3.52-2.176 7.456-3.264 11.808-3.264 4.352 0 8.256 1.056 11.712 3.168 3.52 2.048 6.272 4.928 8.256 8.64 2.048 3.712 3.072 7.968 3.072 12.768v.48h-44.16c0 4.544.992 8.576 2.976 12.096 1.984 3.52 4.704 6.272 8.16 8.256 3.456 1.984 7.392 2.976 11.808 2.976 3.328 0 6.464-.64 9.408-1.92 3.008-1.28 5.504-3.2 7.488-5.76l1.344 1.344c-2.176 2.688-4.864 4.736-8.064 6.144-3.2 1.344-6.592 2.016-10.176 2.016zm-20.256-37.248c-1.592 3.07-2.477 6.494-2.655 10.272h42.268c-.184-3.778-1.1-7.202-2.749-10.272-1.856-3.456-4.384-6.176-7.584-8.16-3.136-1.984-6.752-2.976-10.848-2.976-4.032 0-7.648.992-10.848 2.976-3.2 1.984-5.728 4.704-7.584 8.16zm59.331 3.456l.768-16.128h32.448v47.904h8.256v14.592h-1.92V157.92h-50.592v12.864h-1.92v-14.592h3.156c1.729-.11 3.173-.91 4.332-2.4 1.344-1.792 2.368-4.224 3.072-7.296.704-3.072 1.216-6.528 1.536-10.368.384-3.84.672-7.744.864-11.712zm-3.648 29.472c-.681 1.022-1.471 1.79-2.37 2.304h37.314v-46.08H450.22l-.672 14.304c-.192 3.776-.48 7.584-.864 11.424-.32 3.776-.864 7.264-1.632 10.464-.704 3.136-1.728 5.664-3.072 7.584zm80.26 4.32c-4.8 0-9.056-1.056-12.768-3.168-3.712-2.176-6.656-5.152-8.832-8.928-2.112-3.84-3.168-8.192-3.168-13.056 0-4.928.992-9.248 2.976-12.96 1.984-3.776 4.704-6.72 8.16-8.832 3.52-2.176 7.456-3.264 11.808-3.264 4.352 0 8.256 1.056 11.712 3.168 3.52 2.048 6.272 4.928 8.256 8.64 2.048 3.712 3.072 7.968 3.072 12.768v.48h-44.16c0 4.544.992 8.576 2.976 12.096 1.984 3.52 4.704 6.272 8.16 8.256 3.456 1.984 7.392 2.976 11.808 2.976 3.328 0 6.464-.64 9.408-1.92 3.008-1.28 5.504-3.2 7.488-5.76l1.344 1.344c-2.176 2.688-4.864 4.736-8.064 6.144-3.2 1.344-6.592 2.016-10.176 2.016zm-20.256-37.248c-1.592 3.07-2.477 6.494-2.654 10.272h42.268c-.184-3.778-1.101-7.202-2.75-10.272-1.856-3.456-4.384-6.176-7.584-8.16-3.136-1.984-6.752-2.976-10.848-2.976-4.032 0-7.648.992-10.848 2.976-3.2 1.984-5.728 4.704-7.584 8.16z" fill="#7EE8FF"/><path d="M550.163 156l-.384 1.728c.576.128 1.12.224 1.632.288a6.312 6.312 0 001.536.192c2.432 0 4.416-.896 5.952-2.688 1.536-1.856 2.72-4.352 3.552-7.488.832-3.136 1.44-6.688 1.824-10.656.448-4.032.8-8.192 1.056-12.48l.822-14.784h28.842v47.808h1.92v-49.632h-32.64l-.864 16.224c-.192 4.032-.48 7.968-.864 11.808-.32 3.776-.864 7.2-1.632 10.272-.704 3.008-1.728 5.408-3.072 7.2-1.344 1.728-3.104 2.592-5.28 2.592-.32 0-.704-.032-1.152-.096a11.385 11.385 0 00-1.248-.288z" fill="#7EE8FF"/><path fill-rule="evenodd" clip-rule="evenodd" d="M637.262 127.104c6.08.064 10.688 1.376 13.824 3.936 3.2 2.56 4.8 6.336 4.8 11.328 0 5.184-1.664 9.12-4.992 11.808-3.264 2.688-8.096 4-14.496 3.936l-16.992-.192v-49.632h1.92v18.624l15.936.192zm-.672 29.28c5.76.064 10.08-1.088 12.96-3.456 2.944-2.368 4.416-5.856 4.416-10.464 0-4.544-1.44-7.936-4.32-10.176-2.88-2.24-7.232-3.392-13.056-3.456l-15.264-.192v27.552l15.264.192z" fill="#7EE8FF"/><path d="M775.039 111.552l-38.784 46.368h-1.536v-49.632h1.92v46.368l38.784-46.368h1.536v49.632h-1.92v-46.368zm39.546 21.984l21.973 24.384h2.304l-22.733-25.353 21.197-24.279h-2.304l-20.464 23.52h-13.232v-23.52h-1.92v49.632h1.92v-24.384h13.259zM201 157.92v-49.632h41.664v49.632h-1.92v-47.808H202.92v47.808H201zm124.312-49.632v49.632h1.921v-24.192h37.344v24.192h1.92v-49.632h-1.92V132h-37.344v-23.712h-1.921zm345.75 0v49.632h1.921v-24.192h37.343v24.192h1.921v-49.632h-1.921V132h-37.343v-23.712h-1.921z" fill="#7EE8FF"/><defs><linearGradient id="paint0_linear_903_2225" x1="298.938" y1="118.64" x2="471.932" y2="362.543" gradientUnits="userSpaceOnUse"><stop stop-color="#2F45F4"/><stop offset="1" stop-color="#F09" stop-opacity="0"/></linearGradient><linearGradient id="paint1_linear_903_2225" x1="274.314" y1="121.919" x2="726.854" y2="359.409" gradientUnits="userSpaceOnUse"><stop stop-color="#2F45F4"/><stop offset="1" stop-color="#F09"/></linearGradient><linearGradient id="paint2_linear_903_2225" x1="201" y1="117" x2="845" y2="151" gradientUnits="userSpaceOnUse"><stop stop-color="#7DD0FF"/><stop offset="1" stop-color="#DB00FF"/></linearGradient><linearGradient id="paint3_linear_903_2225" x1="201" y1="117" x2="845" y2="151" gradientUnits="userSpaceOnUse"><stop stop-color="#7DD0FF"/><stop offset="1" stop-color="#DB00FF"/></linearGradient><linearGradient id="paint4_linear_903_2225" x1="201" y1="117" x2="845" y2="151" gradientUnits="userSpaceOnUse"><stop stop-color="#7DD0FF"/><stop offset="1" stop-color="#DB00FF"/></linearGradient><linearGradient id="paint5_linear_903_2225" x1="201" y1="117" x2="845" y2="151" gradientUnits="userSpaceOnUse"><stop stop-color="#7DD0FF"/><stop offset="1" stop-color="#DB00FF"/></linearGradient><linearGradient id="paint6_linear_903_2225" x1="201" y1="117" x2="845" y2="151" gradientUnits="userSpaceOnUse"><stop stop-color="#7DD0FF"/><stop offset="1" stop-color="#DB00FF"/></linearGradient><linearGradient id="paint7_linear_903_2225" x1="201" y1="117" x2="845" y2="151" gradientUnits="userSpaceOnUse"><stop stop-color="#7DD0FF"/><stop offset="1" stop-color="#DB00FF"/></linearGradient><linearGradient id="paint8_linear_903_2225" x1="201" y1="117" x2="845" y2="151" gradientUnits="userSpaceOnUse"><stop stop-color="#7DD0FF"/><stop offset="1" stop-color="#DB00FF"/></linearGradient><linearGradient id="paint9_linear_903_2225" x1="201" y1="117" x2="845" y2="151" gradientUnits="userSpaceOnUse"><stop stop-color="#7DD0FF"/><stop offset="1" stop-color="#DB00FF"/></linearGradient><linearGradient id="paint10_linear_903_2225" x1="201" y1="117" x2="845" y2="151" gradientUnits="userSpaceOnUse"><stop stop-color="#7DD0FF"/><stop offset="1" stop-color="#DB00FF"/></linearGradient><linearGradient id="paint11_linear_903_2225" x1="201" y1="117" x2="845" y2="151" gradientUnits="userSpaceOnUse"><stop stop-color="#7DD0FF"/><stop offset="1" stop-color="#DB00FF"/></linearGradient><linearGradient id="paint12_linear_903_2225" x1="201" y1="117" x2="845" y2="151" gradientUnits="userSpaceOnUse"><stop stop-color="#7DD0FF"/><stop offset="1" stop-color="#DB00FF"/></linearGradient><linearGradient id="paint13_linear_903_2225" x1="198.5" y1="105" x2="839" y2="158" gradientUnits="userSpaceOnUse"><stop stop-color="#0047FF"/><stop offset="1" stop-color="#DB00FF"/></linearGradient><linearGradient id="paint14_linear_903_2225" x1="198.5" y1="105" x2="839" y2="158" gradientUnits="userSpaceOnUse"><stop stop-color="#0047FF"/><stop offset="1" stop-color="#DB00FF"/></linearGradient><linearGradient id="paint15_linear_903_2225" x1="198.5" y1="105" x2="839" y2="158" gradientUnits="userSpaceOnUse"><stop stop-color="#0047FF"/><stop offset="1" stop-color="#DB00FF"/></linearGradient><linearGradient id="paint16_linear_903_2225" x1="198.5" y1="105" x2="839" y2="158" gradientUnits="userSpaceOnUse"><stop stop-color="#0047FF"/><stop offset="1" stop-color="#DB00FF"/></linearGradient><linearGradient id="paint17_linear_903_2225" x1="198.5" y1="105" x2="839" y2="158" gradientUnits="userSpaceOnUse"><stop stop-color="#0047FF"/><stop offset="1" stop-color="#DB00FF"/></linearGradient><linearGradient id="paint18_linear_903_2225" x1="198.5" y1="105" x2="839" y2="158" gradientUnits="userSpaceOnUse"><stop stop-color="#0047FF"/><stop offset="1" stop-color="#DB00FF"/></linearGradient><linearGradient id="paint19_linear_903_2225" x1="198.5" y1="105" x2="839" y2="158" gradientUnits="userSpaceOnUse"><stop stop-color="#0047FF"/><stop offset="1" stop-color="#DB00FF"/></linearGradient><linearGradient id="paint20_linear_903_2225" x1="198.5" y1="105" x2="839" y2="158" gradientUnits="userSpaceOnUse"><stop stop-color="#0047FF"/><stop offset="1" stop-color="#DB00FF"/></linearGradient><linearGradient id="paint21_linear_903_2225" x1="198.5" y1="105" x2="839" y2="158" gradientUnits="userSpaceOnUse"><stop stop-color="#0047FF"/><stop offset="1" stop-color="#DB00FF"/></linearGradient><linearGradient id="paint22_linear_903_2225" x1="198.5" y1="105" x2="839" y2="158" gradientUnits="userSpaceOnUse"><stop stop-color="#0047FF"/><stop offset="1" stop-color="#DB00FF"/></linearGradient><linearGradient id="paint23_linear_903_2225" x1="198.5" y1="105" x2="839" y2="158" gradientUnits="userSpaceOnUse"><stop stop-color="#0047FF"/><stop offset="1" stop-color="#DB00FF"/></linearGradient><filter id="filter0_f_903_2225" x="42" y="6" width="936" height="237" filterUnits="userSpaceOnUse" color-interpolation-filters="sRGB"><feFlood flood-opacity="0" result="BackgroundImageFix"/><feBlend in="SourceGraphic" in2="BackgroundImageFix" result="shape"/><feGaussianBlur stdDeviation="54" result="effect1_foregroundBlur_903_2225"/></filter><filter id="filter1_f_903_2225" x="0" y="0" width="1020" height="279" filterUnits="userSpaceOnUse" color-interpolation-filters="sRGB"><feFlood flood-opacity="0" result="BackgroundImageFix"/><feBlend in="SourceGraphic" in2="BackgroundImageFix" result="shape"/><feGaussianBlur stdDeviation="54" result="effect1_foregroundBlur_903_2225"/></filter><filter id="filter2_f_903_2225" x="191" y="98" width="657.862" height="82.784" filterUnits="userSpaceOnUse" color-interpolation-filters="sRGB"><feFlood flood-opacity="0" result="BackgroundImageFix"/><feBlend in="SourceGraphic" in2="BackgroundImageFix" result="shape"/><feGaussianBlur stdDeviation="5" result="effect1_foregroundBlur_903_2225"/></filter><filter id="filter3_f_903_2225" x="191" y="98" width="657.862" height="82.784" filterUnits="userSpaceOnUse" color-interpolation-filters="sRGB"><feFlood flood-opacity="0" result="BackgroundImageFix"/><feBlend in="SourceGraphic" in2="BackgroundImageFix" result="shape"/><feGaussianBlur stdDeviation="5" result="effect1_foregroundBlur_903_2225"/></filter><filter id="filter4_f_903_2225" x="197" y="113" width="645.862" height="70.784" filterUnits="userSpaceOnUse" color-interpolation-filters="sRGB"><feFlood flood-opacity="0" result="BackgroundImageFix"/><feBlend in="SourceGraphic" in2="BackgroundImageFix" result="shape"/><feGaussianBlur stdDeviation="2" result="effect1_foregroundBlur_903_2225"/></filter></defs></svg>