<svg width="30" height="31" fill="none" xmlns="http://www.w3.org/2000/svg"><path d="M14.76 24.553c1.819 0 3.234 1.41 3.234 3.224 0 1.813-1.415 3.223-3.235 3.223-1.82 0-3.235-1.41-3.235-3.223s1.416-3.224 3.235-3.224zm-7.987-.402c5.055-1.612 10.513-3.224 15.568-4.835.707-.202 1.01-.504 1.01-1.712l.304-12.692 5.762-2.921c.505-.201.708-.907.505-1.41-.202-.504-.91-.705-1.415-.504l-5.66 2.921c-.708.403-1.113 1.108-1.214 1.914l-.1 1.914-20.32 1.611C.505 8.437 0 9.143 0 9.847c0 .202.101.303.101.504l4.751 12.792a1.603 1.603 0 001.921 1.008zm17.893-4.332c.91 0 1.718.806 1.718 1.713 0 .906-.808 1.712-1.718 1.712-.91 0-1.719-.806-1.719-1.712 0-.907.81-1.713 1.719-1.713z" fill="#2F45F4"/></svg>