<svg width="139" height="139" fill="none" xmlns="http://www.w3.org/2000/svg"><path d="M55.003 72.816L6.412 121.417a2.92 2.92 0 000 4.129l6.506 6.516a2.92 2.92 0 004.14 0l48.59-48.6M76.79 72.328l26.59-26.59-10.646-10.645m0 0l-26.589 26.59m26.59-26.59l.145-1.626a8.26 8.26 0 012.386-5.133l1.948-1.948-9.554-7.49a44.95 44.95 0 00-9.876-5.844l-14.98-6.447a3.496 3.496 0 01-1.733-3.4 1.315 1.315 0 011.285-1.188c5.708-.136 30.992.117 45.903 14.23l11.795 11.795c.609.624.957 1.456.974 2.328l.107 5.6 6.818 6.818-7.1 7.1-6.818-6.818-2.036.058c-1.83.059-3.634.458-5.318 1.179l-3.292 1.422m-81.93-17.6l2.153-7.548-6.73-6.72c-1.422-1.432-.146-2.844 1.276-4.276 2.98-2.922 23.239.4 20.005 24.115l66.113 66.113s23.54-5.931 26.053 19.226l-5.931.536-6.107-6.107-8.98 2.513-2.513 8.98 6.107 6.116-.545 5.922c-25.148-2.513-19.217-26.044-19.217-26.044L27.021 44.834C3.305 48.067-.065 27.809 2.915 24.829c1.422-1.422 2.844-2.698 4.266-1.266l6.73 6.72 7.549-2.153zm97.501 23.575l10.709-10.709a2.923 2.923 0 014.133 0l2.438 2.438a2.922 2.922 0 010 4.132l-10.71 10.71a2.922 2.922 0 01-4.132 0l-2.438-2.439a2.922 2.922 0 010-4.132z" stroke="url(#paint0_linear_904_2290)" stroke-width="3" stroke-linecap="round" stroke-linejoin="round"/><defs><linearGradient id="paint0_linear_904_2290" x1="69.548" y1="2" x2="69.548" y2="137" gradientUnits="userSpaceOnUse"><stop stop-color="#00F0FF"/><stop offset="1" stop-color="#C071FF"/></linearGradient></defs></svg>