<svg width="137" height="140" fill="none" xmlns="http://www.w3.org/2000/svg"><path d="M2 127.507V12.464A10.464 10.464 0 0112.464 2h81.39a3.139 3.139 0 013.14 3.14v110.825m0 0a3.14 3.14 0 01-3.14 3.14h-83.9A7.963 7.963 0 002 127.068a10.463 10.463 0 0010.464 10.464h79.298a5.23 5.23 0 005.232-5.232v-16.335zm-19.129-52.75H21.36m56.506 9.941H21.36m90.63 32.502V29.636h23.471v76.022l-11.73 21.023-11.741-21.023zm0 0l7.325-4.227m0 0v-71.66m0 71.66l4.416 4.049 4.405-4.049m0 0v-71.66m0 71.66l7.325 4.238M20.94 26.8h57.124v23.136H20.94V26.8zm96.281-11.49h12.965a5.234 5.234 0 015.232 5.232v9.104h-23.429v-9.104a5.233 5.233 0 015.232-5.232z" stroke="url(#paint0_linear_904_2368)" stroke-width="3" stroke-linecap="round" stroke-linejoin="round"/><defs><linearGradient id="paint0_linear_904_2368" x1="68.73" y1="2" x2="68.73" y2="137.532" gradientUnits="userSpaceOnUse"><stop stop-color="#00F0FF"/><stop offset="1" stop-color="#C071FF"/></linearGradient></defs></svg>