<svg width="162" height="40" fill="none" xmlns="http://www.w3.org/2000/svg"><path d="M21.4 13.337l-4.801-7.402.488-1.274L27.42 2.512c.488-.08.733.08.407.557l-5.614 10.188c-.244.478-.57.398-.814.08z" fill="url(#paint0_linear_923_3202)"/><path d="M21.725 8.72V2.592c0-.478-.163-.796-.733-.876L13.995 1c-.57-.08-.651.318-.651.716l.814 7.323c0 .318.244.636.65.636h.163l6.184-.318c.407.08.57-.159.57-.637z" fill="url(#paint1_linear_923_3202)"/><path d="M11.88 34.827c1.464 0 2.603 1.114 2.603 2.547 0 1.432-1.139 2.546-2.604 2.546-1.464 0-2.603-1.114-2.603-2.547 0-1.432 1.139-2.546 2.604-2.546zm-6.428-.319c4.068-1.273 8.462-2.547 12.53-3.82.57-.16.814-.398.814-1.353l.244-10.029 4.637-2.308c.407-.16.57-.716.407-1.114-.162-.398-.732-.557-1.139-.398l-4.556 2.308c-.57.318-.895.875-.977 1.512l-.081 1.512L.976 22.092c-.57 0-.976.557-.976 1.114 0 .16.081.239.081.398l3.825 10.108c.244.637.895.955 1.546.796zm14.401-3.422c.733 0 1.384.637 1.384 1.353s-.651 1.353-1.384 1.353c-.732 0-1.383-.637-1.383-1.353s.651-1.353 1.383-1.353z" fill="url(#paint2_linear_923_3202)"/><path d="M7.974 12.223l-1.14 4.855-5.37 2.467c-.406.16-.406.557-.08.716l4.23 2.308-.976 6.845c-.082.319.244.557.65.16l5.534-5.572 5.695 1.035c.733.159.651-.319.489-.557l-2.686-5.253 4.15-6.447c.244-.398 0-.717-.407-.557l-6.834 2.706-2.686-3.025c-.244-.318-.488 0-.57.319z" fill="url(#paint3_linear_923_3202)"/><path d="M33.523 1.239l-.895.477-1.22-.238c-.326-.08-.326 0-.326.238l.163.876-1.058.875c-.163.16-.082.319.163.319l1.627-.08.814.876c.162.159.325.08.406-.08l.489-1.114 1.79-.557c.244 0 .244-.24 0-.24l-1.628-.477v-.716c0-.398-.162-.318-.325-.16z" fill="url(#paint4_linear_923_3202)"/><path d="M4.394 21.853l1.22.637-.976 6.845c-.081.318.244.557.65.159l5.534-5.572 5.695 1.035c.733.16.651-.318.489-.557l-1.79-3.502-10.822.955z" fill="url(#paint5_linear_923_3202)"/><path d="M21.725 8.72V3.706l-5.126 1.035c-.407.08-.407.557-.244.796l2.603 3.98 2.116-.08c.488 0 .65-.239.65-.717z" fill="url(#paint6_linear_923_3202)"/><path d="M70.707 23.604l1.872-8.277c-1.465-.319-2.93-.558-4.394-.558-2.36 0-4.069.558-5.37 2.07-2.197 2.467-2.848 6.128-3.987 7.959-.489.796-3.092 1.274-3.825.955 0 0 .163-1.035.407-1.83l.407-1.592c.244-1.035.407-2.07.488-3.104 0-3.662-3.173-4.378-5.695-4.378-1.872 0-3.662.398-5.37 1.114l.57 2.786c1.301-.557 2.684-.875 4.067-.875 1.872 0 2.441.716 2.441 1.75 0 .08 0 .399-.081.637h-1.383c-2.604 0-4.963.478-6.51 1.83-1.057.956-1.627 2.23-1.545 3.662-.082 1.99 1.464 3.74 3.58 3.82h.488c1.79-.08 3.417-.955 4.394-2.387.244 1.75 1.708 2.467 3.498 2.387 2.36-.08 6.347-.795 7.567-3.422 1.14-2.308 1.953-4.935 3.255-6.845.407-.716 1.22-1.114 2.034-1.114h.407l-1.302 5.65c-.488 1.99-.244 4.14.814 5.97l3.743-1.353a6.334 6.334 0 01-.489-4.855m-19.202-.398c-.407 1.672-1.871 2.866-3.58 3.025-.895 0-1.383-.398-1.383-1.274 0-.477.163-.955.57-1.273.65-.637 1.87-.955 3.742-.955h.814l-.163.477zm53.62.398l1.872-8.437h-3.824l-3.906 4.537c-.65.716-1.302 1.433-1.79 2.229h-.163a69.554 69.554 0 00-2.766-6.766h-3.174c-.732 3.662-1.545 7.562-2.522 9.313-.488.955-3.173 1.83-4.15 1.512.082-.716.245-1.353.407-2.07l.407-1.591c.244-1.035.407-2.07.488-3.104 0-3.662-3.173-4.378-5.695-4.378-1.872 0-3.662.398-5.37 1.114l.57 2.786c1.301-.557 2.684-.875 4.067-.875 1.872 0 2.441.716 2.441 1.75 0 .24 0 .399-.08.637h-1.384c-2.604 0-4.963.478-6.51 1.83-1.057.956-1.627 2.23-1.545 3.662-.082 1.99 1.464 3.74 3.58 3.82h.488c1.79-.08 3.417-.955 4.394-2.387.407 3.104 6.509 2.785 8.95 1.194 1.709-1.115 2.36-2.547 3.01-4.537.245-.796.489-1.671.651-2.468h.082c.732 1.592 1.383 3.582 1.871 5.015h1.709l2.604-3.025c.488-.557 1.22-1.432 1.627-1.99h.081c-.732 2.547-1.79 5.81-.081 8.437l3.906-1.432c-.57-1.592-.733-3.264-.245-4.776zm-23.596-.398c-.407 1.672-1.871 2.866-3.58 3.025-.895 0-1.465-.398-1.465-1.274 0-.477.163-.955.57-1.273.651-.637 1.871-.955 3.743-.955h.814l-.082.477zm52.644-8.277c-2.115-.478-3.987.159-5.696 2.467a4.47 4.47 0 00-.732-2.865l-3.417 1.273c.407.876.569 1.83.407 2.706l-1.546 7.084c-.895.477-3.58.716-3.906.318.163-1.034.57-2.467.895-3.661.244-1.035.407-2.07.488-3.104 0-3.661-3.173-4.378-5.695-4.378-1.872 0-3.662.398-5.37 1.115l.569 2.785c1.302-.557 2.685-.875 4.068-.875 1.872 0 2.441.716 2.441 1.75 0 .08 0 .399-.081.638h-1.383c-2.604 0-4.964.477-6.428 1.83-1.058.955-1.627 2.229-1.546 3.662-.081 1.99 1.465 3.74 3.58 3.82h.488c1.79-.08 3.418-.955 4.394-2.388-.081.876 3.011 3.343 6.916 1.91l-1.627 7.243h4.068l1.627-7.163a8.551 8.551 0 002.848.477c4.719 0 8.055-3.502 8.218-8.595.082-2.627-.813-5.413-3.336-5.97m-18.389 8.278c-.406 1.671-1.871 2.865-3.58 3.024-.895 0-1.383-.398-1.383-1.273 0-.478.163-.955.57-1.274.651-.636 1.871-.955 3.743-.955h.813l-.163.478zm17.494-1.99c-.081 2.627-1.709 4.935-4.475 4.935-.651 0-1.22-.16-1.79-.319l.57-3.104c.813-4.457 5.939-6.686 5.695-1.512zm4.557 7.88h4.068l1.22-5.253c.245-1.433.814-2.707 1.628-3.9.651-.956 1.627-1.592 2.848-1.672.732 0 1.057.398 1.057 1.114 0 .478-.081.955-.244 1.433l-1.871 8.277h4.068l1.221-5.253c.244-1.432.813-2.785 1.708-3.9.651-.955 1.628-1.591 2.848-1.671.651 0 1.058.398 1.058 1.114 0 .478-.081.955-.244 1.433l-1.221 5.412c-.325 1.274-.244 2.706.407 3.9l3.824-1.353a4.639 4.639 0 01-.162-2.785l1.139-5.015c.244-1.034.407-2.07.488-3.104 0-1.99-1.383-3.024-3.417-3.024-2.279 0-4.313 1.591-5.533 3.104h-.082c0-2.07-1.22-3.104-3.173-3.104-2.197 0-4.231 1.512-5.37 3.024h-.081c.162-1.114 0-2.228-.407-3.263l-3.58 1.273c.325.876.406 1.751.244 2.627l-2.441 10.585z" fill="url(#paint7_linear_923_3202)"/><path d="M41.171 8.96c-1.383 0-5.37 0-6.346 4.138l-3.662 16.078h4.72l3.173-14.407c.244-1.034.57-1.99 2.278-1.91h6.672l.732-3.9h-7.567z" fill="url(#paint8_linear_923_3202)"/><defs><linearGradient id="paint0_linear_923_3202" x1="7" y1="12.5" x2="145.5" y2="33" gradientUnits="userSpaceOnUse"><stop stop-color="#1436AC"/><stop offset="1" stop-color="#430063"/></linearGradient><linearGradient id="paint1_linear_923_3202" x1="7" y1="12.5" x2="145.5" y2="33" gradientUnits="userSpaceOnUse"><stop stop-color="#1436AC"/><stop offset="1" stop-color="#430063"/></linearGradient><linearGradient id="paint2_linear_923_3202" x1="7" y1="12.5" x2="145.5" y2="33" gradientUnits="userSpaceOnUse"><stop stop-color="#1436AC"/><stop offset="1" stop-color="#430063"/></linearGradient><linearGradient id="paint3_linear_923_3202" x1="7" y1="12.5" x2="145.5" y2="33" gradientUnits="userSpaceOnUse"><stop stop-color="#1436AC"/><stop offset="1" stop-color="#430063"/></linearGradient><linearGradient id="paint4_linear_923_3202" x1="7" y1="12.5" x2="145.5" y2="33" gradientUnits="userSpaceOnUse"><stop stop-color="#1436AC"/><stop offset="1" stop-color="#430063"/></linearGradient><linearGradient id="paint5_linear_923_3202" x1="7" y1="12.5" x2="145.5" y2="33" gradientUnits="userSpaceOnUse"><stop stop-color="#1436AC"/><stop offset="1" stop-color="#430063"/></linearGradient><linearGradient id="paint6_linear_923_3202" x1="7" y1="12.5" x2="145.5" y2="33" gradientUnits="userSpaceOnUse"><stop stop-color="#1436AC"/><stop offset="1" stop-color="#430063"/></linearGradient><linearGradient id="paint7_linear_923_3202" x1="7" y1="12.5" x2="145.5" y2="33" gradientUnits="userSpaceOnUse"><stop stop-color="#1436AC"/><stop offset="1" stop-color="#430063"/></linearGradient><linearGradient id="paint8_linear_923_3202" x1="7" y1="12.5" x2="145.5" y2="33" gradientUnits="userSpaceOnUse"><stop stop-color="#1436AC"/><stop offset="1" stop-color="#430063"/></linearGradient></defs></svg>