<svg width="131" height="124" fill="none" xmlns="http://www.w3.org/2000/svg"><path d="M100.451 46.3h21.115V122H9.434V46.3H30.48m57.143 0H43.49h43.644m27.888-25.228H129V46.3h-27.922m-71.122 0H2V21.07h13.864m58.113 9.821V122H57.023V30.892M58.38 15.2L26.034 2.17c-1.676-.683-3.534.796-5.062 2.628a17.928 17.928 0 00-3.99 9.696 45.02 45.02 0 000 9.275 17.803 17.803 0 004.024 9.718c1.55 1.832 3.42 3.3 5.108 2.595l32.71-13.656m-32.71 13.678l5.758 11.46a5.693 5.693 0 004.627 3.118 5.71 5.71 0 005.075-2.321c6.317-8.695 16.84-21.542 23.943-21.542m-39.973-14.93l-.308 1.353a32.1 32.1 0 00-.205 13.019l.513 2.651M72.62 15.2l32.334-13.03c1.688-.683 3.546.796 5.074 2.628a17.931 17.931 0 013.991 9.696 45.921 45.921 0 010 9.275 17.889 17.889 0 01-4.025 9.718c-1.551 1.832-3.421 3.3-5.108 2.595l-32.71-13.656m32.71 13.678l-5.7 11.46a5.693 5.693 0 01-4.628 3.118 5.71 5.71 0 01-5.075-2.321c-6.317-8.695-16.851-21.542-23.943-21.542m39.882-14.93l.308 1.353a31.71 31.71 0 01.205 13.019l-.513 2.651M58.254 19.57v-3.04c0-3.997 3.244-7.238 7.246-7.238 4.002 0 7.246 3.24 7.246 7.238v3.039c0 3.997-3.244 7.237-7.246 7.237-4.002 0-7.246-3.24-7.246-7.237z" stroke="url(#paint0_linear_904_2422)" stroke-width="3" stroke-linecap="round" stroke-linejoin="round"/><defs><linearGradient id="paint0_linear_904_2422" x1="65.5" y1="2" x2="65.5" y2="122" gradientUnits="userSpaceOnUse"><stop stop-color="#00F0FF"/><stop offset="1" stop-color="#C071FF"/></linearGradient></defs></svg>