<svg width="144" height="113" fill="none" xmlns="http://www.w3.org/2000/svg"><path d="M13.09 25.446V2.02m4.243 23.426V2.02m-2.121 23.717c-3.92 0-7.096-2.847-7.096-6.362V2.02h-3.55l-2.49 21.57a12.97 12.97 0 003.418 10.247l5.027 5.51a6.57 6.57 0 011.746 4.406v4.625l-3.479 55.408a6.677 6.677 0 002.721 5.689 6.052 6.052 0 007.346 0 6.605 6.605 0 002.72-5.689l-3.451-55.428v-4.625a6.55 6.55 0 011.752-4.406l5.02-5.51a12.969 12.969 0 003.42-10.247L25.824 2H22.28v17.355c0 3.515-3.176 6.362-7.096 6.362" stroke="url(#paint0_linear_904_2268)" stroke-width="3" stroke-linecap="round" stroke-linejoin="round"/><path d="M87.502 110.71c29.93 0 54.193-24.331 54.193-54.345S117.432 2.02 87.502 2.02c-29.93 0-54.193 24.33-54.193 54.345 0 30.014 24.264 54.345 54.193 54.345z" stroke="url(#paint1_linear_904_2268)" stroke-width="3" stroke-linecap="round" stroke-linejoin="round"/><path d="M87.502 92.754c20.041 0 36.287-16.292 36.287-36.39 0-20.096-16.246-36.388-36.287-36.388-20.04 0-36.286 16.292-36.286 36.389s16.246 36.389 36.286 36.389z" stroke="url(#paint2_linear_904_2268)" stroke-width="3" stroke-linecap="round" stroke-linejoin="round"/><defs><linearGradient id="paint0_linear_904_2268" x1="15.195" y1="2" x2="15.195" y2="110.718" gradientUnits="userSpaceOnUse"><stop stop-color="#00A3FF"/><stop offset="1" stop-color="#C071FF"/></linearGradient><linearGradient id="paint1_linear_904_2268" x1="87.502" y1="19.976" x2="87.502" y2="92.754" gradientUnits="userSpaceOnUse"><stop stop-color="#00A3FF"/><stop offset="1" stop-color="#C071FF"/></linearGradient><linearGradient id="paint2_linear_904_2268" x1="87.502" y1="19.976" x2="87.502" y2="92.754" gradientUnits="userSpaceOnUse"><stop stop-color="#00A3FF"/><stop offset="1" stop-color="#C071FF"/></linearGradient></defs></svg>