<svg width="52" height="51" fill="none" xmlns="http://www.w3.org/2000/svg"><g filter="url(#filter0_f_943_3905)"><path d="M35.648 38.228a2.5 2.5 0 103.536-3.536L29.99 25.5l9.193-9.192a2.5 2.5 0 10-3.536-3.536l-9.192 9.193-9.192-9.193a2.5 2.5 0 10-3.536 3.536L22.92 25.5l-9.192 9.192a2.5 2.5 0 103.536 3.536l9.192-9.193 9.192 9.193z" fill="url(#paint0_linear_943_3905)"/></g><path d="M35.648 38.228a2.5 2.5 0 103.536-3.536L29.99 25.5l9.193-9.192a2.5 2.5 0 10-3.536-3.536l-9.192 9.193-9.192-9.193a2.5 2.5 0 10-3.536 3.536L22.92 25.5l-9.192 9.192a2.5 2.5 0 103.536 3.536l9.192-9.193 9.192 9.193z" fill="url(#paint1_linear_943_3905)"/><defs><linearGradient id="paint0_linear_943_3905" x1="13.728" y1="12.772" x2="39.184" y2="38.228" gradientUnits="userSpaceOnUse"><stop stop-color="#00F0FF"/><stop offset="1" stop-color="#C071FF"/></linearGradient><linearGradient id="paint1_linear_943_3905" x1="13.728" y1="12.772" x2="39.184" y2="38.228" gradientUnits="userSpaceOnUse"><stop stop-color="#00F0FF"/><stop offset="1" stop-color="#C071FF"/></linearGradient><filter id="filter0_f_943_3905" x=".996" y=".04" width="50.92" height="50.92" filterUnits="userSpaceOnUse" color-interpolation-filters="sRGB"><feFlood flood-opacity="0" result="BackgroundImageFix"/><feBlend in="SourceGraphic" in2="BackgroundImageFix" result="shape"/><feGaussianBlur stdDeviation="6" result="effect1_foregroundBlur_943_3905"/></filter></defs></svg>