<svg width="138" height="109" fill="none" xmlns="http://www.w3.org/2000/svg"><path d="M30.38 48.63H8.85a6.849 6.849 0 110-13.7H129.2a6.85 6.85 0 010 13.7H67.85m61.75 0v11a35.61 35.61 0 01-35.61 35.61H44.1A35.61 35.61 0 018.49 59.63v-11m15 40.69v15.08a2.531 2.531 0 002.53 2.53 4.695 4.695 0 004.29-2.77l4.35-9.66m79.94-5.18v15.08a2.533 2.533 0 01-2.53 2.53 4.694 4.694 0 01-4.29-2.77l-4.35-9.66M31.27 34.94v30.71l35.8 7.05V34.94m56.54-.03V15.74a8.417 8.417 0 00-2.46-5.953 8.406 8.406 0 00-11.9 0 8.412 8.412 0 00-2.46 5.953v4.17m-35.68-.04a6.26 6.26 0 11-12.52 0 6.26 6.26 0 0112.52 0zm-20.03-8.94a8.93 8.93 0 11-17.86 0 8.93 8.93 0 0117.86 0z" stroke="url(#paint0_linear_904_2440)" stroke-width="3" stroke-linecap="round" stroke-linejoin="round"/><defs><linearGradient id="paint0_linear_904_2440" x1="69.025" y1="2" x2="69.025" y2="106.93" gradientUnits="userSpaceOnUse"><stop stop-color="#00F0FF"/><stop offset="1" stop-color="#C071FF"/></linearGradient></defs></svg>