<svg width="146" height="76" fill="none" xmlns="http://www.w3.org/2000/svg"><path d="M104.6 31.1H40.97v13.51h63.63V31.1z" stroke="url(#paint0_linear_915_2626)" stroke-width="3" stroke-linecap="round" stroke-linejoin="round"/><path d="M122.6 11a9 9 0 00-9-9 9 9 0 00-9 9v53.72a9 9 0 009 9 9 9 0 009-9V11z" stroke="url(#paint1_linear_915_2626)" stroke-width="3" stroke-linecap="round" stroke-linejoin="round"/><path d="M17.14 9.09h-.91a5.84 5.84 0 00-5.84 5.84V60.8a5.84 5.84 0 005.84 5.84h.91a5.84 5.84 0 005.84-5.84V14.93a5.84 5.84 0 00-5.84-5.84z" stroke="url(#paint2_linear_915_2626)" stroke-width="3" stroke-linecap="round" stroke-linejoin="round"/><path d="M129.35 9.09h-.91a5.84 5.84 0 00-5.84 5.84V60.8a5.84 5.84 0 005.84 5.84h.91a5.84 5.84 0 005.84-5.84V14.93a5.84 5.84 0 00-5.84-5.84z" stroke="url(#paint3_linear_915_2626)" stroke-width="3" stroke-linecap="round" stroke-linejoin="round"/><path d="M40.97 11a9 9 0 10-18 0v53.72a9 9 0 1018 0V11z" stroke="url(#paint4_linear_915_2626)" stroke-width="3" stroke-linecap="round" stroke-linejoin="round"/><path d="M7 31.28h3.39v13.16H7a5 5 0 01-5-5v-3.21a5 5 0 015-4.95z" stroke="url(#paint5_linear_915_2626)" stroke-width="3" stroke-linecap="round" stroke-linejoin="round"/><path d="M138.58 44.45h-3.39V31.27h3.39a5.002 5.002 0 015 5v3.25a5.002 5.002 0 01-5 5v-.07z" stroke="url(#paint6_linear_915_2626)" stroke-width="3" stroke-linecap="round" stroke-linejoin="round"/><defs><linearGradient id="paint0_linear_915_2626" x1="72.79" y1="2" x2="72.79" y2="73.72" gradientUnits="userSpaceOnUse"><stop stop-color="#00F0FF"/><stop offset="1" stop-color="#C071FF"/></linearGradient><linearGradient id="paint1_linear_915_2626" x1="72.79" y1="2" x2="72.79" y2="73.72" gradientUnits="userSpaceOnUse"><stop stop-color="#00F0FF"/><stop offset="1" stop-color="#C071FF"/></linearGradient><linearGradient id="paint2_linear_915_2626" x1="72.79" y1="2" x2="72.79" y2="73.72" gradientUnits="userSpaceOnUse"><stop stop-color="#00F0FF"/><stop offset="1" stop-color="#C071FF"/></linearGradient><linearGradient id="paint3_linear_915_2626" x1="72.79" y1="2" x2="72.79" y2="73.72" gradientUnits="userSpaceOnUse"><stop stop-color="#00F0FF"/><stop offset="1" stop-color="#C071FF"/></linearGradient><linearGradient id="paint4_linear_915_2626" x1="72.79" y1="2" x2="72.79" y2="73.72" gradientUnits="userSpaceOnUse"><stop stop-color="#00F0FF"/><stop offset="1" stop-color="#C071FF"/></linearGradient><linearGradient id="paint5_linear_915_2626" x1="72.79" y1="2" x2="72.79" y2="73.72" gradientUnits="userSpaceOnUse"><stop stop-color="#00F0FF"/><stop offset="1" stop-color="#C071FF"/></linearGradient><linearGradient id="paint6_linear_915_2626" x1="72.79" y1="2" x2="72.79" y2="73.72" gradientUnits="userSpaceOnUse"><stop stop-color="#00F0FF"/><stop offset="1" stop-color="#C071FF"/></linearGradient></defs></svg>