<svg width="144" height="142" fill="none" xmlns="http://www.w3.org/2000/svg"><path d="M26.556 16.723c-2.729 13.136-10.118 46.19-10.118 104.652h94.596c0-58.463-7.389-91.516-10.118-104.652a5.669 5.669 0 00-1.974-3.259 5.692 5.692 0 00-3.596-1.278h-63.22c-1.31 0-2.58.451-3.595 1.278a5.67 5.67 0 00-1.975 3.26zm0 0L2 21.623s5.593 18.15 17.155 31.761m81.955-35.697s47.747-15.721 40.05 65.858a3.193 3.193 0 01-1.377 2.337 3.211 3.211 0 01-2.681.443 3.407 3.407 0 01-2.467-3.403c.273-12.035-.432-60.97-30.445-47.936m-43.268 4.673h5.332m-5.332 11.48h5.332m-5.332 11.49h5.332m-5.332 11.479h5.332m-5.332 11.49h5.332M39.641 2h48.168a7.575 7.575 0 015.345 2.21 7.542 7.542 0 012.215 5.333v2.666H32.103V9.543c0-1.996.794-3.912 2.207-5.326A7.568 7.568 0 0139.64 2zM19.21 122.112h89.061a11.38 11.38 0 018.038 3.322 11.333 11.333 0 013.33 8.021V140H7.832v-6.534a11.326 11.326 0 013.33-8.032 11.38 11.38 0 018.05-3.322zm44.52-92.22h.01c5.444 0 9.857 4.404 9.857 9.835v55.785c0 5.432-4.413 9.835-9.856 9.835h-.012c-5.443 0-9.856-4.403-9.856-9.835V39.727c0-5.431 4.413-9.834 9.856-9.834z" stroke="url(#paint0_linear_912_2582)" stroke-width="3" stroke-linecap="round" stroke-linejoin="round"/><defs><linearGradient id="paint0_linear_912_2582" x1="72" y1="2" x2="72" y2="140" gradientUnits="userSpaceOnUse"><stop stop-color="#00F0FF"/><stop offset="1" stop-color="#C071FF"/></linearGradient></defs></svg>