<svg width="136" height="139" fill="none" xmlns="http://www.w3.org/2000/svg"><path d="M134 75.07l-12.886 11.535L108.34 75.07 95.454 86.605 82.669 75.07 69.783 86.605 56.998 75.07 44.112 86.605 31.338 75.07M2 81.177l14.405-11.545L30.69 81.177M2 69.632l14.405-11.546L30.69 69.632M134 86.605l-12.886 11.546-12.774-11.546-12.886 11.546-12.785-11.546-12.886 11.546-12.785-11.546-12.886 11.546-12.774-11.546m0 37.452V137m14.659-12.943V137m14.669-12.943V137M2 108.997v12.943m14.669-12.943v12.943m14.669-12.943v12.943m43.997 2.117V137m14.668-12.943V137m14.669-12.943V137m14.669-12.943V137M134 124.057V137m0-12.943H31.287V16.007M134 124.056V17.191c0-4.029-1.601-7.893-4.451-10.742A15.199 15.199 0 00118.804 2H31.287m.05 0H16.67m.02 0a14.673 14.673 0 0113.54 9.072 14.66 14.66 0 011.109 5.613v91.654H2V16.685a14.661 14.661 0 019.065-13.573A14.673 14.673 0 0116.689 2z" stroke="url(#paint0_linear_904_2281)" stroke-width="3" stroke-linecap="round" stroke-linejoin="round"/><defs><linearGradient id="paint0_linear_904_2281" x1="68" y1="2" x2="68" y2="137" gradientUnits="userSpaceOnUse"><stop stop-color="#00F0FF"/><stop offset="1" stop-color="#C071FF"/></linearGradient></defs></svg>