<svg width="155" height="113" fill="none" xmlns="http://www.w3.org/2000/svg"><path d="M77.5 12.918L25.222 79.455v26.87M77.5 12.918l52.278 66.537v26.87M77.5 12.918V2m52.278 104.325H25.222m104.556 0h18.348m-122.904 0H6.874M77.5 39.321v31.017m0 0L53.575 94.44v11.885M77.5 70.338l23.924 24.102v11.885m-91.944-.412L2 83.692m2.384 7.2s12.531-.841 20.838-11.41m120.298 26.431L153 83.692m-2.375 7.2s-12.54-.841-20.838-11.41M6.874 111h141.252" stroke="url(#paint0_linear_904_2404)" stroke-width="3" stroke-linecap="round" stroke-linejoin="round"/><defs><linearGradient id="paint0_linear_904_2404" x1="77.5" y1="2" x2="77.5" y2="111" gradientUnits="userSpaceOnUse"><stop stop-color="#00F0FF"/><stop offset="1" stop-color="#C071FF"/></linearGradient></defs></svg>