<svg width="154" height="139" viewBox="0 0 154 139" fill="none" xmlns="http://www.w3.org/2000/svg">
<path d="M5.82579 75.346L15.1292 131.761C15.3636 133.18 16.0942 134.47 17.1907 135.401C18.2872 136.332 19.6785 136.843 21.1169 136.844H66.5528C67.9911 136.843 69.3825 136.332 70.479 135.401C71.5755 134.47 72.306 133.18 72.5405 131.761L81.8439 75.346M49.1909 75.346V79.7608C49.1926 81.4413 48.5282 83.054 47.3434 84.2457C46.1585 85.4373 44.5497 86.111 42.8693 86.119C42.0341 86.1198 41.207 85.9559 40.4352 85.6366C39.6634 85.3174 38.9622 84.8491 38.3716 84.2585C37.781 83.668 37.3127 82.9667 36.9935 82.1949C36.6743 81.4232 36.5104 80.596 36.5112 79.7608V75.346M47.1384 84.4308L81.4491 118.742M79.9674 75.346C81.4798 75.346 82.9301 74.7453 83.9995 73.6759C85.0689 72.6065 85.6697 71.1561 85.6697 69.6438C85.6697 68.1315 85.0689 66.6811 83.9995 65.6117C82.9301 64.5423 81.4798 63.9415 79.9674 63.9415H7.70228C6.18994 63.9415 4.73952 64.5423 3.67014 65.6117C2.60076 66.6811 2 68.1315 2 69.6438C2 71.1561 2.60076 72.6065 3.67014 73.6759C4.73952 74.7453 6.18994 75.346 7.70228 75.346H79.9674Z" stroke="url(#paint0_linear_905_2471)" stroke-width="3" stroke-linecap="round" stroke-linejoin="round"/>
<path d="M116.404 31.9385V80.7327C111.152 80.7327 106.115 82.819 102.401 86.5328C98.687 90.2466 96.6005 95.2836 96.6005 100.536V111.624M96.6005 111.624L91.6513 129.12C91.3954 130.025 91.3533 130.978 91.5285 131.902C91.7037 132.827 92.0913 133.698 92.6607 134.447C93.2301 135.196 93.9658 135.802 94.8097 136.218C95.6536 136.635 96.5827 136.849 97.5236 136.844H145.929C146.867 136.844 147.793 136.626 148.633 136.208C149.473 135.79 150.205 135.183 150.771 134.435C151.337 133.686 151.722 132.817 151.895 131.895C152.069 130.973 152.026 130.023 151.771 129.12L146.828 111.624V100.536C146.828 95.2836 144.741 90.2466 141.028 86.5328C137.314 82.819 132.277 80.7327 127.025 80.7327V31.9385M96.6005 111.624L146.804 111.624M103.912 125.41V136.844M116.404 125.41V135.229M139.492 125.41V136.844M127 136.844V125.41M120.393 2H123.011C126.405 2 129.156 4.75147 129.156 8.14557V25.7928C129.156 29.187 126.405 31.9384 123.011 31.9384H120.393C116.999 31.9384 114.248 29.187 114.248 25.7928V8.14557C114.248 4.75147 116.999 2 120.393 2Z" stroke="url(#paint1_linear_905_2471)" stroke-width="3" stroke-linecap="round" stroke-linejoin="round"/>
<defs>
<linearGradient id="paint0_linear_905_2471" x1="43.8348" y1="63.9415" x2="43.8348" y2="136.844" gradientUnits="userSpaceOnUse">
<stop stop-color="#00F0FF"/>
<stop offset="1" stop-color="#C071FF"/>
</linearGradient>
<linearGradient id="paint1_linear_905_2471" x1="121.711" y1="2" x2="121.711" y2="136.844" gradientUnits="userSpaceOnUse">
<stop stop-color="#00F0FF"/>
<stop offset="1" stop-color="#C071FF"/>
</linearGradient>
</defs>
</svg>
