<svg width="144" height="113" viewBox="0 0 144 113" fill="none" xmlns="http://www.w3.org/2000/svg">
<path d="M13.0902 25.4464V2.01978M17.3329 25.4464V2.01978M15.2116 25.7372C11.2917 25.7372 8.11629 22.8897 8.11629 19.3751V2.01984H4.56536L2.07509 23.59C1.87471 25.4442 2.07653 27.3199 2.6667 29.0885C3.25687 30.8572 4.22143 32.4769 5.49427 33.8367L10.5209 39.3466C11.6304 40.5458 12.253 42.1173 12.2667 43.7531V48.3776L8.78827 103.786C8.73757 104.886 8.95956 105.981 9.43439 106.974C9.90921 107.967 10.6221 108.826 11.5091 109.475C12.5647 110.281 13.855 110.718 15.1819 110.718C16.5089 110.718 17.7992 110.281 18.8548 109.475C19.7453 108.829 20.4608 107.971 20.936 106.977C21.4112 105.984 21.6311 104.887 21.5756 103.786L18.1235 48.3578V43.7332C18.1371 42.0962 18.7624 40.5239 19.8759 39.3267L24.896 33.8169C26.1688 32.4571 27.1334 30.8373 27.7235 29.0687C28.3137 27.3001 28.5155 25.4244 28.3151 23.5702L25.8249 2H22.2805V19.3553C22.2805 22.8699 19.1051 25.7174 15.1852 25.7174" stroke="url(#paint0_linear_904_2268)" stroke-width="3" stroke-linecap="round" stroke-linejoin="round"/>
<path d="M87.5024 110.71C117.432 110.71 141.695 86.3788 141.695 56.3648C141.695 26.3509 117.432 2.01978 87.5024 2.01978C57.5725 2.01978 33.3094 26.3509 33.3094 56.3648C33.3094 86.3788 57.5725 110.71 87.5024 110.71Z" stroke="url(#paint1_linear_904_2268)" stroke-width="3" stroke-linecap="round" stroke-linejoin="round"/>
<path d="M87.5024 92.7535C107.543 92.7535 123.789 76.4618 123.789 56.3649C123.789 36.2681 107.543 19.9763 87.5024 19.9763C67.4618 19.9763 51.2157 36.2681 51.2157 56.3649C51.2157 76.4618 67.4618 92.7535 87.5024 92.7535Z" stroke="url(#paint2_linear_904_2268)" stroke-width="3" stroke-linecap="round" stroke-linejoin="round"/>
<defs>
<linearGradient id="paint0_linear_904_2268" x1="15.1951" y1="2" x2="15.1951" y2="110.718" gradientUnits="userSpaceOnUse">
<stop stop-color="#00A3FF"/>
<stop offset="1" stop-color="#C071FF"/>
</linearGradient>
<linearGradient id="paint1_linear_904_2268" x1="87.5024" y1="19.9763" x2="87.5024" y2="92.7535" gradientUnits="userSpaceOnUse">
<stop stop-color="#00A3FF"/>
<stop offset="1" stop-color="#C071FF"/>
</linearGradient>
<linearGradient id="paint2_linear_904_2268" x1="87.5024" y1="19.9763" x2="87.5024" y2="92.7535" gradientUnits="userSpaceOnUse">
<stop stop-color="#00A3FF"/>
<stop offset="1" stop-color="#C071FF"/>
</linearGradient>
</defs>
</svg>
