<svg width="152" height="113" viewBox="0 0 152 113" fill="none" xmlns="http://www.w3.org/2000/svg">
<path d="M8.67863 95.4611V101.667C8.67863 104.223 9.69398 106.675 11.5013 108.482C13.3087 110.289 15.7599 111.305 18.3159 111.305H31.278C33.834 111.305 36.2852 110.289 38.0926 108.482C39.8999 106.675 40.9153 104.223 40.9153 101.667V95.4611M11.6565 42.061L36.8291 52.662C38.0407 53.1723 39.0747 54.0289 39.8016 55.1243C40.5285 56.2198 40.9159 57.5055 40.9153 58.8202C40.9153 60.5915 40.2116 62.2902 38.9592 63.5427C37.7067 64.7952 36.0079 65.4988 34.2366 65.4988H2M24.8018 24.7525H14.3357C13.436 24.7525 12.5732 25.1099 11.937 25.7461C11.3008 26.3823 10.9434 27.2451 10.9434 28.1448V29.2723C10.9464 29.8961 11.13 30.5057 11.472 31.0273C11.8141 31.5489 12.2999 31.9604 12.8708 32.2117L18.8556 34.9004M128.749 30.7468L119.95 7.75235C119.252 5.93143 118.018 4.3651 116.411 3.26041C114.804 2.15573 112.899 1.56464 110.949 1.56519H40.7611C38.8109 1.56464 36.9065 2.15573 35.2993 3.26041C33.6922 4.3651 32.4581 5.93143 31.7599 7.75235L22.9707 30.7468M128.749 30.7468L146.896 48.8938C148.704 50.7007 149.719 53.1516 149.72 55.7074V85.8238C149.72 88.3798 148.705 90.8311 146.897 92.6384C145.09 94.4457 142.639 95.4611 140.083 95.4611H11.6373C9.0813 95.4611 6.63003 94.4457 4.8227 92.6384C3.01536 90.8311 2 88.3798 2 85.8238V55.7074C2.00055 53.1516 3.01626 50.7007 4.82373 48.8938L22.9707 30.7468M128.749 30.7468H22.9707M143.032 95.4611V101.667C143.032 102.933 142.782 104.186 142.298 105.356C141.814 106.525 141.104 107.587 140.209 108.482C139.314 109.377 138.252 110.087 137.082 110.571C135.913 111.055 134.66 111.305 133.394 111.305H120.432C117.876 111.305 115.425 110.289 113.618 108.482C111.81 106.675 110.795 104.223 110.795 101.667V95.4611M140.063 42.061L114.891 52.662C113.677 53.1698 112.64 54.0255 111.911 55.1213C111.182 56.2172 110.794 57.5042 110.795 58.8202C110.795 60.5915 111.499 62.2903 112.751 63.5428C114.004 64.7952 115.702 65.4988 117.474 65.4988H149.72M126.918 24.7525H137.384C138.283 24.7551 139.145 25.1132 139.78 25.7488C140.416 26.3845 140.774 27.246 140.777 28.1449V29.2724C140.775 29.8964 140.592 30.5065 140.25 31.0284C139.907 31.5503 139.421 31.9614 138.849 32.2118L132.864 34.9005M57.9539 77.6129H87.3476C89.9036 77.6129 92.3548 78.6283 94.1622 80.4356C95.9695 82.2429 96.9849 84.6942 96.9849 87.2502V95.4611H48.3167V87.2502C48.3167 84.6942 49.332 82.2429 51.1394 80.4356C52.9467 78.6283 55.398 77.6129 57.9539 77.6129ZM57 48.5179H94.6142V54.0497H57V48.5179Z" stroke="url(#paint0_linear_904_2377)" stroke-width="3" stroke-linecap="round" stroke-linejoin="round"/>
<defs>
<linearGradient id="paint0_linear_904_2377" x1="75.86" y1="1.56519" x2="75.86" y2="111.305" gradientUnits="userSpaceOnUse">
<stop stop-color="#00F0FF"/>
<stop offset="1" stop-color="#C071FF"/>
</linearGradient>
</defs>
</svg>
