<svg width="95" height="142" viewBox="0 0 95 142" fill="none" xmlns="http://www.w3.org/2000/svg">
<path d="M47.6648 77.2343C47.6648 77.2343 47.5352 49.2298 61.6393 30.6991M10.2699 77.2251H85.0504C89.6177 77.2251 93.3203 80.9277 93.3203 85.495V85.5042C93.3203 90.0715 89.6177 93.7741 85.0504 93.7741H10.2699C5.70254 93.7741 2 90.0715 2 85.5042V85.495C2 80.9277 5.70254 77.2251 10.2699 77.2251ZM72.3447 139.8H22.9386C21.8328 139.8 20.7636 139.403 19.9245 138.683C19.0854 137.963 18.5319 136.966 18.3638 135.873L10.6588 93.7833H84.5873L76.8824 135.873C76.7154 136.96 76.1671 137.952 75.3357 138.671C74.5044 139.391 73.444 139.791 72.3447 139.8ZM49.3873 56.6755C49.3873 56.6755 51.9895 29.1247 17.5858 24.9018C21.7532 58.9258 48.7483 56.7774 49.3873 56.6755ZM62.445 30.7176C62.445 30.7176 73.2337 43.7567 89.9401 30.7176C73.4282 17.7989 62.6857 30.4027 62.445 30.7176ZM61.241 29.4952C61.241 29.4952 74.2801 18.7064 61.241 2C48.3315 18.5212 60.9076 29.2545 61.241 29.4952Z" stroke="url(#paint0_linear_904_2431)" stroke-width="3" stroke-linecap="round" stroke-linejoin="round"/>
<defs>
<linearGradient id="paint0_linear_904_2431" x1="47.6601" y1="2" x2="47.6601" y2="139.8" gradientUnits="userSpaceOnUse">
<stop stop-color="#00F0FF"/>
<stop offset="1" stop-color="#C071FF"/>
</linearGradient>
</defs>
</svg>
