<svg width="116" height="142" viewBox="0 0 116 142" fill="none" xmlns="http://www.w3.org/2000/svg">
<path d="M58.1861 51.1269C64.1027 51.1269 66.2991 45.2262 66.1288 43.5273C65.9584 41.8285 61.7719 40.0213 58.1861 40.0213C54.6271 40.0213 50.4227 41.8556 50.2434 43.5273C50.0641 45.1991 52.2694 51.1269 58.1861 51.1269ZM58.1861 51.1269L58.1861 75.299M97.0837 98.7843C97.2092 96.6155 96.0348 85.6184 95.4163 82.5189C96.1522 82.66 96.8994 82.7325 97.6485 82.7358C100.878 82.6483 103.946 81.2936 106.199 78.9604C108.452 76.6271 109.713 73.4995 109.713 70.2432C109.713 66.9869 108.452 63.8592 106.199 61.5259C103.946 59.1926 100.878 57.838 97.6485 57.7505C95.3526 57.7346 93.0843 58.2541 91.0206 59.2683C88.957 60.2825 87.1539 61.764 85.7524 63.597M35.2456 130.059C40.8037 133.384 48.2532 135.264 58.1861 135.264C68.1189 135.264 75.4879 133.402 81.028 130.122M30.6915 63.6783C29.2354 61.8855 27.414 60.4292 25.3507 59.408C23.2873 58.3868 21.0304 57.8246 18.7327 57.7595C17.0771 57.7146 15.4293 58.0045 13.8867 58.6122C12.3441 59.2198 10.938 60.1328 9.75121 61.2973C8.56446 62.4618 7.62119 63.8542 6.97712 65.3922C6.33305 66.9303 6.00121 68.5828 6.00121 70.2522C6.00121 71.9216 6.33305 73.5742 6.97712 75.1122C7.62119 76.6502 8.56446 78.0426 9.75121 79.2071C10.938 80.3716 12.3441 81.2845 13.8867 81.8922C15.4293 82.4998 17.0771 82.7897 18.7327 82.7448C19.4818 82.7416 20.229 82.669 20.9649 82.528C20.3463 85.6184 19.172 96.5523 19.2885 98.6939M34.4388 116.459C31.0501 104.902 21.1801 97.1397 12.2244 99.7241C2.36328 102.552 -1.45566 119.053 5.67124 131.541C12.7981 144.029 24.8197 139.384 27.4195 138.029C29.5724 136.85 31.4138 135.168 32.7895 133.124C34.1651 131.08 35.035 128.734 35.3263 126.282M80.7053 126.236C81.0187 128.656 81.8962 130.966 83.2658 132.978C84.6354 134.99 86.4583 136.647 88.5852 137.812C91.185 139.176 103.198 143.821 110.333 131.333C117.469 118.845 113.606 102.335 103.78 99.5071C94.8157 96.9228 84.9545 104.694 81.5659 116.242M104.408 17.3673C104.405 13.8414 103.199 10.4238 100.991 7.68819C98.7844 4.95263 95.7109 3.06566 92.287 2.34402C88.863 1.62239 85.2969 2.11001 82.1874 3.72505C79.0779 5.3401 76.6142 7.98424 75.21 11.2136C69.9926 8.31771 64.1333 6.79912 58.1771 6.79912C52.221 6.79912 46.3617 8.31771 41.1443 11.2136C40.0945 8.79053 38.4419 6.68157 36.3466 5.09087C34.2513 3.50016 31.7841 2.48158 29.1838 2.13361C26.5834 1.78564 23.9381 2.1201 21.5036 3.10464C19.0691 4.08917 16.9279 5.69043 15.2872 7.75349C13.6465 9.81655 12.5619 12.2715 12.1383 14.8809C11.7147 17.4903 11.9664 20.1657 12.8692 22.6483C13.7719 25.1309 15.2951 27.3366 17.2913 29.052C19.2875 30.7673 21.6892 31.9342 24.2639 32.4398C23.3343 35.6702 22.8605 39.0163 22.8564 42.3798C22.8564 62.0428 38.6701 75.2627 58.1682 75.2627C77.6663 75.2627 93.4799 62.0428 93.4799 42.3798C93.4802 39.016 93.0064 35.6692 92.0725 32.4398C95.5442 31.7604 98.6734 29.8851 100.924 27.1352C103.174 24.3853 104.406 20.9321 104.408 17.3673ZM77.4422 35.9188C77.4422 37.5308 76.5792 38.8376 75.5148 38.8376C74.4503 38.8376 73.5874 37.5308 73.5874 35.9188C73.5874 34.3069 74.4503 33.0001 75.5148 33.0001C76.5792 33.0001 77.4422 34.3069 77.4422 35.9188ZM43.0448 35.9188C43.0448 37.5308 42.1819 38.8376 41.1174 38.8376C40.0529 38.8376 39.19 37.5308 39.19 35.9188C39.19 34.3069 40.0529 33.0001 41.1174 33.0001C42.1819 33.0001 43.0448 34.3069 43.0448 35.9188Z" stroke="url(#paint0_linear_904_2413)" stroke-width="3" stroke-linecap="round" stroke-linejoin="round"/>
<defs>
<linearGradient id="paint0_linear_904_2413" x1="58" y1="2" x2="58" y2="140" gradientUnits="userSpaceOnUse">
<stop stop-color="#00F0FF"/>
<stop offset="1" stop-color="#C071FF"/>
</linearGradient>
</defs>
</svg>
