<svg width="105" height="113" viewBox="0 0 105 113" fill="none" xmlns="http://www.w3.org/2000/svg">
<path d="M55.4916 34.6621V24.1431H1.52491V34.6621M55.4916 34.6621H1.52491M55.4916 34.6621L55.4915 45.8035C55.4908 46.8745 55.0979 47.9082 54.3871 48.7093L44.1311 60.2845C43.4192 61.0868 43.0263 62.1223 43.0266 63.1948V68.6953C43.0266 69.8578 42.5648 70.9725 41.7428 71.7945C40.9209 72.6165 39.8061 73.0782 38.6437 73.0782H18.3684C17.206 73.0782 16.0912 72.6165 15.2692 71.7945C14.4473 70.9725 13.9855 69.8578 13.9855 68.6953V63.1948C13.9858 62.1223 13.5928 61.0868 12.881 60.2845L2.62498 48.7093C1.91573 47.9075 1.52441 46.8739 1.52487 45.8035L1.52491 34.6621M16.1769 24.038V6.37487C16.1769 5.15433 15.692 3.98379 14.829 3.12073C13.9659 2.25768 12.7954 1.77283 11.5749 1.77283C10.3543 1.77283 9.18382 2.25768 8.32077 3.12073C7.45772 3.98379 6.97283 5.15433 6.97283 6.37487V24.038M50.048 24.038V6.37487C50.048 5.15433 49.5631 3.98379 48.7001 3.12073C47.837 2.25768 46.6665 1.77283 45.4459 1.77283C44.2254 1.77283 43.0548 2.25768 42.1918 3.12073C41.3287 3.98379 40.8439 5.15433 40.8439 6.37487V24.038M57.0606 111.437H41.6284C36.4074 111.43 31.4022 109.354 27.71 105.662C24.0178 101.971 21.9398 96.966 21.9317 91.7449V81.787H35.0804V91.7625C35.0885 93.4963 35.7811 95.1566 37.0074 96.3822C38.2338 97.6077 39.8946 98.2992 41.6284 98.3062H57.0606C58.7944 98.2992 60.4552 97.6077 61.6816 96.3822C62.908 95.1566 63.6006 93.4963 63.6087 91.7625V25.0679C63.5697 22.4569 64.0504 19.8641 65.0226 17.4405C65.9949 15.0169 67.4394 12.8109 69.272 10.9507C71.1047 9.09045 73.289 7.6132 75.6978 6.6049C78.1066 5.59659 80.6919 5.07735 83.3033 5.07735C85.9146 5.07735 88.4999 5.59659 90.9087 6.6049C93.3175 7.6132 95.5017 9.09045 97.3344 10.9507C99.1671 12.8109 100.612 15.0169 101.584 17.4405C102.556 19.8641 103.037 22.4569 102.998 25.0679V40.3774H89.8491V25.0679C89.8717 24.194 89.7191 23.3245 89.4003 22.5105C89.0815 21.6966 88.603 20.9547 87.9929 20.3286C87.3829 19.7025 86.6536 19.205 85.8481 18.8652C85.0427 18.5255 84.1774 18.3504 83.3033 18.3504C82.4291 18.3504 81.5637 18.5255 80.7583 18.8652C79.9529 19.205 79.2236 19.7025 78.6136 20.3286C78.0035 20.9547 77.5249 21.6966 77.2061 22.5105C76.8873 23.3245 76.7347 24.194 76.7574 25.0679V91.7449C76.7492 96.966 74.6714 101.971 70.9791 105.662C67.2869 109.354 62.2816 111.43 57.0606 111.437ZM18.3333 73.0782H38.6831V77.3779C38.6831 78.5403 38.2214 79.6551 37.3994 80.477C36.5774 81.299 35.4626 81.7607 34.3002 81.7607H22.7162C21.5538 81.7607 20.439 81.299 19.617 80.477C18.7951 79.6551 18.3333 78.5403 18.3333 77.3779V73.0695V73.0782Z" stroke="url(#paint0_linear_904_2359)" stroke-width="3" stroke-linecap="round" stroke-linejoin="round"/>
<path d="M19.4773 43.4673H37.5392M19.4773 49.7567H37.5392" stroke="url(#paint1_linear_904_2359)" stroke-width="3" stroke-linecap="round" stroke-linejoin="round"/>
<defs>
<linearGradient id="paint0_linear_904_2359" x1="52.2624" y1="1.77283" x2="52.2624" y2="111.437" gradientUnits="userSpaceOnUse">
<stop stop-color="#00F0FF"/>
<stop offset="1" stop-color="#C071FF"/>
</linearGradient>
<linearGradient id="paint1_linear_904_2359" x1="28.5082" y1="43.4673" x2="28.5082" y2="49.7567" gradientUnits="userSpaceOnUse">
<stop stop-color="#00F0FF"/>
<stop offset="1" stop-color="#C071FF"/>
</linearGradient>
</defs>
</svg>
