<svg width="156" height="140" viewBox="0 0 156 140" fill="none" xmlns="http://www.w3.org/2000/svg">
<path d="M148.488 73.4765L144.707 69.5519C144.215 69.0403 143.626 68.6321 142.974 68.351C142.322 68.07 141.621 67.9219 140.911 67.9152C140.201 67.9085 139.497 68.0434 138.84 68.3122C138.183 68.5809 137.587 68.978 137.085 69.4802L136.93 69.6238C136.427 70.1263 135.829 70.5236 135.171 70.7925C134.513 71.0614 133.808 71.1965 133.098 71.1898C132.387 71.1831 131.685 71.0347 131.032 70.7535C130.379 70.4723 129.789 70.0638 129.296 69.5519C128.804 69.0403 128.215 68.6321 127.563 68.351C126.911 68.07 126.21 67.9219 125.5 67.9152C124.79 67.9085 124.086 68.0434 123.429 68.3122C122.773 68.5809 122.176 68.978 121.674 69.4802L121.519 69.6238C121.017 70.126 120.42 70.5231 119.763 70.7918C119.106 71.0605 118.403 71.1955 117.693 71.1888C116.983 71.1821 116.282 71.0338 115.63 70.7528C114.978 70.4717 114.389 70.0635 113.897 69.5519C113.404 69.04 112.814 68.6315 112.161 68.3503C111.508 68.0691 110.806 67.9208 110.095 67.9142C109.384 67.9075 108.68 68.0426 108.022 68.3114C107.364 68.5803 106.766 68.9776 106.263 69.4802L106.108 69.6238C105.606 70.126 105.009 70.5231 104.352 70.7918C103.696 71.0605 102.992 71.1955 102.282 71.1888C101.572 71.1821 100.871 71.0338 100.219 70.7528C99.5671 70.4717 98.978 70.0635 98.4859 69.5519C97.9928 69.04 97.4028 68.6315 96.75 68.3503C96.0973 68.0691 95.3949 67.9208 94.6842 67.9142C93.9735 67.9075 93.2686 68.0426 92.6106 68.3114C91.9527 68.5803 91.3549 68.9776 90.8522 69.4802L86.844 73.4765M82.7161 68.0683L90.8522 59.944C91.3549 59.4414 91.9527 59.0441 92.6106 58.7752C93.2686 58.5063 93.9735 58.3714 94.6842 58.3781C95.3949 58.3848 96.0973 58.533 96.75 58.8142C97.4028 59.0954 97.9928 59.5039 98.4859 60.0158C98.978 60.5274 99.5671 60.9356 100.219 61.2167C100.871 61.4978 101.572 61.646 102.282 61.6527C102.992 61.6594 103.696 61.5243 104.352 61.2556C105.009 60.9868 105.606 60.5899 106.108 60.0877L106.263 59.944C106.766 59.4414 107.364 59.0441 108.022 58.7752C108.68 58.5063 109.384 58.3714 110.095 58.3781C110.806 58.3848 111.508 58.533 112.161 58.8142C112.814 59.0954 113.404 59.5039 113.897 60.0158C114.389 60.5274 114.978 60.9356 115.63 61.2167C116.282 61.4978 116.983 61.646 117.693 61.6527C118.403 61.6594 119.106 61.5243 119.763 61.2556C120.42 60.9868 121.017 60.5899 121.519 60.0877L121.674 59.944C122.176 59.4418 122.773 59.0448 123.429 58.7761C124.086 58.5074 124.79 58.3723 125.5 58.379C126.21 58.3856 126.911 58.5339 127.563 58.8149C128.215 59.096 128.804 59.5043 129.296 60.0158C129.789 60.5277 130.379 60.9362 131.032 61.2174C131.685 61.4986 132.387 61.6469 133.098 61.6536C133.808 61.6602 134.513 61.5253 135.171 61.2564C135.829 60.9875 136.427 60.5902 136.93 60.0877L137.097 59.9202C137.598 59.4198 138.194 59.0242 138.85 58.7565C139.506 58.4889 140.209 58.3545 140.917 58.3611C141.625 58.3678 142.325 58.5155 142.976 58.7955C143.627 59.0755 144.215 59.4821 144.707 59.9919L150.151 65.6035M152.987 35.6911L150.51 33.1186C150.018 32.6077 149.429 32.1997 148.778 31.9186C148.126 31.6374 147.426 31.4886 146.717 31.4808C146.007 31.473 145.303 31.6064 144.646 31.8731C143.989 32.1399 143.391 32.5348 142.888 33.0347L142.733 33.1903C142.231 33.6925 141.634 34.0896 140.977 34.3583C140.32 34.627 139.616 34.7621 138.907 34.7554C138.197 34.7487 137.496 34.6005 136.844 34.3195C136.192 34.0384 135.603 33.6301 135.111 33.1186C134.618 32.6073 134.028 32.1992 133.376 31.9178C132.723 31.6365 132.022 31.4876 131.312 31.4798C130.601 31.472 129.897 31.6055 129.238 31.8724C128.58 32.1393 127.982 32.5344 127.477 33.0347L127.322 33.1903C126.82 33.6925 126.223 34.0896 125.566 34.3583C124.909 34.627 124.206 34.7621 123.496 34.7554C122.786 34.7487 122.085 34.6005 121.433 34.3195C120.781 34.0384 120.192 33.6301 119.7 33.1186C119.207 32.6073 118.617 32.1992 117.965 31.9178C117.312 31.6365 116.611 31.4876 115.901 31.4798C115.19 31.472 114.486 31.6055 113.827 31.8724C113.169 32.1393 112.571 32.5344 112.066 33.0347L111.911 33.1903C111.409 33.6925 110.812 34.0896 110.155 34.3583C109.499 34.627 108.795 34.7621 108.085 34.7554C107.375 34.7487 106.674 34.6005 106.022 34.3195C105.37 34.0384 104.781 33.6301 104.289 33.1186C103.796 32.6073 103.206 32.1992 102.554 31.9178C101.902 31.6365 101.2 31.4876 100.49 31.4798C99.7794 31.472 99.0746 31.6055 98.4164 31.8724C97.7581 32.1393 97.1596 32.5344 96.6554 33.0347L94.5376 35.1526M95.3391 24.8147L96.6554 23.4986C97.1596 22.9983 97.7581 22.6032 98.4164 22.3363C99.0746 22.0694 99.7794 21.9359 100.49 21.9437C101.2 21.9515 101.902 22.1004 102.554 22.3817C103.206 22.663 103.796 23.0712 104.289 23.5825C104.782 24.0926 105.371 24.4994 106.023 24.7795C106.675 25.0597 107.376 25.2074 108.085 25.2141C108.794 25.2207 109.498 25.0863 110.154 24.8185C110.811 24.5507 111.408 24.1549 111.911 23.6542L112.066 23.4986C112.571 22.9983 113.169 22.6032 113.827 22.3363C114.486 22.0694 115.19 21.9359 115.901 21.9437C116.611 21.9515 117.312 22.1004 117.965 22.3817C118.617 22.663 119.207 23.0712 119.7 23.5825C120.193 24.0926 120.782 24.4994 121.434 24.7795C122.086 25.0597 122.786 25.2074 123.496 25.2141C124.205 25.2207 124.909 25.0863 125.565 24.8185C126.222 24.5507 126.819 24.1549 127.322 23.6542L127.477 23.4986C127.982 22.9983 128.58 22.6032 129.238 22.3363C129.897 22.0694 130.601 21.9359 131.312 21.9437C132.022 21.9515 132.723 22.1004 133.376 22.3817C134.028 22.663 134.618 23.0712 135.111 23.5825C135.604 24.0926 136.193 24.4994 136.845 24.7795C137.496 25.0597 138.197 25.2074 138.907 25.2141C139.616 25.2207 140.32 25.0863 140.976 24.8185C141.633 24.5507 142.23 24.1549 142.733 23.6542L142.9 23.4866C143.397 22.9816 143.989 22.5806 144.642 22.3068C145.295 22.033 145.997 21.892 146.705 21.892C147.413 21.892 148.115 22.033 148.768 22.3068C149.421 22.5806 150.013 22.9816 150.51 23.4866L152.556 25.6045M104.325 96.1143V104.382M116.242 96.1143V104.382M128.147 96.1143V104.382M140.064 96.1143V104.382M148.021 103.126L146.609 85.956C146.609 85.956 154.578 45.275 153.944 35.0808C153.31 24.8866 150.043 6.67582 127.262 3.08632C104.481 -0.503186 99.3236 5.74248 97.7681 8.24317C96.2127 10.7439 93.0779 36.0259 95.2675 47.5722C95.2675 47.5722 80.9094 31.6468 71.7083 37.8925C62.5072 44.1383 76.231 56.1511 77.6908 58.3407C79.1505 60.5303 85.3365 73.632 87.3706 76.2882C89.4046 78.9444 97.2058 85.4894 97.2058 85.4894L94.8128 103.126C94.8128 103.126 111.205 105.626 122.129 105.626C133.053 105.626 148.021 103.126 148.021 103.126Z" stroke="url(#paint0_linear_904_2350)" stroke-width="3" stroke-linecap="round" stroke-linejoin="round"/>
<path d="M7.49205 66.0462L11.273 69.9707C11.7651 70.4822 12.3541 70.8905 13.0059 71.1715C13.6576 71.4526 14.359 71.6008 15.0688 71.6075C15.7785 71.6142 16.4825 71.4793 17.1394 71.2105C17.7964 70.9418 18.3932 70.5447 18.8947 70.0425L19.0503 69.887C19.5545 69.3867 20.1531 68.9916 20.8113 68.7246C21.4696 68.4577 22.1743 68.3242 22.8846 68.332C23.5949 68.3398 24.2964 68.4887 24.9487 68.7701C25.6009 69.0514 26.1907 69.4594 26.6838 69.9707C27.1759 70.4822 27.765 70.8905 28.4168 71.1715C29.0686 71.4526 29.77 71.6008 30.4797 71.6075C31.1895 71.6142 31.8934 71.4793 32.5504 71.2105C33.2073 70.9418 33.8041 70.5447 34.3057 70.0425L34.4611 69.887C34.9653 69.3867 35.564 68.9916 36.2223 68.7246C36.8805 68.4577 37.5853 68.3242 38.2955 68.332C39.0058 68.3398 39.7074 68.4887 40.3596 68.7701C41.0119 69.0514 41.6017 69.4594 42.0948 69.9707C42.5868 70.4822 43.176 70.8905 43.8278 71.1715C44.4795 71.4526 45.1809 71.6008 45.8907 71.6075C46.6004 71.6142 47.3044 71.4793 47.9613 71.2105C48.6183 70.9418 49.2149 70.5447 49.7165 70.0425L49.8721 69.887C50.3752 69.387 50.9729 68.9922 51.6301 68.7254C52.2874 68.4586 52.9912 68.3251 53.7005 68.3329C54.4098 68.3407 55.1104 68.4896 55.7617 68.7708C56.4129 69.052 57.0017 69.4598 57.4938 69.9707C57.9868 70.4826 58.577 70.8912 59.2298 71.1724C59.8826 71.4536 60.5849 71.6019 61.2956 71.6085C62.0064 71.6152 62.7113 71.4801 63.3692 71.2113C64.0271 70.9424 64.6248 70.5451 65.1274 70.0425L69.1358 66.0462M73.2637 71.4545L65.1274 79.5786C64.6248 80.0811 64.0271 80.4785 63.3692 80.7474C62.7113 81.0162 62.0064 81.1513 61.2956 81.1446C60.5849 81.1379 59.8826 80.9897 59.2298 80.7085C58.577 80.4273 57.9868 80.0188 57.4938 79.5069C57.0017 78.9953 56.4127 78.5871 55.7609 78.306C55.1092 78.0249 54.4078 77.8767 53.698 77.87C52.9883 77.8633 52.2843 77.9983 51.6274 78.267C50.9704 78.5357 50.3736 78.9328 49.8721 79.435L49.7165 79.5786C49.2149 80.0808 48.6183 80.4779 47.9613 80.7466C47.3044 81.0153 46.6004 81.1503 45.8907 81.1436C45.1809 81.1369 44.4795 80.9888 43.8278 80.7078C43.176 80.4267 42.5868 80.0184 42.0948 79.5069C41.6017 78.995 41.0117 78.5865 40.3589 78.3053C39.7061 78.0241 39.0038 77.8757 38.2931 77.869C37.5823 77.8623 36.8774 77.9974 36.2195 78.2663C35.5615 78.5352 34.9637 78.9325 34.4611 79.435L34.3057 79.5786C33.8041 80.0808 33.2073 80.4779 32.5504 80.7466C31.8934 81.0153 31.1895 81.1503 30.4797 81.1436C29.77 81.1369 29.0686 80.9888 28.4168 80.7078C27.765 80.4267 27.1759 80.0184 26.6838 79.5069C26.1908 78.995 25.6007 78.5865 24.9479 78.3053C24.2952 78.0241 23.5928 77.8757 22.8821 77.869C22.1714 77.8623 21.4665 77.9974 20.8085 78.2663C20.1506 78.5352 19.5529 78.9325 19.0503 79.435L18.8828 79.5906C18.3861 80.0956 17.7938 80.4968 17.1406 80.7706C16.4873 81.0444 15.7861 81.1854 15.0778 81.1854C14.3695 81.1854 13.6683 81.0444 13.0151 80.7706C12.3618 80.4968 11.7697 80.0956 11.273 79.5906L5.82889 73.9791M2.99319 103.832L5.46988 106.404C5.96193 106.916 6.55109 107.324 7.20286 107.605C7.85462 107.886 8.55601 108.034 9.26577 108.041C9.97552 108.048 10.6795 107.913 11.3364 107.644C11.9934 107.375 12.59 106.978 13.0916 106.476L13.2471 106.332C13.7498 105.83 14.3476 105.433 15.0055 105.164C15.6635 104.895 16.3684 104.76 17.0791 104.766C17.7898 104.773 18.492 104.921 19.1448 105.203C19.7976 105.484 20.3878 105.892 20.8808 106.404C21.3729 106.916 21.962 107.324 22.6138 107.605C23.2656 107.886 23.967 108.034 24.6767 108.041C25.3865 108.048 26.0904 107.913 26.7474 107.644C27.4043 107.375 28.001 106.978 28.5025 106.476L28.6581 106.332C29.1597 105.83 29.7565 105.433 30.4134 105.164C31.0704 104.896 31.7743 104.761 32.4841 104.767C33.1938 104.774 33.8951 104.922 34.5468 105.203C35.1986 105.484 35.7878 105.893 36.2798 106.404C36.7729 106.916 37.3631 107.325 38.0158 107.606C38.6686 107.887 39.3709 108.035 40.0817 108.042C40.7924 108.049 41.4973 107.914 42.1553 107.645C42.8132 107.376 43.4109 106.978 43.9135 106.476L44.069 106.332C44.5706 105.83 45.1674 105.433 45.8244 105.164C46.4813 104.896 47.1853 104.761 47.895 104.767C48.6048 104.774 49.306 104.922 49.9578 105.203C50.6096 105.484 51.1987 105.893 51.6908 106.404C52.1838 106.916 52.774 107.325 53.4268 107.606C54.0796 107.887 54.7819 108.035 55.4926 108.042C56.2034 108.049 56.9083 107.914 57.5662 107.645C58.2241 107.376 58.8218 106.978 59.3244 106.476L61.4423 104.358M60.6406 114.708L59.3244 116.012C58.8218 116.515 58.2241 116.912 57.5662 117.181C56.9083 117.45 56.2034 117.585 55.4926 117.578C54.7819 117.571 54.0796 117.423 53.4268 117.142C52.774 116.861 52.1838 116.452 51.6908 115.94C51.1987 115.429 50.6096 115.02 49.9578 114.739C49.306 114.458 48.6048 114.31 47.895 114.303C47.1853 114.297 46.4813 114.432 45.8244 114.701C45.1674 114.969 44.5706 115.366 44.069 115.869L43.9135 116.012C43.4109 116.515 42.8132 116.912 42.1553 117.181C41.4973 117.45 40.7924 117.585 40.0817 117.578C39.3709 117.571 38.6686 117.423 38.0158 117.142C37.3631 116.861 36.7729 116.452 36.2798 115.94C35.7878 115.429 35.1986 115.02 34.5468 114.739C33.8951 114.458 33.1938 114.31 32.4841 114.303C31.7743 114.297 31.0704 114.432 30.4134 114.701C29.7565 114.969 29.1597 115.366 28.6581 115.869L28.5025 116.012C28.001 116.514 27.4043 116.911 26.7474 117.18C26.0904 117.449 25.3865 117.584 24.6767 117.577C23.967 117.57 23.2656 117.422 22.6138 117.141C21.962 116.86 21.3729 116.452 20.8808 115.94C20.3878 115.428 19.7976 115.02 19.1448 114.739C18.492 114.457 17.7898 114.309 17.0791 114.303C16.3684 114.296 15.6635 114.431 15.0055 114.7C14.3476 114.969 13.7498 115.366 13.2471 115.869L13.0796 116.024C12.583 116.529 11.9908 116.93 11.3376 117.204C10.6843 117.478 9.98313 117.619 9.27482 117.619C8.56652 117.619 7.86531 117.478 7.21206 117.204C6.55881 116.93 5.96652 116.529 5.46988 116.024L3.42391 113.918M51.6669 43.4203V35.1525M39.7497 43.4203V35.1525M27.8326 43.4203V35.1525M15.9274 43.4203V35.1525M7.95871 36.3849L9.3705 53.5547C9.3705 53.5547 1.40179 94.2956 2.03594 104.43C2.67008 114.564 5.93659 132.835 28.718 136.424C51.4994 140.014 56.6563 133.78 58.2118 131.28C59.7672 128.779 62.902 103.497 60.7124 91.9504C60.7124 91.9504 75.0704 107.864 84.2835 101.63C93.4965 95.3964 79.7487 83.3715 78.301 81.1819C76.8532 78.9923 70.6553 65.8906 68.6213 63.2343C66.5872 60.5781 58.7861 54.0213 58.7861 54.0213L61.1791 36.3849C61.1791 36.3849 44.7989 33.8962 33.8748 33.8962C22.9508 33.8962 7.95871 36.3849 7.95871 36.3849Z" stroke="url(#paint1_linear_904_2350)" stroke-width="3" stroke-linecap="round" stroke-linejoin="round"/>
<defs>
<linearGradient id="paint0_linear_904_2350" x1="111.268" y1="2" x2="111.268" y2="105.626" gradientUnits="userSpaceOnUse">
<stop stop-color="#00F0FF"/>
<stop offset="1" stop-color="#C071FF"/>
</linearGradient>
<linearGradient id="paint1_linear_904_2350" x1="44.7196" y1="33.8962" x2="44.7196" y2="137.512" gradientUnits="userSpaceOnUse">
<stop stop-color="#00F0FF"/>
<stop offset="1" stop-color="#C071FF"/>
</linearGradient>
</defs>
</svg>
