<svg width="1020" height="279" viewBox="0 0 1020 279" fill="none" xmlns="http://www.w3.org/2000/svg">
<g filter="url(#filter0_f_903_2225)">
<ellipse cx="510" cy="124.5" rx="360" ry="10.5" fill="url(#paint0_linear_903_2225)"/>
</g>
<g filter="url(#filter1_f_903_2225)">
<ellipse cx="510" cy="139.5" rx="402" ry="31.5" fill="url(#paint1_linear_903_2225)"/>
</g>
<g filter="url(#filter2_f_903_2225)">
<path fill-rule="evenodd" clip-rule="evenodd" d="M283.941 158.208C279.333 158.208 275.205 157.152 271.557 155.04C267.973 152.864 265.125 149.888 263.013 146.112C260.901 142.272 259.845 137.92 259.845 133.056C259.845 128.128 260.901 123.808 263.013 120.096C265.125 116.32 267.973 113.376 271.557 111.264C275.205 109.088 279.333 108 283.941 108C288.549 108 292.677 109.088 296.325 111.264C299.973 113.376 302.821 116.32 304.869 120.096C306.981 123.808 308.037 128.128 308.037 133.056C308.037 137.92 306.981 142.272 304.869 146.112C302.821 149.888 299.973 152.864 296.325 155.04C292.677 157.152 288.549 158.208 283.941 158.208ZM283.941 156.384C288.165 156.384 291.941 155.392 295.269 153.408C298.661 151.424 301.317 148.672 303.237 145.152C305.157 141.632 306.117 137.6 306.117 133.056C306.117 128.448 305.157 124.416 303.237 120.96C301.317 117.44 298.661 114.72 295.269 112.8C291.941 110.816 288.165 109.824 283.941 109.824C279.717 109.824 275.941 110.816 272.613 112.8C269.285 114.72 266.629 117.44 264.645 120.96C262.725 124.416 261.765 128.448 261.765 133.056C261.765 137.6 262.725 141.632 264.645 145.152C266.629 148.672 269.285 151.424 272.613 153.408C275.941 155.392 279.717 156.384 283.941 156.384Z" fill="url(#paint2_linear_903_2225)"/>
<path fill-rule="evenodd" clip-rule="evenodd" d="M408.553 158.208C403.753 158.208 399.497 157.152 395.785 155.04C392.073 152.864 389.129 149.888 386.953 146.112C384.841 142.272 383.785 137.92 383.785 133.056C383.785 128.128 384.777 123.808 386.761 120.096C388.745 116.32 391.465 113.376 394.921 111.264C398.441 109.088 402.377 108 406.729 108C411.081 108 414.985 109.056 418.441 111.168C421.961 113.216 424.713 116.096 426.697 119.808C428.745 123.52 429.769 127.776 429.769 132.576V133.056H385.609C385.609 137.6 386.601 141.632 388.585 145.152C390.569 148.672 393.289 151.424 396.745 153.408C400.201 155.392 404.137 156.384 408.553 156.384C411.881 156.384 415.017 155.744 417.961 154.464C420.969 153.184 423.465 151.264 425.449 148.704L426.793 150.048C424.617 152.736 421.929 154.784 418.729 156.192C415.529 157.536 412.137 158.208 408.553 158.208ZM388.297 120.96C386.705 124.03 385.82 127.454 385.642 131.232H427.91C427.726 127.454 426.81 124.03 425.161 120.96C423.305 117.504 420.777 114.784 417.577 112.8C414.441 110.816 410.825 109.824 406.729 109.824C402.697 109.824 399.081 110.816 395.881 112.8C392.681 114.784 390.153 117.504 388.297 120.96Z" fill="url(#paint3_linear_903_2225)"/>
<path fill-rule="evenodd" clip-rule="evenodd" d="M447.628 124.416L448.396 108.288H480.844V156.192H489.1V170.784H487.18V157.92H436.588V170.784H434.668V156.192H437.824C439.553 156.082 440.997 155.282 442.156 153.792C443.5 152 444.524 149.568 445.228 146.496C445.932 143.424 446.444 139.968 446.764 136.128C447.148 132.288 447.436 128.384 447.628 124.416ZM443.98 153.888C443.299 154.91 442.509 155.678 441.61 156.192H478.924V110.112H450.22L449.548 124.416C449.356 128.192 449.068 132 448.684 135.84C448.364 139.616 447.82 143.104 447.052 146.304C446.348 149.44 445.324 151.968 443.98 153.888Z" fill="url(#paint4_linear_903_2225)"/>
<path fill-rule="evenodd" clip-rule="evenodd" d="M524.24 158.208C519.44 158.208 515.184 157.152 511.472 155.04C507.76 152.864 504.816 149.888 502.64 146.112C500.528 142.272 499.472 137.92 499.472 133.056C499.472 128.128 500.464 123.808 502.448 120.096C504.432 116.32 507.152 113.376 510.608 111.264C514.128 109.088 518.064 108 522.416 108C526.768 108 530.672 109.056 534.128 111.168C537.648 113.216 540.4 116.096 542.384 119.808C544.432 123.52 545.456 127.776 545.456 132.576V133.056H501.296C501.296 137.6 502.288 141.632 504.272 145.152C506.256 148.672 508.976 151.424 512.432 153.408C515.888 155.392 519.824 156.384 524.24 156.384C527.568 156.384 530.704 155.744 533.648 154.464C536.656 153.184 539.152 151.264 541.136 148.704L542.48 150.048C540.304 152.736 537.616 154.784 534.416 156.192C531.216 157.536 527.824 158.208 524.24 158.208ZM503.984 120.96C502.392 124.03 501.507 127.454 501.33 131.232H543.598C543.414 127.454 542.497 124.03 540.848 120.96C538.992 117.504 536.464 114.784 533.264 112.8C530.128 110.816 526.512 109.824 522.416 109.824C518.384 109.824 514.768 110.816 511.568 112.8C508.368 114.784 505.84 117.504 503.984 120.96Z" fill="url(#paint5_linear_903_2225)"/>
<path d="M550.163 156L549.779 157.728C550.355 157.856 550.899 157.952 551.411 158.016C551.923 158.144 552.435 158.208 552.947 158.208C555.379 158.208 557.363 157.312 558.899 155.52C560.435 153.664 561.619 151.168 562.451 148.032C563.283 144.896 563.891 141.344 564.275 137.376C564.723 133.344 565.075 129.184 565.331 124.896L566.153 110.112H594.995V157.92H596.915V108.288H564.275L563.411 124.512C563.219 128.544 562.931 132.48 562.547 136.32C562.227 140.096 561.683 143.52 560.915 146.592C560.211 149.6 559.187 152 557.843 153.792C556.499 155.52 554.739 156.384 552.563 156.384C552.243 156.384 551.859 156.352 551.411 156.288C550.963 156.16 550.547 156.064 550.163 156Z" fill="url(#paint6_linear_903_2225)"/>
<path fill-rule="evenodd" clip-rule="evenodd" d="M637.262 127.104C643.342 127.168 647.95 128.48 651.086 131.04C654.286 133.6 655.886 137.376 655.886 142.368C655.886 147.552 654.222 151.488 650.894 154.176C647.63 156.864 642.798 158.176 636.398 158.112L619.406 157.92V108.288H621.326V126.912L637.262 127.104ZM636.59 156.384C642.35 156.448 646.67 155.296 649.55 152.928C652.494 150.56 653.966 147.072 653.966 142.464C653.966 137.92 652.526 134.528 649.646 132.288C646.766 130.048 642.414 128.896 636.59 128.832L621.326 128.64V156.192L636.59 156.384Z" fill="url(#paint7_linear_903_2225)"/>
<path d="M775.039 111.552L736.255 157.92H734.719V108.288H736.639V154.656L775.423 108.288H776.959V157.92H775.039V111.552Z" fill="url(#paint8_linear_903_2225)"/>
<path d="M814.585 133.536L836.558 157.92H838.862L816.129 132.567L837.326 108.288H835.022L814.558 131.808H801.326V108.288H799.406V157.92H801.326V133.536H814.585Z" fill="url(#paint9_linear_903_2225)"/>
<path d="M201 157.92V108.288H242.664V157.92H240.744V110.112H202.92V157.92H201Z" fill="url(#paint10_linear_903_2225)"/>
<path d="M325.312 108.288V157.92H327.233V133.728H364.577V157.92H366.497V108.288H364.577V132H327.233V108.288H325.312Z" fill="url(#paint11_linear_903_2225)"/>
<path d="M671.062 108.288V157.92H672.983V133.728H710.326V157.92H712.247V108.288H710.326V132H672.983V108.288H671.062Z" fill="url(#paint12_linear_903_2225)"/>
</g>
<g filter="url(#filter3_f_903_2225)">
<path fill-rule="evenodd" clip-rule="evenodd" d="M283.941 158.208C279.333 158.208 275.205 157.152 271.557 155.04C267.973 152.864 265.125 149.888 263.013 146.112C260.901 142.272 259.845 137.92 259.845 133.056C259.845 128.128 260.901 123.808 263.013 120.096C265.125 116.32 267.973 113.376 271.557 111.264C275.205 109.088 279.333 108 283.941 108C288.549 108 292.677 109.088 296.325 111.264C299.973 113.376 302.821 116.32 304.869 120.096C306.981 123.808 308.037 128.128 308.037 133.056C308.037 137.92 306.981 142.272 304.869 146.112C302.821 149.888 299.973 152.864 296.325 155.04C292.677 157.152 288.549 158.208 283.941 158.208ZM283.941 156.384C288.165 156.384 291.941 155.392 295.269 153.408C298.661 151.424 301.317 148.672 303.237 145.152C305.157 141.632 306.117 137.6 306.117 133.056C306.117 128.448 305.157 124.416 303.237 120.96C301.317 117.44 298.661 114.72 295.269 112.8C291.941 110.816 288.165 109.824 283.941 109.824C279.717 109.824 275.941 110.816 272.613 112.8C269.285 114.72 266.629 117.44 264.645 120.96C262.725 124.416 261.765 128.448 261.765 133.056C261.765 137.6 262.725 141.632 264.645 145.152C266.629 148.672 269.285 151.424 272.613 153.408C275.941 155.392 279.717 156.384 283.941 156.384Z" fill="url(#paint13_linear_903_2225)"/>
<path fill-rule="evenodd" clip-rule="evenodd" d="M408.553 158.208C403.753 158.208 399.497 157.152 395.785 155.04C392.073 152.864 389.129 149.888 386.953 146.112C384.841 142.272 383.785 137.92 383.785 133.056C383.785 128.128 384.777 123.808 386.761 120.096C388.745 116.32 391.465 113.376 394.921 111.264C398.441 109.088 402.377 108 406.729 108C411.081 108 414.985 109.056 418.441 111.168C421.961 113.216 424.713 116.096 426.697 119.808C428.745 123.52 429.769 127.776 429.769 132.576V133.056H385.609C385.609 137.6 386.601 141.632 388.585 145.152C390.569 148.672 393.289 151.424 396.745 153.408C400.201 155.392 404.137 156.384 408.553 156.384C411.881 156.384 415.017 155.744 417.961 154.464C420.969 153.184 423.465 151.264 425.449 148.704L426.793 150.048C424.617 152.736 421.929 154.784 418.729 156.192C415.529 157.536 412.137 158.208 408.553 158.208ZM388.297 120.96C386.705 124.03 385.82 127.454 385.642 131.232H427.91C427.726 127.454 426.81 124.03 425.161 120.96C423.305 117.504 420.777 114.784 417.577 112.8C414.441 110.816 410.825 109.824 406.729 109.824C402.697 109.824 399.081 110.816 395.881 112.8C392.681 114.784 390.153 117.504 388.297 120.96Z" fill="url(#paint14_linear_903_2225)"/>
<path fill-rule="evenodd" clip-rule="evenodd" d="M447.628 124.416L448.396 108.288H480.844V156.192H489.1V170.784H487.18V157.92H436.588V170.784H434.668V156.192H437.824C439.553 156.082 440.997 155.282 442.156 153.792C443.5 152 444.524 149.568 445.228 146.496C445.932 143.424 446.444 139.968 446.764 136.128C447.148 132.288 447.436 128.384 447.628 124.416ZM443.98 153.888C443.299 154.91 442.509 155.678 441.61 156.192H478.924V110.112H450.22L449.548 124.416C449.356 128.192 449.068 132 448.684 135.84C448.364 139.616 447.82 143.104 447.052 146.304C446.348 149.44 445.324 151.968 443.98 153.888Z" fill="url(#paint15_linear_903_2225)"/>
<path fill-rule="evenodd" clip-rule="evenodd" d="M524.24 158.208C519.44 158.208 515.184 157.152 511.472 155.04C507.76 152.864 504.816 149.888 502.64 146.112C500.528 142.272 499.472 137.92 499.472 133.056C499.472 128.128 500.464 123.808 502.448 120.096C504.432 116.32 507.152 113.376 510.608 111.264C514.128 109.088 518.064 108 522.416 108C526.768 108 530.672 109.056 534.128 111.168C537.648 113.216 540.4 116.096 542.384 119.808C544.432 123.52 545.456 127.776 545.456 132.576V133.056H501.296C501.296 137.6 502.288 141.632 504.272 145.152C506.256 148.672 508.976 151.424 512.432 153.408C515.888 155.392 519.824 156.384 524.24 156.384C527.568 156.384 530.704 155.744 533.648 154.464C536.656 153.184 539.152 151.264 541.136 148.704L542.48 150.048C540.304 152.736 537.616 154.784 534.416 156.192C531.216 157.536 527.824 158.208 524.24 158.208ZM503.984 120.96C502.392 124.03 501.507 127.454 501.33 131.232H543.598C543.414 127.454 542.497 124.03 540.848 120.96C538.992 117.504 536.464 114.784 533.264 112.8C530.128 110.816 526.512 109.824 522.416 109.824C518.384 109.824 514.768 110.816 511.568 112.8C508.368 114.784 505.84 117.504 503.984 120.96Z" fill="url(#paint16_linear_903_2225)"/>
<path d="M550.163 156L549.779 157.728C550.355 157.856 550.899 157.952 551.411 158.016C551.923 158.144 552.435 158.208 552.947 158.208C555.379 158.208 557.363 157.312 558.899 155.52C560.435 153.664 561.619 151.168 562.451 148.032C563.283 144.896 563.891 141.344 564.275 137.376C564.723 133.344 565.075 129.184 565.331 124.896L566.153 110.112H594.995V157.92H596.915V108.288H564.275L563.411 124.512C563.219 128.544 562.931 132.48 562.547 136.32C562.227 140.096 561.683 143.52 560.915 146.592C560.211 149.6 559.187 152 557.843 153.792C556.499 155.52 554.739 156.384 552.563 156.384C552.243 156.384 551.859 156.352 551.411 156.288C550.963 156.16 550.547 156.064 550.163 156Z" fill="url(#paint17_linear_903_2225)"/>
<path fill-rule="evenodd" clip-rule="evenodd" d="M637.262 127.104C643.342 127.168 647.95 128.48 651.086 131.04C654.286 133.6 655.886 137.376 655.886 142.368C655.886 147.552 654.222 151.488 650.894 154.176C647.63 156.864 642.798 158.176 636.398 158.112L619.406 157.92V108.288H621.326V126.912L637.262 127.104ZM636.59 156.384C642.35 156.448 646.67 155.296 649.55 152.928C652.494 150.56 653.966 147.072 653.966 142.464C653.966 137.92 652.526 134.528 649.646 132.288C646.766 130.048 642.414 128.896 636.59 128.832L621.326 128.64V156.192L636.59 156.384Z" fill="url(#paint18_linear_903_2225)"/>
<path d="M775.039 111.552L736.255 157.92H734.719V108.288H736.639V154.656L775.423 108.288H776.959V157.92H775.039V111.552Z" fill="url(#paint19_linear_903_2225)"/>
<path d="M814.585 133.536L836.558 157.92H838.862L816.129 132.567L837.326 108.288H835.022L814.558 131.808H801.326V108.288H799.406V157.92H801.326V133.536H814.585Z" fill="url(#paint20_linear_903_2225)"/>
<path d="M201 157.92V108.288H242.664V157.92H240.744V110.112H202.92V157.92H201Z" fill="url(#paint21_linear_903_2225)"/>
<path d="M325.312 108.288V157.92H327.233V133.728H364.577V157.92H366.497V108.288H364.577V132H327.233V108.288H325.312Z" fill="url(#paint22_linear_903_2225)"/>
<path d="M671.062 108.288V157.92H672.983V133.728H710.326V157.92H712.247V108.288H710.326V132H672.983V108.288H671.062Z" fill="url(#paint23_linear_903_2225)"/>
</g>
<g filter="url(#filter4_f_903_2225)">
<path fill-rule="evenodd" clip-rule="evenodd" d="M283.941 167.208C279.333 167.208 275.205 166.152 271.557 164.04C267.973 161.864 265.125 158.888 263.013 155.112C260.901 151.272 259.845 146.92 259.845 142.056C259.845 137.128 260.901 132.808 263.013 129.096C265.125 125.32 267.973 122.376 271.557 120.264C275.205 118.088 279.333 117 283.941 117C288.549 117 292.677 118.088 296.325 120.264C299.973 122.376 302.821 125.32 304.869 129.096C306.981 132.808 308.037 137.128 308.037 142.056C308.037 146.92 306.981 151.272 304.869 155.112C302.821 158.888 299.973 161.864 296.325 164.04C292.677 166.152 288.549 167.208 283.941 167.208ZM283.941 165.384C288.165 165.384 291.941 164.392 295.269 162.408C298.661 160.424 301.317 157.672 303.237 154.152C305.157 150.632 306.117 146.6 306.117 142.056C306.117 137.448 305.157 133.416 303.237 129.96C301.317 126.44 298.661 123.72 295.269 121.8C291.941 119.816 288.165 118.824 283.941 118.824C279.717 118.824 275.941 119.816 272.613 121.8C269.285 123.72 266.629 126.44 264.645 129.96C262.725 133.416 261.765 137.448 261.765 142.056C261.765 146.6 262.725 150.632 264.645 154.152C266.629 157.672 269.285 160.424 272.613 162.408C275.941 164.392 279.717 165.384 283.941 165.384Z" fill="black" fill-opacity="0.7"/>
<path fill-rule="evenodd" clip-rule="evenodd" d="M408.553 167.208C403.753 167.208 399.497 166.152 395.785 164.04C392.073 161.864 389.129 158.888 386.953 155.112C384.841 151.272 383.785 146.92 383.785 142.056C383.785 137.128 384.777 132.808 386.761 129.096C388.745 125.32 391.465 122.376 394.921 120.264C398.441 118.088 402.377 117 406.729 117C411.081 117 414.985 118.056 418.441 120.168C421.961 122.216 424.713 125.096 426.697 128.808C428.745 132.52 429.769 136.776 429.769 141.576V142.056H385.609C385.609 146.6 386.601 150.632 388.585 154.152C390.569 157.672 393.289 160.424 396.745 162.408C400.201 164.392 404.137 165.384 408.553 165.384C411.881 165.384 415.017 164.744 417.961 163.464C420.969 162.184 423.465 160.264 425.449 157.704L426.793 159.048C424.617 161.736 421.929 163.784 418.729 165.192C415.529 166.536 412.137 167.208 408.553 167.208ZM388.297 129.96C386.705 133.03 385.82 136.454 385.642 140.232H427.91C427.726 136.454 426.81 133.03 425.161 129.96C423.305 126.504 420.777 123.784 417.577 121.8C414.441 119.816 410.825 118.824 406.729 118.824C402.697 118.824 399.081 119.816 395.881 121.8C392.681 123.784 390.153 126.504 388.297 129.96Z" fill="black" fill-opacity="0.7"/>
<path fill-rule="evenodd" clip-rule="evenodd" d="M447.628 133.416L448.396 117.288H480.844V165.192H489.1V179.784H487.18V166.92H436.588V179.784H434.668V165.192H437.824C439.553 165.082 440.997 164.282 442.156 162.792C443.5 161 444.524 158.568 445.228 155.496C445.932 152.424 446.444 148.968 446.764 145.128C447.148 141.288 447.436 137.384 447.628 133.416ZM443.98 162.888C443.299 163.91 442.509 164.678 441.61 165.192H478.924V119.112H450.22L449.548 133.416C449.356 137.192 449.068 141 448.684 144.84C448.364 148.616 447.82 152.104 447.052 155.304C446.348 158.44 445.324 160.968 443.98 162.888Z" fill="black" fill-opacity="0.7"/>
<path fill-rule="evenodd" clip-rule="evenodd" d="M524.24 167.208C519.44 167.208 515.184 166.152 511.472 164.04C507.76 161.864 504.816 158.888 502.64 155.112C500.528 151.272 499.472 146.92 499.472 142.056C499.472 137.128 500.464 132.808 502.448 129.096C504.432 125.32 507.152 122.376 510.608 120.264C514.128 118.088 518.064 117 522.416 117C526.768 117 530.672 118.056 534.128 120.168C537.648 122.216 540.4 125.096 542.384 128.808C544.432 132.52 545.456 136.776 545.456 141.576V142.056H501.296C501.296 146.6 502.288 150.632 504.272 154.152C506.256 157.672 508.976 160.424 512.432 162.408C515.888 164.392 519.824 165.384 524.24 165.384C527.568 165.384 530.704 164.744 533.648 163.464C536.656 162.184 539.152 160.264 541.136 157.704L542.48 159.048C540.304 161.736 537.616 163.784 534.416 165.192C531.216 166.536 527.824 167.208 524.24 167.208ZM503.984 129.96C502.392 133.03 501.507 136.454 501.33 140.232H543.598C543.414 136.454 542.497 133.03 540.848 129.96C538.992 126.504 536.464 123.784 533.264 121.8C530.128 119.816 526.512 118.824 522.416 118.824C518.384 118.824 514.768 119.816 511.568 121.8C508.368 123.784 505.84 126.504 503.984 129.96Z" fill="black" fill-opacity="0.7"/>
<path d="M550.163 165L549.779 166.728C550.355 166.856 550.899 166.952 551.411 167.016C551.923 167.144 552.435 167.208 552.947 167.208C555.379 167.208 557.363 166.312 558.899 164.52C560.435 162.664 561.619 160.168 562.451 157.032C563.283 153.896 563.891 150.344 564.275 146.376C564.723 142.344 565.075 138.184 565.331 133.896L566.153 119.112H594.995V166.92H596.915V117.288H564.275L563.411 133.512C563.219 137.544 562.931 141.48 562.547 145.32C562.227 149.096 561.683 152.52 560.915 155.592C560.211 158.6 559.187 161 557.843 162.792C556.499 164.52 554.739 165.384 552.563 165.384C552.243 165.384 551.859 165.352 551.411 165.288C550.963 165.16 550.547 165.064 550.163 165Z" fill="black" fill-opacity="0.7"/>
<path fill-rule="evenodd" clip-rule="evenodd" d="M637.262 136.104C643.342 136.168 647.95 137.48 651.086 140.04C654.286 142.6 655.886 146.376 655.886 151.368C655.886 156.552 654.222 160.488 650.894 163.176C647.63 165.864 642.798 167.176 636.398 167.112L619.406 166.92V117.288H621.326V135.912L637.262 136.104ZM636.59 165.384C642.35 165.448 646.67 164.296 649.55 161.928C652.494 159.56 653.966 156.072 653.966 151.464C653.966 146.92 652.526 143.528 649.646 141.288C646.766 139.048 642.414 137.896 636.59 137.832L621.326 137.64V165.192L636.59 165.384Z" fill="black" fill-opacity="0.7"/>
<path d="M775.039 120.552L736.255 166.92H734.719V117.288H736.639V163.656L775.423 117.288H776.959V166.92H775.039V120.552Z" fill="black" fill-opacity="0.7"/>
<path d="M814.585 142.536L836.558 166.92H838.862L816.129 141.567L837.326 117.288H835.022L814.558 140.808H801.326V117.288H799.406V166.92H801.326V142.536H814.585Z" fill="black" fill-opacity="0.7"/>
<path d="M201 166.92V117.288H242.664V166.92H240.744V119.112H202.92V166.92H201Z" fill="black" fill-opacity="0.7"/>
<path d="M325.312 117.288V166.92H327.233V142.728H364.577V166.92H366.497V117.288H364.577V141H327.233V117.288H325.312Z" fill="black" fill-opacity="0.7"/>
<path d="M671.062 117.288V166.92H672.983V142.728H710.326V166.92H712.247V117.288H710.326V141H672.983V117.288H671.062Z" fill="black" fill-opacity="0.7"/>
</g>
<path fill-rule="evenodd" clip-rule="evenodd" d="M283.941 158.208C279.333 158.208 275.205 157.152 271.557 155.04C267.973 152.864 265.125 149.888 263.013 146.112C260.901 142.272 259.845 137.92 259.845 133.056C259.845 128.128 260.901 123.808 263.013 120.096C265.125 116.32 267.973 113.376 271.557 111.264C275.205 109.088 279.333 108 283.941 108C288.549 108 292.677 109.088 296.325 111.264C299.973 113.376 302.821 116.32 304.869 120.096C306.981 123.808 308.037 128.128 308.037 133.056C308.037 137.92 306.981 142.272 304.869 146.112C302.821 149.888 299.973 152.864 296.325 155.04C292.677 157.152 288.549 158.208 283.941 158.208ZM283.941 156.384C288.165 156.384 291.941 155.392 295.269 153.408C298.661 151.424 301.317 148.672 303.237 145.152C305.157 141.632 306.117 137.6 306.117 133.056C306.117 128.448 305.157 124.416 303.237 120.96C301.317 117.44 298.661 114.72 295.269 112.8C291.941 110.816 288.165 109.824 283.941 109.824C279.717 109.824 275.941 110.816 272.613 112.8C269.285 114.72 266.629 117.44 264.645 120.96C262.725 124.416 261.765 128.448 261.765 133.056C261.765 137.6 262.725 141.632 264.645 145.152C266.629 148.672 269.285 151.424 272.613 153.408C275.941 155.392 279.717 156.384 283.941 156.384Z" fill="#7EE8FF"/>
<path fill-rule="evenodd" clip-rule="evenodd" d="M408.553 158.208C403.753 158.208 399.497 157.152 395.785 155.04C392.073 152.864 389.129 149.888 386.953 146.112C384.841 142.272 383.785 137.92 383.785 133.056C383.785 128.128 384.777 123.808 386.761 120.096C388.745 116.32 391.465 113.376 394.921 111.264C398.441 109.088 402.377 108 406.729 108C411.081 108 414.985 109.056 418.441 111.168C421.961 113.216 424.713 116.096 426.697 119.808C428.745 123.52 429.769 127.776 429.769 132.576V133.056H385.609C385.609 137.6 386.601 141.632 388.585 145.152C390.569 148.672 393.289 151.424 396.745 153.408C400.201 155.392 404.137 156.384 408.553 156.384C411.881 156.384 415.017 155.744 417.961 154.464C420.969 153.184 423.465 151.264 425.449 148.704L426.793 150.048C424.617 152.736 421.929 154.784 418.729 156.192C415.529 157.536 412.137 158.208 408.553 158.208ZM388.297 120.96C386.705 124.03 385.82 127.454 385.642 131.232H427.91C427.726 127.454 426.81 124.03 425.161 120.96C423.305 117.504 420.777 114.784 417.577 112.8C414.441 110.816 410.825 109.824 406.729 109.824C402.697 109.824 399.081 110.816 395.881 112.8C392.681 114.784 390.153 117.504 388.297 120.96Z" fill="#7EE8FF"/>
<path fill-rule="evenodd" clip-rule="evenodd" d="M447.628 124.416L448.396 108.288H480.844V156.192H489.1V170.784H487.18V157.92H436.588V170.784H434.668V156.192H437.824C439.553 156.082 440.997 155.282 442.156 153.792C443.5 152 444.524 149.568 445.228 146.496C445.932 143.424 446.444 139.968 446.764 136.128C447.148 132.288 447.436 128.384 447.628 124.416ZM443.98 153.888C443.299 154.91 442.509 155.678 441.61 156.192H478.924V110.112H450.22L449.548 124.416C449.356 128.192 449.068 132 448.684 135.84C448.364 139.616 447.82 143.104 447.052 146.304C446.348 149.44 445.324 151.968 443.98 153.888Z" fill="#7EE8FF"/>
<path fill-rule="evenodd" clip-rule="evenodd" d="M524.24 158.208C519.44 158.208 515.184 157.152 511.472 155.04C507.76 152.864 504.816 149.888 502.64 146.112C500.528 142.272 499.472 137.92 499.472 133.056C499.472 128.128 500.464 123.808 502.448 120.096C504.432 116.32 507.152 113.376 510.608 111.264C514.128 109.088 518.064 108 522.416 108C526.768 108 530.672 109.056 534.128 111.168C537.648 113.216 540.4 116.096 542.384 119.808C544.432 123.52 545.456 127.776 545.456 132.576V133.056H501.296C501.296 137.6 502.288 141.632 504.272 145.152C506.256 148.672 508.976 151.424 512.432 153.408C515.888 155.392 519.824 156.384 524.24 156.384C527.568 156.384 530.704 155.744 533.648 154.464C536.656 153.184 539.152 151.264 541.136 148.704L542.48 150.048C540.304 152.736 537.616 154.784 534.416 156.192C531.216 157.536 527.824 158.208 524.24 158.208ZM503.984 120.96C502.392 124.03 501.507 127.454 501.33 131.232H543.598C543.414 127.454 542.497 124.03 540.848 120.96C538.992 117.504 536.464 114.784 533.264 112.8C530.128 110.816 526.512 109.824 522.416 109.824C518.384 109.824 514.768 110.816 511.568 112.8C508.368 114.784 505.84 117.504 503.984 120.96Z" fill="#7EE8FF"/>
<path d="M550.163 156L549.779 157.728C550.355 157.856 550.899 157.952 551.411 158.016C551.923 158.144 552.435 158.208 552.947 158.208C555.379 158.208 557.363 157.312 558.899 155.52C560.435 153.664 561.619 151.168 562.451 148.032C563.283 144.896 563.891 141.344 564.275 137.376C564.723 133.344 565.075 129.184 565.331 124.896L566.153 110.112H594.995V157.92H596.915V108.288H564.275L563.411 124.512C563.219 128.544 562.931 132.48 562.547 136.32C562.227 140.096 561.683 143.52 560.915 146.592C560.211 149.6 559.187 152 557.843 153.792C556.499 155.52 554.739 156.384 552.563 156.384C552.243 156.384 551.859 156.352 551.411 156.288C550.963 156.16 550.547 156.064 550.163 156Z" fill="#7EE8FF"/>
<path fill-rule="evenodd" clip-rule="evenodd" d="M637.262 127.104C643.342 127.168 647.95 128.48 651.086 131.04C654.286 133.6 655.886 137.376 655.886 142.368C655.886 147.552 654.222 151.488 650.894 154.176C647.63 156.864 642.798 158.176 636.398 158.112L619.406 157.92V108.288H621.326V126.912L637.262 127.104ZM636.59 156.384C642.35 156.448 646.67 155.296 649.55 152.928C652.494 150.56 653.966 147.072 653.966 142.464C653.966 137.92 652.526 134.528 649.646 132.288C646.766 130.048 642.414 128.896 636.59 128.832L621.326 128.64V156.192L636.59 156.384Z" fill="#7EE8FF"/>
<path d="M775.039 111.552L736.255 157.92H734.719V108.288H736.639V154.656L775.423 108.288H776.959V157.92H775.039V111.552Z" fill="#7EE8FF"/>
<path d="M814.585 133.536L836.558 157.92H838.862L816.129 132.567L837.326 108.288H835.022L814.558 131.808H801.326V108.288H799.406V157.92H801.326V133.536H814.585Z" fill="#7EE8FF"/>
<path d="M201 157.92V108.288H242.664V157.92H240.744V110.112H202.92V157.92H201Z" fill="#7EE8FF"/>
<path d="M325.312 108.288V157.92H327.233V133.728H364.577V157.92H366.497V108.288H364.577V132H327.233V108.288H325.312Z" fill="#7EE8FF"/>
<path d="M671.062 108.288V157.92H672.983V133.728H710.326V157.92H712.247V108.288H710.326V132H672.983V108.288H671.062Z" fill="#7EE8FF"/>
<defs>
<filter id="filter0_f_903_2225" x="42" y="6" width="936" height="237" filterUnits="userSpaceOnUse" color-interpolation-filters="sRGB">
<feFlood flood-opacity="0" result="BackgroundImageFix"/>
<feBlend mode="normal" in="SourceGraphic" in2="BackgroundImageFix" result="shape"/>
<feGaussianBlur stdDeviation="54" result="effect1_foregroundBlur_903_2225"/>
</filter>
<filter id="filter1_f_903_2225" x="0" y="0" width="1020" height="279" filterUnits="userSpaceOnUse" color-interpolation-filters="sRGB">
<feFlood flood-opacity="0" result="BackgroundImageFix"/>
<feBlend mode="normal" in="SourceGraphic" in2="BackgroundImageFix" result="shape"/>
<feGaussianBlur stdDeviation="54" result="effect1_foregroundBlur_903_2225"/>
</filter>
<filter id="filter2_f_903_2225" x="191" y="98" width="657.862" height="82.7839" filterUnits="userSpaceOnUse" color-interpolation-filters="sRGB">
<feFlood flood-opacity="0" result="BackgroundImageFix"/>
<feBlend mode="normal" in="SourceGraphic" in2="BackgroundImageFix" result="shape"/>
<feGaussianBlur stdDeviation="5" result="effect1_foregroundBlur_903_2225"/>
</filter>
<filter id="filter3_f_903_2225" x="191" y="98" width="657.862" height="82.7839" filterUnits="userSpaceOnUse" color-interpolation-filters="sRGB">
<feFlood flood-opacity="0" result="BackgroundImageFix"/>
<feBlend mode="normal" in="SourceGraphic" in2="BackgroundImageFix" result="shape"/>
<feGaussianBlur stdDeviation="5" result="effect1_foregroundBlur_903_2225"/>
</filter>
<filter id="filter4_f_903_2225" x="197" y="113" width="645.862" height="70.7839" filterUnits="userSpaceOnUse" color-interpolation-filters="sRGB">
<feFlood flood-opacity="0" result="BackgroundImageFix"/>
<feBlend mode="normal" in="SourceGraphic" in2="BackgroundImageFix" result="shape"/>
<feGaussianBlur stdDeviation="2" result="effect1_foregroundBlur_903_2225"/>
</filter>
<linearGradient id="paint0_linear_903_2225" x1="298.938" y1="118.64" x2="471.932" y2="362.543" gradientUnits="userSpaceOnUse">
<stop stop-color="#2F45F4"/>
<stop offset="1" stop-color="#FF0099" stop-opacity="0"/>
</linearGradient>
<linearGradient id="paint1_linear_903_2225" x1="274.314" y1="121.919" x2="726.854" y2="359.409" gradientUnits="userSpaceOnUse">
<stop stop-color="#2F45F4"/>
<stop offset="1" stop-color="#FF0099"/>
</linearGradient>
<linearGradient id="paint2_linear_903_2225" x1="201" y1="117" x2="845" y2="151" gradientUnits="userSpaceOnUse">
<stop stop-color="#7DD0FF"/>
<stop offset="1" stop-color="#DB00FF"/>
</linearGradient>
<linearGradient id="paint3_linear_903_2225" x1="201" y1="117" x2="845" y2="151" gradientUnits="userSpaceOnUse">
<stop stop-color="#7DD0FF"/>
<stop offset="1" stop-color="#DB00FF"/>
</linearGradient>
<linearGradient id="paint4_linear_903_2225" x1="201" y1="117" x2="845" y2="151" gradientUnits="userSpaceOnUse">
<stop stop-color="#7DD0FF"/>
<stop offset="1" stop-color="#DB00FF"/>
</linearGradient>
<linearGradient id="paint5_linear_903_2225" x1="201" y1="117" x2="845" y2="151" gradientUnits="userSpaceOnUse">
<stop stop-color="#7DD0FF"/>
<stop offset="1" stop-color="#DB00FF"/>
</linearGradient>
<linearGradient id="paint6_linear_903_2225" x1="201" y1="117" x2="845" y2="151" gradientUnits="userSpaceOnUse">
<stop stop-color="#7DD0FF"/>
<stop offset="1" stop-color="#DB00FF"/>
</linearGradient>
<linearGradient id="paint7_linear_903_2225" x1="201" y1="117" x2="845" y2="151" gradientUnits="userSpaceOnUse">
<stop stop-color="#7DD0FF"/>
<stop offset="1" stop-color="#DB00FF"/>
</linearGradient>
<linearGradient id="paint8_linear_903_2225" x1="201" y1="117" x2="845" y2="151" gradientUnits="userSpaceOnUse">
<stop stop-color="#7DD0FF"/>
<stop offset="1" stop-color="#DB00FF"/>
</linearGradient>
<linearGradient id="paint9_linear_903_2225" x1="201" y1="117" x2="845" y2="151" gradientUnits="userSpaceOnUse">
<stop stop-color="#7DD0FF"/>
<stop offset="1" stop-color="#DB00FF"/>
</linearGradient>
<linearGradient id="paint10_linear_903_2225" x1="201" y1="117" x2="845" y2="151" gradientUnits="userSpaceOnUse">
<stop stop-color="#7DD0FF"/>
<stop offset="1" stop-color="#DB00FF"/>
</linearGradient>
<linearGradient id="paint11_linear_903_2225" x1="201" y1="117" x2="845" y2="151" gradientUnits="userSpaceOnUse">
<stop stop-color="#7DD0FF"/>
<stop offset="1" stop-color="#DB00FF"/>
</linearGradient>
<linearGradient id="paint12_linear_903_2225" x1="201" y1="117" x2="845" y2="151" gradientUnits="userSpaceOnUse">
<stop stop-color="#7DD0FF"/>
<stop offset="1" stop-color="#DB00FF"/>
</linearGradient>
<linearGradient id="paint13_linear_903_2225" x1="198.5" y1="105" x2="839" y2="158" gradientUnits="userSpaceOnUse">
<stop stop-color="#0047FF"/>
<stop offset="1" stop-color="#DB00FF"/>
</linearGradient>
<linearGradient id="paint14_linear_903_2225" x1="198.5" y1="105" x2="839" y2="158" gradientUnits="userSpaceOnUse">
<stop stop-color="#0047FF"/>
<stop offset="1" stop-color="#DB00FF"/>
</linearGradient>
<linearGradient id="paint15_linear_903_2225" x1="198.5" y1="105" x2="839" y2="158" gradientUnits="userSpaceOnUse">
<stop stop-color="#0047FF"/>
<stop offset="1" stop-color="#DB00FF"/>
</linearGradient>
<linearGradient id="paint16_linear_903_2225" x1="198.5" y1="105" x2="839" y2="158" gradientUnits="userSpaceOnUse">
<stop stop-color="#0047FF"/>
<stop offset="1" stop-color="#DB00FF"/>
</linearGradient>
<linearGradient id="paint17_linear_903_2225" x1="198.5" y1="105" x2="839" y2="158" gradientUnits="userSpaceOnUse">
<stop stop-color="#0047FF"/>
<stop offset="1" stop-color="#DB00FF"/>
</linearGradient>
<linearGradient id="paint18_linear_903_2225" x1="198.5" y1="105" x2="839" y2="158" gradientUnits="userSpaceOnUse">
<stop stop-color="#0047FF"/>
<stop offset="1" stop-color="#DB00FF"/>
</linearGradient>
<linearGradient id="paint19_linear_903_2225" x1="198.5" y1="105" x2="839" y2="158" gradientUnits="userSpaceOnUse">
<stop stop-color="#0047FF"/>
<stop offset="1" stop-color="#DB00FF"/>
</linearGradient>
<linearGradient id="paint20_linear_903_2225" x1="198.5" y1="105" x2="839" y2="158" gradientUnits="userSpaceOnUse">
<stop stop-color="#0047FF"/>
<stop offset="1" stop-color="#DB00FF"/>
</linearGradient>
<linearGradient id="paint21_linear_903_2225" x1="198.5" y1="105" x2="839" y2="158" gradientUnits="userSpaceOnUse">
<stop stop-color="#0047FF"/>
<stop offset="1" stop-color="#DB00FF"/>
</linearGradient>
<linearGradient id="paint22_linear_903_2225" x1="198.5" y1="105" x2="839" y2="158" gradientUnits="userSpaceOnUse">
<stop stop-color="#0047FF"/>
<stop offset="1" stop-color="#DB00FF"/>
</linearGradient>
<linearGradient id="paint23_linear_903_2225" x1="198.5" y1="105" x2="839" y2="158" gradientUnits="userSpaceOnUse">
<stop stop-color="#0047FF"/>
<stop offset="1" stop-color="#DB00FF"/>
</linearGradient>
</defs>
</svg>
