<svg width="752" height="303" viewBox="0 0 752 303" fill="none" xmlns="http://www.w3.org/2000/svg">
<g filter="url(#filter0_f_903_2217)">
<ellipse cx="376" cy="151.013" rx="226" ry="43" fill="url(#paint0_linear_903_2217)"/>
</g>
<g filter="url(#filter1_f_903_2217)">
<ellipse cx="376" cy="175.513" rx="268" ry="18.5" fill="url(#paint1_linear_903_2217)"/>
</g>
<g filter="url(#filter2_f_903_2217)">
<path d="M247.13 193.813H212.22L196.34 163.883H190.96V193.813H160V108.013H190.91V138.883H197.1L214.68 108.013H247.33L221.75 149.713L247.13 193.813ZM213.97 190.813H241.97L218.27 149.663L241.97 111.013H216.43L198.85 141.883H187.91V111.013H163V190.813H187.91V160.883H198.1L213.97 190.813Z" fill="url(#paint2_linear_903_2217)"/>
<path d="M334.03 193.813H303.59V154.363L277.51 193.813H248.83V108.013H279.27V147.583L305.47 108.013H334.03V193.813ZM306.59 190.813H331.03V111.013H307.08L276.27 157.513V111.013H251.83V190.813H275.9L306.59 144.383V190.813Z" fill="url(#paint3_linear_903_2217)"/>
<path d="M390.84 193.813H345.7V108.013H420.49V132.013H376.14V138.593H394.39C404.78 138.593 412.92 140.873 418.57 145.373C424.32 149.953 427.23 156.613 427.23 165.173C427.23 174.053 423.94 181.173 417.43 186.173C410.92 191.173 402.1 193.813 390.84 193.813ZM348.7 190.813H390.84C401.41 190.813 409.73 188.493 415.58 183.913C421.43 179.333 424.22 173.243 424.22 165.223C424.22 157.513 421.76 151.803 416.69 147.763C411.62 143.723 404.08 141.643 394.38 141.643H373.14V129.063H417.49V111.063H348.7V190.813ZM388.95 174.293H373.14V158.043H388.95C397.42 158.043 399.2 162.333 399.2 165.933C399.259 167.133 399.027 168.33 398.524 169.422C398.021 170.514 397.261 171.468 396.31 172.203C394.157 173.698 391.567 174.434 388.95 174.293ZM376.14 171.293H388.95C390.903 171.42 392.844 170.908 394.48 169.833C395.061 169.371 395.522 168.774 395.821 168.095C396.121 167.416 396.251 166.673 396.2 165.933C396.2 163.653 395.38 161.043 388.95 161.043H376.14V171.293Z" fill="url(#paint4_linear_903_2217)"/>
<path d="M505.65 193.813H433.82V108.013H504.12V132.013H464.22V138.713H499.22V161.823H464.22V169.703H505.61L505.65 193.813ZM436.82 190.813H502.65V172.753H461.22V158.873H496.22V141.763H461.22V129.063H501.12V111.063H436.82V190.813Z" fill="url(#paint5_linear_903_2217)"/>
<path d="M544.92 193.813H514.01V108.013H555.37C562.456 107.854 569.495 109.19 576.03 111.933C581.608 114.309 586.372 118.261 589.74 123.303C593.047 128.509 594.738 134.577 594.6 140.743C594.74 146.89 593.048 152.939 589.74 158.123C586.352 163.147 581.599 167.099 576.04 169.513C569.513 172.302 562.466 173.666 555.37 173.513H544.92V193.813ZM517.01 190.813H541.92V170.513H555.37C562.034 170.671 568.654 169.407 574.79 166.803C579.83 164.629 584.144 161.059 587.22 156.513C590.207 151.82 591.728 146.344 591.59 140.783C591.733 135.186 590.212 129.674 587.22 124.943C584.158 120.386 579.84 116.815 574.79 114.663C568.64 112.1 562.021 110.856 555.36 111.013H517.01V190.813ZM553.59 151.933H541.92V129.513H553.59C557.83 129.513 561.06 130.513 563.19 132.513C564.283 133.571 565.138 134.849 565.7 136.263C566.262 137.676 566.518 139.193 566.45 140.713C566.526 142.233 566.277 143.753 565.72 145.17C565.163 146.588 564.311 147.87 563.22 148.933C561.06 150.923 557.83 151.933 553.59 151.933ZM544.92 148.933H553.59C557.05 148.933 559.59 148.203 561.14 146.743C561.931 145.966 562.547 145.028 562.946 143.993C563.344 142.958 563.516 141.85 563.45 140.743C563.515 139.636 563.342 138.528 562.944 137.493C562.545 136.458 561.93 135.52 561.14 134.743C559.58 133.293 557.04 132.553 553.59 132.553H544.92V148.933Z" fill="url(#paint6_linear_903_2217)"/>
</g>
<g filter="url(#filter3_f_903_2217)">
<path d="M246.267 192.314C246.651 192.981 246.17 193.813 245.401 193.813H212.821C212.451 193.813 212.112 193.608 211.938 193.281L196.622 164.414C196.448 164.087 196.109 163.883 195.739 163.883H191.96C191.408 163.883 190.96 164.33 190.96 164.883V192.813C190.96 193.365 190.512 193.813 189.96 193.813H161C160.448 193.813 160 193.365 160 192.813V109.013C160 108.46 160.448 108.013 161 108.013H189.91C190.462 108.013 190.91 108.46 190.91 109.013V137.883C190.91 138.435 191.358 138.883 191.91 138.883H196.519C196.878 138.883 197.21 138.69 197.388 138.378L214.392 108.518C214.57 108.206 214.902 108.013 215.261 108.013H245.543C246.325 108.013 246.805 108.869 246.396 109.536L222.061 149.206C221.869 149.518 221.864 149.91 222.046 150.228L246.267 192.314ZM213.688 190.281C213.862 190.608 214.201 190.813 214.572 190.813H240.24C241.009 190.813 241.491 189.98 241.107 189.314L218.567 150.178C218.384 149.86 218.389 149.468 218.581 149.156L241.036 112.535C241.445 111.869 240.965 111.013 240.184 111.013H217.011C216.652 111.013 216.32 111.206 216.142 111.518L199.138 141.378C198.96 141.69 198.628 141.883 198.269 141.883H188.91C188.358 141.883 187.91 141.435 187.91 140.883V112.013C187.91 111.46 187.462 111.013 186.91 111.013H164C163.448 111.013 163 111.46 163 112.013V189.813C163 190.365 163.448 190.813 164 190.813H186.91C187.462 190.813 187.91 190.365 187.91 189.813V161.883C187.91 161.33 188.358 160.883 188.91 160.883H197.498C197.869 160.883 198.208 161.087 198.382 161.414L213.688 190.281Z" fill="url(#paint7_linear_903_2217)"/>
<path d="M334.03 192.813C334.03 193.365 333.582 193.813 333.03 193.813H304.59C304.038 193.813 303.59 193.365 303.59 192.813V157.689C303.59 156.697 302.303 156.31 301.756 157.137L277.807 193.364C277.621 193.644 277.308 193.813 276.972 193.813H249.83C249.278 193.813 248.83 193.365 248.83 192.813V109.013C248.83 108.46 249.278 108.013 249.83 108.013H278.27C278.822 108.013 279.27 108.46 279.27 109.013V144.261C279.27 145.252 280.557 145.639 281.104 144.813L305.173 108.461C305.359 108.181 305.672 108.013 306.007 108.013H333.03C333.582 108.013 334.03 108.46 334.03 109.013V192.813ZM306.59 189.813C306.59 190.365 307.038 190.813 307.59 190.813H330.03C330.582 190.813 331.03 190.365 331.03 189.813V112.013C331.03 111.46 330.582 111.013 330.03 111.013H307.617C307.282 111.013 306.969 111.181 306.783 111.46L278.104 154.745C277.556 155.571 276.27 155.184 276.27 154.193V112.013C276.27 111.46 275.822 111.013 275.27 111.013H252.83C252.278 111.013 251.83 111.46 251.83 112.013V189.813C251.83 190.365 252.278 190.813 252.83 190.813H275.362C275.698 190.813 276.011 190.644 276.197 190.364L304.756 147.158C305.302 146.331 306.59 146.718 306.59 147.709V189.813Z" fill="url(#paint8_linear_903_2217)"/>
<path d="M390.84 193.813H346.7C346.148 193.813 345.7 193.365 345.7 192.813V109.013C345.7 108.46 346.148 108.013 346.7 108.013H419.49C420.042 108.013 420.49 108.46 420.49 109.013V131.013C420.49 131.565 420.042 132.013 419.49 132.013H377.14C376.588 132.013 376.14 132.46 376.14 133.013V137.593C376.14 138.145 376.588 138.593 377.14 138.593H394.39C404.78 138.593 412.92 140.873 418.57 145.373C424.32 149.953 427.23 156.613 427.23 165.173C427.23 174.053 423.94 181.173 417.43 186.173C410.92 191.173 402.1 193.813 390.84 193.813ZM348.7 189.813C348.7 190.365 349.148 190.813 349.7 190.813H390.84C401.41 190.813 409.73 188.493 415.58 183.913C421.43 179.333 424.22 173.243 424.22 165.223C424.22 157.513 421.76 151.803 416.69 147.763C411.62 143.723 404.08 141.643 394.38 141.643H374.14C373.588 141.643 373.14 141.195 373.14 140.643V130.063C373.14 129.51 373.588 129.063 374.14 129.063H416.49C417.042 129.063 417.49 128.615 417.49 128.063V112.063C417.49 111.51 417.042 111.063 416.49 111.063H349.7C349.148 111.063 348.7 111.51 348.7 112.063V189.813ZM388.95 174.293H374.14C373.588 174.293 373.14 173.845 373.14 173.293V159.043C373.14 158.49 373.588 158.043 374.14 158.043H388.95C397.42 158.043 399.2 162.333 399.2 165.933C399.259 167.133 399.027 168.33 398.524 169.422C398.021 170.514 397.261 171.468 396.31 172.203C394.157 173.698 391.567 174.434 388.95 174.293ZM376.14 170.293C376.14 170.845 376.588 171.293 377.14 171.293H388.95C390.903 171.42 392.844 170.908 394.48 169.833C395.061 169.371 395.522 168.774 395.821 168.095C396.121 167.416 396.251 166.673 396.2 165.933C396.2 163.653 395.38 161.043 388.95 161.043H377.14C376.588 161.043 376.14 161.49 376.14 162.043V170.293Z" fill="url(#paint9_linear_903_2217)"/>
<path d="M505.648 192.811C505.649 193.364 505.201 193.813 504.648 193.813H434.82C434.268 193.813 433.82 193.365 433.82 192.813V109.013C433.82 108.46 434.268 108.013 434.82 108.013H503.12C503.672 108.013 504.12 108.46 504.12 109.013V131.013C504.12 131.565 503.672 132.013 503.12 132.013H465.22C464.668 132.013 464.22 132.46 464.22 133.013V137.713C464.22 138.265 464.668 138.713 465.22 138.713H498.22C498.772 138.713 499.22 139.16 499.22 139.713V160.823C499.22 161.375 498.772 161.823 498.22 161.823H465.22C464.668 161.823 464.22 162.27 464.22 162.823V168.703C464.22 169.255 464.668 169.703 465.22 169.703H504.612C505.163 169.703 505.611 170.149 505.612 170.701L505.648 192.811ZM436.82 189.813C436.82 190.365 437.268 190.813 437.82 190.813H501.65C502.202 190.813 502.65 190.365 502.65 189.813V173.753C502.65 173.2 502.202 172.753 501.65 172.753H462.22C461.668 172.753 461.22 172.305 461.22 171.753V159.873C461.22 159.32 461.668 158.873 462.22 158.873H495.22C495.772 158.873 496.22 158.425 496.22 157.873V142.763C496.22 142.21 495.772 141.763 495.22 141.763H462.22C461.668 141.763 461.22 141.315 461.22 140.763V130.063C461.22 129.51 461.668 129.063 462.22 129.063H500.12C500.672 129.063 501.12 128.615 501.12 128.063V112.063C501.12 111.51 500.672 111.063 500.12 111.063H437.82C437.268 111.063 436.82 111.51 436.82 112.063V189.813Z" fill="url(#paint10_linear_903_2217)"/>
<path d="M544.92 192.813C544.92 193.365 544.472 193.813 543.92 193.813H515.01C514.458 193.813 514.01 193.365 514.01 192.813V109.013C514.01 108.46 514.458 108.013 515.01 108.013H555.37C562.456 107.854 569.495 109.19 576.03 111.933C581.608 114.309 586.372 118.261 589.74 123.303C593.047 128.509 594.738 134.577 594.6 140.743C594.74 146.89 593.048 152.939 589.74 158.123C586.352 163.147 581.599 167.099 576.04 169.513C569.513 172.302 562.466 173.666 555.37 173.513H545.92C545.368 173.513 544.92 173.96 544.92 174.513V192.813ZM517.01 189.813C517.01 190.365 517.458 190.813 518.01 190.813H540.92C541.472 190.813 541.92 190.365 541.92 189.813V171.513C541.92 170.96 542.368 170.513 542.92 170.513H555.37C562.034 170.671 568.654 169.407 574.79 166.803C579.83 164.629 584.144 161.059 587.22 156.513C590.207 151.82 591.728 146.344 591.59 140.783C591.733 135.186 590.212 129.674 587.22 124.943C584.158 120.386 579.84 116.815 574.79 114.663C568.64 112.1 562.021 110.856 555.36 111.013H518.01C517.458 111.013 517.01 111.46 517.01 112.013V189.813ZM553.59 151.933H542.92C542.368 151.933 541.92 151.485 541.92 150.933V130.513C541.92 129.96 542.368 129.513 542.92 129.513H553.59C557.83 129.513 561.06 130.513 563.19 132.513C564.283 133.571 565.138 134.849 565.7 136.263C566.262 137.676 566.518 139.193 566.45 140.713C566.526 142.233 566.277 143.753 565.72 145.17C565.163 146.588 564.311 147.87 563.22 148.933C561.06 150.923 557.83 151.933 553.59 151.933ZM544.92 147.933C544.92 148.485 545.368 148.933 545.92 148.933H553.59C557.05 148.933 559.59 148.203 561.14 146.743C561.931 145.966 562.547 145.028 562.946 143.993C563.344 142.958 563.516 141.85 563.45 140.743C563.515 139.636 563.342 138.528 562.944 137.493C562.545 136.458 561.93 135.52 561.14 134.743C559.58 133.293 557.04 132.553 553.59 132.553H545.92C545.368 132.553 544.92 133 544.92 133.553V147.933Z" fill="url(#paint11_linear_903_2217)"/>
</g>
<g filter="url(#filter4_f_903_2217)">
<path fill-rule="evenodd" clip-rule="evenodd" d="M541.92 160.933C541.92 161.485 542.368 161.933 542.92 161.933H553.59C557.83 161.933 561.06 160.923 563.22 158.933C564.311 157.87 565.163 156.588 565.72 155.17C566.277 153.753 566.526 152.233 566.45 150.713C566.518 149.193 566.262 147.676 565.7 146.263C565.138 144.849 564.283 143.571 563.19 142.513C561.06 140.513 557.83 139.513 553.59 139.513H542.92C542.368 139.513 541.92 139.96 541.92 140.513V160.933ZM553.59 158.933H545.92C545.368 158.933 544.92 158.485 544.92 157.933V143.553C544.92 143 545.368 142.553 545.92 142.553H553.59C557.04 142.553 559.58 143.293 561.14 144.743C561.93 145.52 562.545 146.458 562.944 147.493C563.342 148.528 563.515 149.636 563.45 150.743C563.516 151.85 563.344 152.958 562.946 153.993C562.547 155.028 561.931 155.966 561.14 156.743C559.59 158.203 557.05 158.933 553.59 158.933Z" fill="black" fill-opacity="0.5"/>
<path fill-rule="evenodd" clip-rule="evenodd" d="M514.01 202.813C514.01 203.365 514.458 203.813 515.01 203.813H543.92C544.472 203.813 544.92 203.365 544.92 202.813V184.513C544.92 183.96 545.368 183.513 545.92 183.513H555.37C562.466 183.666 569.513 182.302 576.04 179.513C581.599 177.099 586.352 173.147 589.74 168.123C593.048 162.939 594.74 156.89 594.6 150.743C594.738 144.577 593.047 138.509 589.74 133.303C586.372 128.261 581.608 124.309 576.03 121.933C569.495 119.19 562.456 117.854 555.37 118.013H515.01C514.458 118.013 514.01 118.46 514.01 119.013V202.813ZM541.92 199.813C541.92 200.365 541.472 200.813 540.92 200.813H518.01C517.458 200.813 517.01 200.365 517.01 199.813V122.013C517.01 121.46 517.458 121.013 518.01 121.013H555.36C562.021 120.856 568.64 122.1 574.79 124.663C579.84 126.815 584.158 130.386 587.22 134.943C590.212 139.674 591.733 145.186 591.59 150.783C591.728 156.344 590.207 161.82 587.22 166.513C584.144 171.059 579.83 174.629 574.79 176.803C568.654 179.407 562.034 180.671 555.37 180.513H542.92C542.368 180.513 541.92 180.96 541.92 181.513V199.813Z" fill="black" fill-opacity="0.5"/>
<path fill-rule="evenodd" clip-rule="evenodd" d="M246.267 202.314C246.651 202.981 246.17 203.813 245.401 203.813H212.821C212.451 203.813 212.112 203.608 211.938 203.281L196.622 174.414C196.448 174.087 196.109 173.883 195.739 173.883H191.96C191.408 173.883 190.96 174.33 190.96 174.883V202.813C190.96 203.365 190.512 203.813 189.96 203.813H161C160.448 203.813 160 203.365 160 202.813V119.013C160 118.46 160.448 118.013 161 118.013H189.91C190.462 118.013 190.91 118.46 190.91 119.013V147.883C190.91 148.435 191.358 148.883 191.91 148.883H196.519C196.878 148.883 197.21 148.69 197.388 148.378L214.392 118.518C214.57 118.206 214.902 118.013 215.261 118.013H245.543C246.325 118.013 246.805 118.869 246.396 119.536L222.061 159.206C221.869 159.518 221.864 159.91 222.046 160.228L246.267 202.314ZM213.688 200.281C213.862 200.608 214.201 200.813 214.572 200.813H240.24C241.009 200.813 241.491 199.98 241.107 199.314L218.567 160.178C218.384 159.86 218.389 159.468 218.581 159.156L241.036 122.535C241.445 121.869 240.965 121.013 240.184 121.013H217.011C216.652 121.013 216.32 121.206 216.142 121.518L199.138 151.378C198.96 151.69 198.628 151.883 198.269 151.883H188.91C188.358 151.883 187.91 151.435 187.91 150.883V122.013C187.91 121.46 187.462 121.013 186.91 121.013H164C163.448 121.013 163 121.46 163 122.013V199.813C163 200.365 163.448 200.813 164 200.813H186.91C187.462 200.813 187.91 200.365 187.91 199.813V171.883C187.91 171.33 188.358 170.883 188.91 170.883H197.498C197.869 170.883 198.208 171.087 198.382 171.414L213.688 200.281Z" fill="black" fill-opacity="0.5"/>
<path fill-rule="evenodd" clip-rule="evenodd" d="M334.03 202.813C334.03 203.365 333.582 203.813 333.03 203.813H304.59C304.038 203.813 303.59 203.365 303.59 202.813V167.689C303.59 166.697 302.303 166.31 301.756 167.137L277.807 203.364C277.621 203.644 277.308 203.813 276.972 203.813H249.83C249.278 203.813 248.83 203.365 248.83 202.813V119.013C248.83 118.46 249.278 118.013 249.83 118.013H278.27C278.822 118.013 279.27 118.46 279.27 119.013V154.261C279.27 155.252 280.557 155.639 281.104 154.813L305.173 118.461C305.359 118.181 305.672 118.013 306.007 118.013H333.03C333.582 118.013 334.03 118.46 334.03 119.013V202.813ZM306.59 199.813C306.59 200.365 307.038 200.813 307.59 200.813H330.03C330.582 200.813 331.03 200.365 331.03 199.813V122.013C331.03 121.46 330.582 121.013 330.03 121.013H307.617C307.282 121.013 306.969 121.181 306.783 121.46L278.104 164.745C277.556 165.571 276.27 165.184 276.27 164.193V122.013C276.27 121.46 275.822 121.013 275.27 121.013H252.83C252.278 121.013 251.83 121.46 251.83 122.013V199.813C251.83 200.365 252.278 200.813 252.83 200.813H275.362C275.698 200.813 276.011 200.644 276.197 200.364L304.756 157.158C305.302 156.331 306.59 156.718 306.59 157.709V199.813Z" fill="black" fill-opacity="0.5"/>
<path fill-rule="evenodd" clip-rule="evenodd" d="M373.14 183.293C373.14 183.845 373.588 184.293 374.14 184.293H388.95C391.567 184.434 394.157 183.698 396.31 182.203C397.261 181.468 398.021 180.514 398.524 179.422C399.027 178.33 399.259 177.133 399.2 175.933C399.2 172.333 397.42 168.043 388.95 168.043H374.14C373.588 168.043 373.14 168.49 373.14 169.043V183.293ZM388.95 181.293H377.14C376.588 181.293 376.14 180.845 376.14 180.293V172.043C376.14 171.49 376.588 171.043 377.14 171.043H388.95C395.38 171.043 396.2 173.653 396.2 175.933C396.251 176.673 396.121 177.416 395.821 178.095C395.522 178.774 395.061 179.371 394.48 179.833C392.844 180.908 390.903 181.42 388.95 181.293Z" fill="black" fill-opacity="0.5"/>
<path fill-rule="evenodd" clip-rule="evenodd" d="M345.7 202.813C345.7 203.365 346.148 203.813 346.7 203.813H390.84C402.1 203.813 410.92 201.173 417.43 196.173C423.94 191.173 427.23 184.053 427.23 175.173C427.23 166.613 424.32 159.953 418.57 155.373C412.92 150.873 404.78 148.593 394.39 148.593H377.14C376.588 148.593 376.14 148.145 376.14 147.593V143.013C376.14 142.46 376.588 142.013 377.14 142.013H419.49C420.042 142.013 420.49 141.565 420.49 141.013V119.013C420.49 118.46 420.042 118.013 419.49 118.013H346.7C346.148 118.013 345.7 118.46 345.7 119.013V202.813ZM390.84 200.813H349.7C349.148 200.813 348.7 200.365 348.7 199.813V122.063C348.7 121.51 349.148 121.063 349.7 121.063H416.49C417.042 121.063 417.49 121.51 417.49 122.063V138.063C417.49 138.615 417.042 139.063 416.49 139.063H374.14C373.588 139.063 373.14 139.51 373.14 140.063V150.643C373.14 151.195 373.588 151.643 374.14 151.643H394.38C404.08 151.643 411.62 153.723 416.69 157.763C421.76 161.803 424.22 167.513 424.22 175.223C424.22 183.243 421.43 189.333 415.58 193.913C409.73 198.493 401.41 200.813 390.84 200.813Z" fill="black" fill-opacity="0.5"/>
<path fill-rule="evenodd" clip-rule="evenodd" d="M505.648 202.811C505.649 203.364 505.201 203.813 504.648 203.813H434.82C434.268 203.813 433.82 203.365 433.82 202.813V119.013C433.82 118.46 434.268 118.013 434.82 118.013H503.12C503.672 118.013 504.12 118.46 504.12 119.013V141.013C504.12 141.565 503.672 142.013 503.12 142.013H465.22C464.668 142.013 464.22 142.46 464.22 143.013V147.713C464.22 148.265 464.668 148.713 465.22 148.713H498.22C498.772 148.713 499.22 149.16 499.22 149.713V170.823C499.22 171.375 498.772 171.823 498.22 171.823H465.22C464.668 171.823 464.22 172.27 464.22 172.823V178.703C464.22 179.255 464.668 179.703 465.22 179.703H504.612C505.163 179.703 505.611 180.149 505.612 180.701L505.648 202.811ZM436.82 199.813C436.82 200.365 437.268 200.813 437.82 200.813H501.65C502.202 200.813 502.65 200.365 502.65 199.813V183.753C502.65 183.2 502.202 182.753 501.65 182.753H462.22C461.668 182.753 461.22 182.305 461.22 181.753V169.873C461.22 169.32 461.668 168.873 462.22 168.873H495.22C495.772 168.873 496.22 168.425 496.22 167.873V152.763C496.22 152.21 495.772 151.763 495.22 151.763H462.22C461.668 151.763 461.22 151.315 461.22 150.763V140.063C461.22 139.51 461.668 139.063 462.22 139.063H500.12C500.672 139.063 501.12 138.615 501.12 138.063V122.063C501.12 121.51 500.672 121.063 500.12 121.063H437.82C437.268 121.063 436.82 121.51 436.82 122.063V199.813Z" fill="black" fill-opacity="0.5"/>
</g>
<g filter="url(#filter5_d_903_2217)">
<path fill-rule="evenodd" clip-rule="evenodd" d="M541.92 150.933C541.92 151.485 542.368 151.933 542.92 151.933H553.59C557.83 151.933 561.06 150.923 563.22 148.933C564.311 147.87 565.163 146.588 565.72 145.17C566.277 143.753 566.526 142.233 566.45 140.713C566.518 139.193 566.262 137.676 565.7 136.263C565.138 134.849 564.283 133.571 563.19 132.513C561.06 130.513 557.83 129.513 553.59 129.513H542.92C542.368 129.513 541.92 129.96 541.92 130.513V150.933ZM553.59 148.933H545.92C545.368 148.933 544.92 148.485 544.92 147.933V133.553C544.92 133 545.368 132.553 545.92 132.553H553.59C557.04 132.553 559.58 133.293 561.14 134.743C561.93 135.52 562.545 136.458 562.944 137.493C563.342 138.528 563.515 139.636 563.45 140.743C563.516 141.85 563.344 142.958 562.946 143.993C562.547 145.028 561.931 145.966 561.14 146.743C559.59 148.203 557.05 148.933 553.59 148.933Z" fill="url(#paint12_linear_903_2217)"/>
<path fill-rule="evenodd" clip-rule="evenodd" d="M514.01 192.813C514.01 193.365 514.458 193.813 515.01 193.813H543.92C544.472 193.813 544.92 193.365 544.92 192.813V174.513C544.92 173.96 545.368 173.513 545.92 173.513H555.37C562.466 173.666 569.513 172.302 576.04 169.513C581.599 167.099 586.352 163.147 589.74 158.123C593.048 152.939 594.74 146.89 594.6 140.743C594.738 134.577 593.047 128.509 589.74 123.303C586.372 118.261 581.608 114.309 576.03 111.933C569.495 109.19 562.456 107.854 555.37 108.013H515.01C514.458 108.013 514.01 108.46 514.01 109.013V192.813ZM541.92 189.813C541.92 190.365 541.472 190.813 540.92 190.813H518.01C517.458 190.813 517.01 190.365 517.01 189.813V112.013C517.01 111.46 517.458 111.013 518.01 111.013H555.36C562.021 110.856 568.64 112.1 574.79 114.663C579.84 116.815 584.158 120.386 587.22 124.943C590.212 129.674 591.733 135.186 591.59 140.783C591.728 146.344 590.207 151.82 587.22 156.513C584.144 161.059 579.83 164.629 574.79 166.803C568.654 169.407 562.034 170.671 555.37 170.513H542.92C542.368 170.513 541.92 170.96 541.92 171.513V189.813Z" fill="url(#paint13_linear_903_2217)"/>
<path fill-rule="evenodd" clip-rule="evenodd" d="M246.267 192.314C246.651 192.981 246.17 193.813 245.401 193.813H212.821C212.451 193.813 212.112 193.608 211.938 193.281L196.622 164.414C196.448 164.087 196.109 163.883 195.739 163.883H191.96C191.408 163.883 190.96 164.33 190.96 164.883V192.813C190.96 193.365 190.512 193.813 189.96 193.813H161C160.448 193.813 160 193.365 160 192.813V109.013C160 108.46 160.448 108.013 161 108.013H189.91C190.462 108.013 190.91 108.46 190.91 109.013V137.883C190.91 138.435 191.358 138.883 191.91 138.883H196.519C196.878 138.883 197.21 138.69 197.388 138.378L214.392 108.518C214.57 108.206 214.902 108.013 215.261 108.013H245.543C246.325 108.013 246.805 108.869 246.396 109.536L222.061 149.206C221.869 149.518 221.864 149.91 222.046 150.228L246.267 192.314ZM213.688 190.281C213.862 190.608 214.201 190.813 214.572 190.813H240.24C241.009 190.813 241.491 189.98 241.107 189.314L218.567 150.178C218.384 149.86 218.389 149.468 218.581 149.156L241.036 112.535C241.445 111.869 240.965 111.013 240.184 111.013H217.011C216.652 111.013 216.32 111.206 216.142 111.518L199.138 141.378C198.96 141.69 198.628 141.883 198.269 141.883H188.91C188.358 141.883 187.91 141.435 187.91 140.883V112.013C187.91 111.46 187.462 111.013 186.91 111.013H164C163.448 111.013 163 111.46 163 112.013V189.813C163 190.365 163.448 190.813 164 190.813H186.91C187.462 190.813 187.91 190.365 187.91 189.813V161.883C187.91 161.33 188.358 160.883 188.91 160.883H197.498C197.869 160.883 198.208 161.087 198.382 161.414L213.688 190.281Z" fill="url(#paint14_linear_903_2217)"/>
<path fill-rule="evenodd" clip-rule="evenodd" d="M334.03 192.813C334.03 193.365 333.582 193.813 333.03 193.813H304.59C304.038 193.813 303.59 193.365 303.59 192.813V157.689C303.59 156.697 302.303 156.31 301.756 157.137L277.807 193.364C277.621 193.644 277.308 193.813 276.972 193.813H249.83C249.278 193.813 248.83 193.365 248.83 192.813V109.013C248.83 108.46 249.278 108.013 249.83 108.013H278.27C278.822 108.013 279.27 108.46 279.27 109.013V144.261C279.27 145.252 280.557 145.639 281.104 144.813L305.173 108.461C305.359 108.181 305.672 108.013 306.007 108.013H333.03C333.582 108.013 334.03 108.46 334.03 109.013V192.813ZM306.59 189.813C306.59 190.365 307.038 190.813 307.59 190.813H330.03C330.582 190.813 331.03 190.365 331.03 189.813V112.013C331.03 111.46 330.582 111.013 330.03 111.013H307.617C307.282 111.013 306.969 111.181 306.783 111.46L278.104 154.745C277.556 155.571 276.27 155.184 276.27 154.193V112.013C276.27 111.46 275.822 111.013 275.27 111.013H252.83C252.278 111.013 251.83 111.46 251.83 112.013V189.813C251.83 190.365 252.278 190.813 252.83 190.813H275.362C275.698 190.813 276.011 190.644 276.197 190.364L304.756 147.158C305.302 146.331 306.59 146.718 306.59 147.709V189.813Z" fill="url(#paint15_linear_903_2217)"/>
<path fill-rule="evenodd" clip-rule="evenodd" d="M373.14 173.293C373.14 173.845 373.588 174.293 374.14 174.293H388.95C391.567 174.434 394.157 173.698 396.31 172.203C397.261 171.468 398.021 170.514 398.524 169.422C399.027 168.33 399.259 167.133 399.2 165.933C399.2 162.333 397.42 158.043 388.95 158.043H374.14C373.588 158.043 373.14 158.49 373.14 159.043V173.293ZM388.95 171.293H377.14C376.588 171.293 376.14 170.845 376.14 170.293V162.043C376.14 161.49 376.588 161.043 377.14 161.043H388.95C395.38 161.043 396.2 163.653 396.2 165.933C396.251 166.673 396.121 167.416 395.821 168.095C395.522 168.774 395.061 169.371 394.48 169.833C392.844 170.908 390.903 171.42 388.95 171.293Z" fill="url(#paint16_linear_903_2217)"/>
<path fill-rule="evenodd" clip-rule="evenodd" d="M345.7 192.813C345.7 193.365 346.148 193.813 346.7 193.813H390.84C402.1 193.813 410.92 191.173 417.43 186.173C423.94 181.173 427.23 174.053 427.23 165.173C427.23 156.613 424.32 149.953 418.57 145.373C412.92 140.873 404.78 138.593 394.39 138.593H377.14C376.588 138.593 376.14 138.145 376.14 137.593V133.013C376.14 132.46 376.588 132.013 377.14 132.013H419.49C420.042 132.013 420.49 131.565 420.49 131.013V109.013C420.49 108.46 420.042 108.013 419.49 108.013H346.7C346.148 108.013 345.7 108.46 345.7 109.013V192.813ZM390.84 190.813H349.7C349.148 190.813 348.7 190.365 348.7 189.813V112.063C348.7 111.51 349.148 111.063 349.7 111.063H416.49C417.042 111.063 417.49 111.51 417.49 112.063V128.063C417.49 128.615 417.042 129.063 416.49 129.063H374.14C373.588 129.063 373.14 129.51 373.14 130.063V140.643C373.14 141.195 373.588 141.643 374.14 141.643H394.38C404.08 141.643 411.62 143.723 416.69 147.763C421.76 151.803 424.22 157.513 424.22 165.223C424.22 173.243 421.43 179.333 415.58 183.913C409.73 188.493 401.41 190.813 390.84 190.813Z" fill="url(#paint17_linear_903_2217)"/>
<path fill-rule="evenodd" clip-rule="evenodd" d="M505.648 192.811C505.649 193.364 505.201 193.813 504.648 193.813H434.82C434.268 193.813 433.82 193.365 433.82 192.813V109.013C433.82 108.46 434.268 108.013 434.82 108.013H503.12C503.672 108.013 504.12 108.46 504.12 109.013V131.013C504.12 131.565 503.672 132.013 503.12 132.013H465.22C464.668 132.013 464.22 132.46 464.22 133.013V137.713C464.22 138.265 464.668 138.713 465.22 138.713H498.22C498.772 138.713 499.22 139.16 499.22 139.713V160.823C499.22 161.375 498.772 161.823 498.22 161.823H465.22C464.668 161.823 464.22 162.27 464.22 162.823V168.703C464.22 169.255 464.668 169.703 465.22 169.703H504.612C505.163 169.703 505.611 170.149 505.612 170.701L505.648 192.811ZM436.82 189.813C436.82 190.365 437.268 190.813 437.82 190.813H501.65C502.202 190.813 502.65 190.365 502.65 189.813V173.753C502.65 173.2 502.202 172.753 501.65 172.753H462.22C461.668 172.753 461.22 172.305 461.22 171.753V159.873C461.22 159.32 461.668 158.873 462.22 158.873H495.22C495.772 158.873 496.22 158.425 496.22 157.873V142.763C496.22 142.21 495.772 141.763 495.22 141.763H462.22C461.668 141.763 461.22 141.315 461.22 140.763V130.063C461.22 129.51 461.668 129.063 462.22 129.063H500.12C500.672 129.063 501.12 128.615 501.12 128.063V112.063C501.12 111.51 500.672 111.063 500.12 111.063H437.82C437.268 111.063 436.82 111.51 436.82 112.063V189.813Z" fill="url(#paint18_linear_903_2217)"/>
</g>
<defs>
<filter id="filter0_f_903_2217" x="42" y="0.0126953" width="668" height="302" filterUnits="userSpaceOnUse" color-interpolation-filters="sRGB">
<feFlood flood-opacity="0" result="BackgroundImageFix"/>
<feBlend mode="normal" in="SourceGraphic" in2="BackgroundImageFix" result="shape"/>
<feGaussianBlur stdDeviation="54" result="effect1_foregroundBlur_903_2217"/>
</filter>
<filter id="filter1_f_903_2217" x="0" y="49.0127" width="752" height="253" filterUnits="userSpaceOnUse" color-interpolation-filters="sRGB">
<feFlood flood-opacity="0" result="BackgroundImageFix"/>
<feBlend mode="normal" in="SourceGraphic" in2="BackgroundImageFix" result="shape"/>
<feGaussianBlur stdDeviation="54" result="effect1_foregroundBlur_903_2217"/>
</filter>
<filter id="filter2_f_903_2217" x="155" y="103" width="444.608" height="95.8127" filterUnits="userSpaceOnUse" color-interpolation-filters="sRGB">
<feFlood flood-opacity="0" result="BackgroundImageFix"/>
<feBlend mode="normal" in="SourceGraphic" in2="BackgroundImageFix" result="shape"/>
<feGaussianBlur stdDeviation="2.5" result="effect1_foregroundBlur_903_2217"/>
</filter>
<filter id="filter3_f_903_2217" x="155" y="103" width="444.608" height="95.8127" filterUnits="userSpaceOnUse" color-interpolation-filters="sRGB">
<feFlood flood-opacity="0" result="BackgroundImageFix"/>
<feBlend mode="normal" in="SourceGraphic" in2="BackgroundImageFix" result="shape"/>
<feGaussianBlur stdDeviation="2.5" result="effect1_foregroundBlur_903_2217"/>
</filter>
<filter id="filter4_f_903_2217" x="156" y="114" width="442.608" height="93.8127" filterUnits="userSpaceOnUse" color-interpolation-filters="sRGB">
<feFlood flood-opacity="0" result="BackgroundImageFix"/>
<feBlend mode="normal" in="SourceGraphic" in2="BackgroundImageFix" result="shape"/>
<feGaussianBlur stdDeviation="2" result="effect1_foregroundBlur_903_2217"/>
</filter>
<filter id="filter5_d_903_2217" x="149" y="97" width="456.608" height="107.813" filterUnits="userSpaceOnUse" color-interpolation-filters="sRGB">
<feFlood flood-opacity="0" result="BackgroundImageFix"/>
<feColorMatrix in="SourceAlpha" type="matrix" values="0 0 0 0 0 0 0 0 0 0 0 0 0 0 0 0 0 0 127 0" result="hardAlpha"/>
<feOffset/>
<feGaussianBlur stdDeviation="5.5"/>
<feComposite in2="hardAlpha" operator="out"/>
<feColorMatrix type="matrix" values="0 0 0 0 0 0 0 0 0 0.58 0 0 0 0 1 0 0 0 1 0"/>
<feBlend mode="normal" in2="BackgroundImageFix" result="effect1_dropShadow_903_2217"/>
<feBlend mode="normal" in="SourceGraphic" in2="effect1_dropShadow_903_2217" result="shape"/>
</filter>
<linearGradient id="paint0_linear_903_2217" x1="243.5" y1="127.013" x2="553.5" y2="194.013" gradientUnits="userSpaceOnUse">
<stop stop-color="#2F45F4"/>
<stop offset="1" stop-color="#FF0099" stop-opacity="0"/>
</linearGradient>
<linearGradient id="paint1_linear_903_2217" x1="218.876" y1="165.187" x2="502.875" y2="334.369" gradientUnits="userSpaceOnUse">
<stop stop-color="#2F45F4"/>
<stop offset="1" stop-color="#FF0099"/>
</linearGradient>
<linearGradient id="paint2_linear_903_2217" x1="510.857" y1="119.513" x2="595.856" y2="122.237" gradientUnits="userSpaceOnUse">
<stop stop-color="#8000FF"/>
<stop offset="1" stop-color="#FF00C7"/>
</linearGradient>
<linearGradient id="paint3_linear_903_2217" x1="510.857" y1="119.513" x2="595.856" y2="122.237" gradientUnits="userSpaceOnUse">
<stop stop-color="#8000FF"/>
<stop offset="1" stop-color="#FF00C7"/>
</linearGradient>
<linearGradient id="paint4_linear_903_2217" x1="510.857" y1="119.513" x2="595.856" y2="122.237" gradientUnits="userSpaceOnUse">
<stop stop-color="#8000FF"/>
<stop offset="1" stop-color="#FF00C7"/>
</linearGradient>
<linearGradient id="paint5_linear_903_2217" x1="510.857" y1="119.513" x2="595.856" y2="122.237" gradientUnits="userSpaceOnUse">
<stop stop-color="#8000FF"/>
<stop offset="1" stop-color="#FF00C7"/>
</linearGradient>
<linearGradient id="paint6_linear_903_2217" x1="510.857" y1="119.513" x2="595.856" y2="122.237" gradientUnits="userSpaceOnUse">
<stop stop-color="#8000FF"/>
<stop offset="1" stop-color="#FF00C7"/>
</linearGradient>
<linearGradient id="paint7_linear_903_2217" x1="510.857" y1="119.513" x2="595.856" y2="122.237" gradientUnits="userSpaceOnUse">
<stop stop-color="#8000FF"/>
<stop offset="1" stop-color="#FF00C7"/>
</linearGradient>
<linearGradient id="paint8_linear_903_2217" x1="510.857" y1="119.513" x2="595.856" y2="122.237" gradientUnits="userSpaceOnUse">
<stop stop-color="#8000FF"/>
<stop offset="1" stop-color="#FF00C7"/>
</linearGradient>
<linearGradient id="paint9_linear_903_2217" x1="510.857" y1="119.513" x2="595.856" y2="122.237" gradientUnits="userSpaceOnUse">
<stop stop-color="#8000FF"/>
<stop offset="1" stop-color="#FF00C7"/>
</linearGradient>
<linearGradient id="paint10_linear_903_2217" x1="510.857" y1="119.513" x2="595.856" y2="122.237" gradientUnits="userSpaceOnUse">
<stop stop-color="#8000FF"/>
<stop offset="1" stop-color="#FF00C7"/>
</linearGradient>
<linearGradient id="paint11_linear_903_2217" x1="510.857" y1="119.513" x2="595.856" y2="122.237" gradientUnits="userSpaceOnUse">
<stop stop-color="#8000FF"/>
<stop offset="1" stop-color="#FF00C7"/>
</linearGradient>
<linearGradient id="paint12_linear_903_2217" x1="513.268" y1="105.513" x2="598.609" y2="108.829" gradientUnits="userSpaceOnUse">
<stop stop-color="#00D1FF"/>
<stop offset="1" stop-color="#00A3FF"/>
</linearGradient>
<linearGradient id="paint13_linear_903_2217" x1="513.268" y1="105.513" x2="598.609" y2="108.829" gradientUnits="userSpaceOnUse">
<stop stop-color="#00D1FF"/>
<stop offset="1" stop-color="#00A3FF"/>
</linearGradient>
<linearGradient id="paint14_linear_903_2217" x1="513.268" y1="105.513" x2="598.609" y2="108.829" gradientUnits="userSpaceOnUse">
<stop stop-color="#00D1FF"/>
<stop offset="1" stop-color="#00A3FF"/>
</linearGradient>
<linearGradient id="paint15_linear_903_2217" x1="513.268" y1="105.513" x2="598.609" y2="108.829" gradientUnits="userSpaceOnUse">
<stop stop-color="#00D1FF"/>
<stop offset="1" stop-color="#00A3FF"/>
</linearGradient>
<linearGradient id="paint16_linear_903_2217" x1="513.268" y1="105.513" x2="598.609" y2="108.829" gradientUnits="userSpaceOnUse">
<stop stop-color="#00D1FF"/>
<stop offset="1" stop-color="#00A3FF"/>
</linearGradient>
<linearGradient id="paint17_linear_903_2217" x1="513.268" y1="105.513" x2="598.609" y2="108.829" gradientUnits="userSpaceOnUse">
<stop stop-color="#00D1FF"/>
<stop offset="1" stop-color="#00A3FF"/>
</linearGradient>
<linearGradient id="paint18_linear_903_2217" x1="513.268" y1="105.513" x2="598.609" y2="108.829" gradientUnits="userSpaceOnUse">
<stop stop-color="#00D1FF"/>
<stop offset="1" stop-color="#00A3FF"/>
</linearGradient>
</defs>
</svg>
