<svg width="30" height="31" viewBox="0 0 30 31" fill="none" xmlns="http://www.w3.org/2000/svg">
<path d="M14.7591 24.5535C16.5787 24.5535 17.9939 25.9637 17.9939 27.7768C17.9939 29.5898 16.5787 31 14.7591 31C12.9395 31 11.5242 29.5898 11.5242 27.7768C11.5242 25.9637 12.9395 24.5535 14.7591 24.5535ZM6.773 24.1506C11.8275 22.539 17.2863 20.9274 22.3408 19.3158C23.0484 19.1144 23.3517 18.8122 23.3517 17.6035L23.655 4.91203L29.4171 1.99099C29.9225 1.78953 30.1247 1.08445 29.9225 0.580826C29.7203 0.0771969 29.0127 -0.124255 28.5073 0.0771969L22.8463 2.99824C22.1386 3.40115 21.7343 4.10623 21.6332 4.91203L21.5321 6.82582L1.21308 8.43743C0.505449 8.43743 0 9.14251 0 9.84759C0 10.049 0.10109 10.1498 0.10109 10.3512L4.8523 23.1434C5.15557 23.9492 5.96429 24.3521 6.773 24.1506ZM24.6659 19.8194C25.5757 19.8194 26.3844 20.6252 26.3844 21.5318C26.3844 22.4383 25.5757 23.2441 24.6659 23.2441C23.7561 23.2441 22.9473 22.4383 22.9473 21.5318C22.9473 20.6252 23.7561 19.8194 24.6659 19.8194Z" fill="#2F45F4"/>
</svg>
