<svg width="139" height="139" viewBox="0 0 139 139" fill="none" xmlns="http://www.w3.org/2000/svg">
<path d="M55.0029 72.8158L6.4119 121.417C5.86473 121.964 5.55737 122.707 5.55737 123.481C5.55737 124.256 5.86473 124.998 6.4119 125.546L12.918 132.062C13.1894 132.334 13.512 132.551 13.8671 132.698C14.2223 132.845 14.6031 132.921 14.9876 132.921C15.3722 132.921 15.753 132.845 16.1081 132.698C16.4633 132.551 16.7859 132.334 17.0573 132.062L65.6483 83.4613M76.7905 72.3288L103.38 45.7396L92.7342 35.0942M92.7342 35.0942L66.145 61.6834M92.7342 35.0942L92.8803 33.4677C93.0463 31.5291 93.8914 29.7114 95.2665 28.335L97.2145 26.3871L87.6599 18.8972C84.6311 16.5353 81.312 14.5714 77.7839 13.0534L62.8043 6.60581C62.2172 6.26805 61.7407 5.76703 61.433 5.16359C61.1252 4.56016 60.9994 3.88031 61.0707 3.20669C61.1018 2.88534 61.2499 2.58662 61.487 2.36749C61.7241 2.14836 62.0336 2.0241 62.3564 2.01842C68.0638 1.88207 93.3479 2.13535 108.259 16.2481L120.054 28.0427C120.663 28.6666 121.011 29.499 121.028 30.3705L121.135 35.9708L127.953 42.7886L120.853 49.8887L114.035 43.0709L111.999 43.1294C110.169 43.1877 108.365 43.5874 106.681 44.3079L103.389 45.7299M21.4597 28.1304L23.6121 20.5822L16.882 13.8619C15.46 12.4301 16.7359 11.0179 18.1579 9.58615C21.1382 6.66426 41.3967 9.98543 38.1631 33.7014L104.276 99.814C104.276 99.814 127.816 93.8826 130.329 119.04L124.398 119.576L118.291 113.469L109.311 115.982L106.798 124.962L112.905 131.078L112.36 137C87.2119 134.487 93.1433 110.956 93.1433 110.956L27.021 44.8339C3.30496 48.0674 -0.0649496 27.809 2.91538 24.8286C4.33736 23.4066 5.75935 22.1308 7.18134 23.5626L13.9115 30.2829L21.4597 28.1304ZM118.96 51.7052L129.669 40.996C130.811 39.8549 132.661 39.8549 133.802 40.996L136.24 43.4339C137.381 44.575 137.381 46.425 136.24 47.5661L125.53 58.2753C124.389 59.4164 122.539 59.4164 121.398 58.2753L118.96 55.8374C117.819 54.6963 117.819 52.8463 118.96 51.7052Z" stroke="url(#paint0_linear_904_2290)" stroke-width="3" stroke-linecap="round" stroke-linejoin="round"/>
<defs>
<linearGradient id="paint0_linear_904_2290" x1="69.5477" y1="2" x2="69.5477" y2="137" gradientUnits="userSpaceOnUse">
<stop stop-color="#00F0FF"/>
<stop offset="1" stop-color="#C071FF"/>
</linearGradient>
</defs>
</svg>
