<svg width="137" height="140" viewBox="0 0 137 140" fill="none" xmlns="http://www.w3.org/2000/svg">
<path d="M2 127.507V12.4642C2 9.6889 3.10248 7.02732 5.06489 5.06491C7.0273 3.1025 9.68891 2 12.4642 2H93.8545C94.6871 2 95.4855 2.33072 96.0742 2.91945C96.663 3.50817 96.9937 4.30667 96.9937 5.13925V115.965M96.9937 115.965C96.9937 116.798 96.663 117.596 96.0742 118.185C95.4855 118.774 94.6871 119.105 93.8545 119.105H9.95276C7.84259 119.107 5.81982 119.947 4.32868 121.441C2.83755 122.934 2 124.958 2 127.068C2 129.843 3.10248 132.505 5.06489 134.467C7.0273 136.429 9.68891 137.532 12.4642 137.532H91.7616C93.1493 137.532 94.4801 136.981 95.4613 135.999C96.4425 135.018 96.9937 133.687 96.9937 132.3V115.965ZM77.8652 63.2154H21.3587M77.8652 73.1563H21.3587M111.989 105.658V29.6359H135.46V105.658L123.73 126.681L111.989 105.658ZM111.989 105.658L119.314 101.431M119.314 101.431V29.7719M119.314 101.431L123.73 105.48L128.135 101.431M128.135 101.431V29.7719M128.135 101.431L135.46 105.669M20.9401 26.8H78.064V49.9363H20.9401V26.8ZM117.221 15.3104H130.186C131.574 15.3104 132.904 15.8616 133.886 16.8428C134.867 17.824 135.418 19.1548 135.418 20.5425V29.6463H111.989V20.5425C111.989 19.1548 112.54 17.824 113.521 16.8428C114.503 15.8616 115.833 15.3104 117.221 15.3104Z" stroke="url(#paint0_linear_904_2368)" stroke-width="3" stroke-linecap="round" stroke-linejoin="round"/>
<defs>
<linearGradient id="paint0_linear_904_2368" x1="68.73" y1="2" x2="68.73" y2="137.532" gradientUnits="userSpaceOnUse">
<stop stop-color="#00F0FF"/>
<stop offset="1" stop-color="#C071FF"/>
</linearGradient>
</defs>
</svg>
