<svg width="162" height="40" viewBox="0 0 162 40" fill="none" xmlns="http://www.w3.org/2000/svg">
<path d="M21.3992 13.3367L16.5986 5.93467L17.0868 4.6612L27.4203 2.51222C27.9085 2.43263 28.1526 2.59181 27.8272 3.06936L22.2129 13.2571C21.9688 13.7347 21.6433 13.6551 21.3992 13.3367Z" fill="url(#paint0_linear_923_3202)"/>
<path d="M21.7247 8.7204V2.59183C21.7247 2.11428 21.562 1.79591 20.9924 1.71632L13.9949 0.99999C13.4254 0.920398 13.344 1.31836 13.344 1.71632L14.1577 9.03877C14.1577 9.35713 14.4018 9.6755 14.8086 9.6755H14.9713L21.1551 9.35713C21.562 9.43672 21.7247 9.19795 21.7247 8.7204Z" fill="url(#paint1_linear_923_3202)"/>
<path d="M11.8795 34.8266C13.344 34.8266 14.4832 35.9408 14.4832 37.3735C14.4832 38.8062 13.344 39.9204 11.8795 39.9204C10.4149 39.9204 9.27574 38.8062 9.27574 37.3735C9.27574 35.9408 10.4149 34.8266 11.8795 34.8266ZM5.45153 34.5082C9.51984 33.2347 13.9136 31.9613 17.9819 30.6878C18.5515 30.5286 18.7956 30.2898 18.7956 29.3347L19.0397 19.3062L23.6775 16.998C24.0844 16.8388 24.2471 16.2817 24.0844 15.8837C23.9216 15.4857 23.3521 15.3266 22.9453 15.4857L18.3888 17.7939C17.8192 18.1123 17.4937 18.6694 17.4124 19.3062L17.331 20.8184L0.976394 22.0919C0.406831 22.0919 0 22.649 0 23.2062C0 23.3653 0.0813661 23.4449 0.0813661 23.6041L3.90558 33.7123C4.14967 34.349 4.8006 34.6674 5.45153 34.5082ZM19.8533 31.0857C20.5856 31.0857 21.2366 31.7225 21.2366 32.4388C21.2366 33.1551 20.5856 33.7919 19.8533 33.7919C19.121 33.7919 18.4701 33.1551 18.4701 32.4388C18.4701 31.7225 19.121 31.0857 19.8533 31.0857Z" fill="url(#paint2_linear_923_3202)"/>
<path d="M7.97387 12.2225L6.83475 17.0776L1.46458 19.5449C1.05775 19.7041 1.05775 20.102 1.38321 20.2612L5.61425 22.5694L4.63786 29.4143C4.55649 29.7327 4.88196 29.9714 5.28879 29.5735L10.8217 24.002L16.5173 25.0367C17.2496 25.1959 17.1682 24.7184 17.0055 24.4796L14.3204 19.2265L18.4701 12.7796C18.7142 12.3816 18.4701 12.0633 18.0633 12.2225L11.2285 14.9286L8.54344 11.9041C8.29934 11.5857 8.05524 11.9041 7.97387 12.2225Z" fill="url(#paint3_linear_923_3202)"/>
<path d="M33.5229 1.23876L32.6278 1.71631L31.4073 1.47753C31.0819 1.39794 31.0819 1.47753 31.0819 1.71631L31.2446 2.59182L30.1868 3.46733C30.0241 3.62651 30.1055 3.7857 30.3496 3.7857L31.9769 3.70611L32.7906 4.58162C32.9533 4.7408 33.116 4.66121 33.1974 4.50202L33.6856 3.38774L35.4756 2.8306C35.7197 2.8306 35.7197 2.59182 35.4756 2.59182L33.8483 2.11427V1.39794C33.8483 0.999983 33.6856 1.07958 33.5229 1.23876Z" fill="url(#paint4_linear_923_3202)"/>
<path d="M4.3938 21.8531L5.61429 22.4898L4.6379 29.3347C4.55653 29.653 4.882 29.8918 5.28883 29.4939L10.8217 23.9224L16.5174 24.9571C17.2497 25.1163 17.1683 24.6388 17.0056 24.4L15.2155 20.8979L4.3938 21.8531Z" fill="url(#paint5_linear_923_3202)"/>
<path d="M21.7247 8.7204L21.7248 3.70612L16.5987 4.74081C16.1919 4.8204 16.1919 5.29795 16.3546 5.53673L18.9583 9.51632L21.0738 9.43673C21.562 9.43673 21.7247 9.19795 21.7247 8.7204Z" fill="url(#paint6_linear_923_3202)"/>
<path d="M70.7072 23.6041L72.5786 15.3266C71.114 15.0082 69.6494 14.7694 68.1848 14.7694C65.8252 14.7694 64.1165 15.3266 62.8146 16.8388C60.6177 19.3061 59.9668 22.9674 58.8277 24.798C58.3395 25.5939 55.7358 26.0715 55.0035 25.7531C55.0035 25.7531 55.1662 24.7184 55.4103 23.9225L55.8171 22.3306C56.0612 21.2959 56.224 20.2613 56.3053 19.2266C56.3053 15.5653 53.1321 14.849 50.6097 14.849C48.7383 14.849 46.9482 15.247 45.2395 15.9633L45.8091 18.749C47.111 18.1919 48.4942 17.8735 49.8774 17.8735C51.7488 17.8735 52.3184 18.5898 52.3184 19.6245C52.3184 19.7041 52.3184 20.0225 52.237 20.2613H50.8538C48.2501 20.2613 45.8905 20.7388 44.3445 22.0919C43.2868 23.047 42.7172 24.3204 42.7986 25.7531C42.7172 27.7429 44.2632 29.4939 46.3787 29.5735H46.8669C48.6569 29.4939 50.2842 28.6184 51.2606 27.1857C51.5047 28.9368 52.9693 29.6531 54.7594 29.5735C57.119 29.4939 61.1059 28.7776 62.3264 26.151C63.4656 23.8429 64.2792 21.2164 65.5811 19.3062C65.9879 18.5898 66.8016 18.1919 67.6152 18.1919H68.0221L66.7202 23.8429C66.232 25.8327 66.4761 27.9817 67.5339 29.8123L71.2767 28.4592C70.4631 26.947 70.3003 25.1959 70.7885 23.6041M51.5861 23.2062C51.1793 24.8776 49.7147 26.0715 48.006 26.2306C47.111 26.2306 46.6228 25.8327 46.6228 24.9572C46.6228 24.4796 46.7855 24.0021 47.1923 23.6837C47.8433 23.047 49.0638 22.7286 50.9352 22.7286H51.7488L51.5861 23.2062ZM105.206 23.6041L107.078 15.1674H103.254L99.348 19.7041C98.6971 20.4204 98.0462 21.1368 97.558 21.9327H97.3952C96.5816 19.6245 95.6866 17.3959 94.6288 15.1674H91.4555C90.7232 18.8286 89.9096 22.7286 88.9332 24.4796C88.445 25.4347 85.7599 26.3102 84.7835 25.9919C84.8649 25.2755 85.0276 24.6388 85.1903 23.9225L85.5972 22.3306C85.8412 21.2959 86.004 20.2613 86.0854 19.2266C86.0854 15.5653 82.9121 14.849 80.3897 14.849C78.5183 14.849 76.7282 15.247 75.0196 15.9633L75.5891 18.749C76.891 18.1919 78.2742 17.8735 79.6574 17.8735C81.5289 17.8735 82.0984 18.5898 82.0984 19.6245C82.0984 19.8633 82.0984 20.0225 82.0171 20.2613H80.6338C78.0301 20.2613 75.6705 20.7388 74.1245 22.0919C73.0668 23.047 72.4972 24.3204 72.5786 25.7531C72.4972 27.7429 74.0432 29.4939 76.1587 29.5735H76.6469C78.4369 29.4939 80.0643 28.6184 81.0406 27.1857C81.4475 30.2898 87.5499 29.9715 89.9909 28.3796C91.6996 27.2653 92.3505 25.8327 93.0015 23.8429C93.2456 23.047 93.4897 22.1715 93.6524 21.3755H93.7338C94.4661 22.9674 95.117 24.9572 95.6052 26.3898H97.3139L99.9176 23.3653C100.406 22.8082 101.138 21.9327 101.545 21.3755H101.626C100.894 23.9225 99.8362 27.1857 101.545 29.8123L105.451 28.3796C104.881 26.7878 104.718 25.1164 105.206 23.6041ZM81.6102 23.2062C81.2034 24.8776 79.7388 26.0715 78.0301 26.2306C77.1351 26.2306 76.5655 25.8327 76.5655 24.9572C76.5655 24.4796 76.7282 24.0021 77.1351 23.6837C77.786 23.047 79.0065 22.7286 80.8779 22.7286H81.6916L81.6102 23.2062ZM134.254 14.9286C132.139 14.451 130.267 15.0878 128.558 17.3959C128.64 16.3613 128.396 15.4061 127.826 14.5306L124.409 15.8041C124.816 16.6796 124.978 17.6347 124.816 18.5102L123.27 25.5939C122.375 26.0715 119.69 26.3102 119.364 25.9123C119.527 24.8776 119.934 23.4449 120.259 22.251C120.503 21.2164 120.666 20.1817 120.747 19.147C120.747 15.4857 117.574 14.7694 115.052 14.7694C113.18 14.7694 111.39 15.1674 109.682 15.8837L110.251 18.6694C111.553 18.1123 112.936 17.7939 114.319 17.7939C116.191 17.7939 116.76 18.5102 116.76 19.5449C116.76 19.6245 116.76 19.9429 116.679 20.1817H115.296C112.692 20.1817 110.332 20.6592 108.868 22.0123C107.81 22.9674 107.241 24.2408 107.322 25.6735C107.241 27.6633 108.787 29.4143 110.902 29.4939H111.39C113.18 29.4143 114.808 28.5388 115.784 27.1061C115.703 27.9817 118.795 30.449 122.7 29.0164L121.073 36.2592H125.141L126.768 29.0959C127.663 29.4143 128.64 29.5735 129.616 29.5735C134.335 29.5735 137.671 26.0715 137.834 20.9776C137.916 18.351 137.021 15.5653 134.498 15.0082M116.109 23.2857C115.703 24.9572 114.238 26.151 112.529 26.3102C111.634 26.3102 111.146 25.9123 111.146 25.0368C111.146 24.5592 111.309 24.0817 111.716 23.7633C112.367 23.1266 113.587 22.8082 115.459 22.8082H116.272L116.109 23.2857ZM133.603 21.2959C133.522 23.9225 131.894 26.2306 129.128 26.2306C128.477 26.2306 127.908 26.0715 127.338 25.9123L127.908 22.8082C128.721 18.351 133.847 16.1225 133.603 21.2959ZM138.16 29.1755H142.228L143.448 23.9225C143.693 22.4898 144.262 21.2164 145.076 20.0225C145.727 19.0674 146.703 18.4306 147.924 18.351C148.656 18.351 148.981 18.749 148.981 19.4653C148.981 19.9429 148.9 20.4204 148.737 20.898L146.866 29.1755H150.934L152.155 23.9225C152.399 22.4898 152.968 21.1368 153.863 20.0225C154.514 19.0674 155.491 18.4306 156.711 18.351C157.362 18.351 157.769 18.749 157.769 19.4653C157.769 19.9429 157.688 20.4204 157.525 20.898L156.304 26.3102C155.979 27.5837 156.06 29.0164 156.711 30.2102L160.535 28.8572C160.21 27.9817 160.129 27.0266 160.373 26.0715L161.512 21.0572C161.756 20.0225 161.919 18.9878 162 17.9531C162 15.9633 160.617 14.9286 158.583 14.9286C156.304 14.9286 154.27 16.5204 153.05 18.0327H152.968C152.968 15.9633 151.748 14.9286 149.795 14.9286C147.598 14.9286 145.564 16.4408 144.425 17.9531H144.344C144.506 16.8388 144.344 15.7245 143.937 14.6898L140.357 15.9633C140.682 16.8388 140.763 17.7143 140.601 18.5898L138.16 29.1755Z" fill="url(#paint7_linear_923_3202)"/>
<path d="M41.1712 8.95917C39.788 8.95917 35.8011 8.95917 34.8247 13.0979L31.1632 29.1755H35.8824L39.0557 14.7694C39.2998 13.7347 39.6253 12.7796 41.334 12.8592H48.006L48.7383 8.95917H41.1712Z" fill="url(#paint8_linear_923_3202)"/>
<defs>
<linearGradient id="paint0_linear_923_3202" x1="7" y1="12.5" x2="145.5" y2="33" gradientUnits="userSpaceOnUse">
<stop stop-color="#1436AC"/>
<stop offset="1" stop-color="#430063"/>
</linearGradient>
<linearGradient id="paint1_linear_923_3202" x1="7" y1="12.5" x2="145.5" y2="33" gradientUnits="userSpaceOnUse">
<stop stop-color="#1436AC"/>
<stop offset="1" stop-color="#430063"/>
</linearGradient>
<linearGradient id="paint2_linear_923_3202" x1="7" y1="12.5" x2="145.5" y2="33" gradientUnits="userSpaceOnUse">
<stop stop-color="#1436AC"/>
<stop offset="1" stop-color="#430063"/>
</linearGradient>
<linearGradient id="paint3_linear_923_3202" x1="7" y1="12.5" x2="145.5" y2="33" gradientUnits="userSpaceOnUse">
<stop stop-color="#1436AC"/>
<stop offset="1" stop-color="#430063"/>
</linearGradient>
<linearGradient id="paint4_linear_923_3202" x1="7" y1="12.5" x2="145.5" y2="33" gradientUnits="userSpaceOnUse">
<stop stop-color="#1436AC"/>
<stop offset="1" stop-color="#430063"/>
</linearGradient>
<linearGradient id="paint5_linear_923_3202" x1="7" y1="12.5" x2="145.5" y2="33" gradientUnits="userSpaceOnUse">
<stop stop-color="#1436AC"/>
<stop offset="1" stop-color="#430063"/>
</linearGradient>
<linearGradient id="paint6_linear_923_3202" x1="7" y1="12.5" x2="145.5" y2="33" gradientUnits="userSpaceOnUse">
<stop stop-color="#1436AC"/>
<stop offset="1" stop-color="#430063"/>
</linearGradient>
<linearGradient id="paint7_linear_923_3202" x1="7" y1="12.5" x2="145.5" y2="33" gradientUnits="userSpaceOnUse">
<stop stop-color="#1436AC"/>
<stop offset="1" stop-color="#430063"/>
</linearGradient>
<linearGradient id="paint8_linear_923_3202" x1="7" y1="12.5" x2="145.5" y2="33" gradientUnits="userSpaceOnUse">
<stop stop-color="#1436AC"/>
<stop offset="1" stop-color="#430063"/>
</linearGradient>
</defs>
</svg>
