<svg width="131" height="124" viewBox="0 0 131 124" fill="none" xmlns="http://www.w3.org/2000/svg">
<path d="M100.451 46.3008H121.566V122H9.43369V46.3008H30.4806M87.6244 46.3008H43.4897H87.1341M115.022 21.0716H129V46.3009H101.078M29.9562 46.3009H2V21.0716H15.8641M73.9769 30.8925V122H57.0231V30.8925M58.3798 15.1996L26.0341 2.16965C24.3581 1.48685 22.4997 2.96631 20.9719 4.79847C18.7047 7.56199 17.3152 10.9378 16.9814 14.494C16.6621 17.5774 16.6621 20.6854 16.9814 23.7687C17.313 27.3385 18.7157 30.7255 21.0061 33.4872C22.5567 35.3193 24.4265 36.7874 26.1139 36.0818L58.8245 22.4259M26.1139 36.1044L31.8716 47.5641C32.3103 48.4361 32.9664 49.1809 33.7767 49.7268C34.587 50.2728 35.5244 50.6016 36.4988 50.6816C37.4732 50.7616 38.4518 50.5902 39.3406 50.1837C40.2295 49.7773 40.9986 49.1494 41.5742 48.3606C47.8906 39.6664 58.414 26.8185 65.5171 26.8185M25.5438 11.8881L25.236 13.2422C24.279 17.5224 24.2091 21.9528 25.0308 26.2609L25.5438 28.9124M72.6202 15.1996L104.954 2.16965C106.642 1.48685 108.5 2.96631 110.028 4.79847C112.295 7.56199 113.685 10.9378 114.019 14.494C114.332 17.5777 114.332 20.6851 114.019 23.7687C113.682 27.3373 112.28 30.7229 109.994 33.4872C108.443 35.3193 106.573 36.7874 104.886 36.0818L72.1755 22.4259M104.886 36.1044L99.1854 47.5641C98.7467 48.4361 98.0906 49.1809 97.2803 49.7268C96.47 50.2728 95.5326 50.6016 94.5582 50.6816C93.5838 50.7616 92.6052 50.5902 91.7164 50.1837C90.8276 49.7773 90.0584 49.1494 89.4828 48.3606C83.1664 39.6664 72.6316 26.8185 65.5399 26.8185M105.422 11.8881L105.73 13.2422C106.698 17.5211 106.768 21.9538 105.935 26.2609L105.422 28.9124M58.2544 19.5695V16.531C58.2544 12.5338 61.4983 9.29341 65.4999 9.29341C69.5016 9.29341 72.7456 12.5338 72.7456 16.531V19.5695C72.7456 23.5667 69.5016 26.8071 65.4999 26.8071C61.4983 26.8071 58.2544 23.5667 58.2544 19.5695Z" stroke="url(#paint0_linear_904_2422)" stroke-width="3" stroke-linecap="round" stroke-linejoin="round"/>
<defs>
<linearGradient id="paint0_linear_904_2422" x1="65.5" y1="2" x2="65.5" y2="122" gradientUnits="userSpaceOnUse">
<stop stop-color="#00F0FF"/>
<stop offset="1" stop-color="#C071FF"/>
</linearGradient>
</defs>
</svg>
