<svg width="52" height="51" viewBox="0 0 52 51" fill="none" xmlns="http://www.w3.org/2000/svg">
<g filter="url(#filter0_f_943_3905)">
<path d="M35.6482 38.2279C36.6245 39.2042 38.2074 39.2043 39.1838 38.2279C40.1601 37.2516 40.1601 35.6687 39.1838 34.6924L29.9914 25.5L39.1838 16.3076C40.1601 15.3313 40.1601 13.7484 39.1838 12.7721C38.2075 11.7958 36.6246 11.7957 35.6482 12.7721L26.4558 21.9645L17.2635 12.7721C16.2871 11.7958 14.7043 11.7957 13.7279 12.7721C12.7516 13.7484 12.7516 15.3313 13.7279 16.3076L22.9203 25.5L13.7279 34.6924C12.7516 35.6687 12.7516 37.2516 13.7279 38.2279C14.7042 39.2042 16.2871 39.2043 17.2635 38.2279L26.4558 29.0355L35.6482 38.2279Z" fill="url(#paint0_linear_943_3905)"/>
</g>
<path d="M35.6482 38.2279C36.6245 39.2042 38.2074 39.2043 39.1838 38.2279C40.1601 37.2516 40.1601 35.6687 39.1838 34.6924L29.9914 25.5L39.1838 16.3076C40.1601 15.3313 40.1601 13.7484 39.1838 12.7721C38.2075 11.7958 36.6246 11.7957 35.6482 12.7721L26.4558 21.9645L17.2635 12.7721C16.2871 11.7958 14.7043 11.7957 13.7279 12.7721C12.7516 13.7484 12.7516 15.3313 13.7279 16.3076L22.9203 25.5L13.7279 34.6924C12.7516 35.6687 12.7516 37.2516 13.7279 38.2279C14.7042 39.2042 16.2871 39.2043 17.2635 38.2279L26.4558 29.0355L35.6482 38.2279Z" fill="url(#paint1_linear_943_3905)"/>
<defs>
<filter id="filter0_f_943_3905" x="0.995728" y="0.0397949" width="50.9203" height="50.9204" filterUnits="userSpaceOnUse" color-interpolation-filters="sRGB">
<feFlood flood-opacity="0" result="BackgroundImageFix"/>
<feBlend mode="normal" in="SourceGraphic" in2="BackgroundImageFix" result="shape"/>
<feGaussianBlur stdDeviation="6" result="effect1_foregroundBlur_943_3905"/>
</filter>
<linearGradient id="paint0_linear_943_3905" x1="13.7279" y1="12.7721" x2="39.1838" y2="38.2279" gradientUnits="userSpaceOnUse">
<stop stop-color="#00F0FF"/>
<stop offset="1" stop-color="#C071FF"/>
</linearGradient>
<linearGradient id="paint1_linear_943_3905" x1="13.7279" y1="12.7721" x2="39.1838" y2="38.2279" gradientUnits="userSpaceOnUse">
<stop stop-color="#00F0FF"/>
<stop offset="1" stop-color="#C071FF"/>
</linearGradient>
</defs>
</svg>
