<svg width="138" height="109" viewBox="0 0 138 109" fill="none" xmlns="http://www.w3.org/2000/svg">
<path d="M30.38 48.63H8.85004C7.95048 48.63 7.05972 48.4529 6.22864 48.1086C5.39756 47.7644 4.64243 47.2597 4.00635 46.6236C3.37027 45.9875 2.86567 45.2324 2.52142 44.4013C2.17718 43.5703 2 42.6795 2 41.78C2 39.9633 2.72172 38.221 4.00635 36.9364C5.29097 35.6517 7.0333 34.93 8.85004 34.93H129.2C131.017 34.93 132.759 35.6517 134.044 36.9364C135.328 38.221 136.05 39.9633 136.05 41.78C136.05 43.5967 135.328 45.339 134.044 46.6236C132.759 47.9082 131.017 48.63 129.2 48.63H67.85M129.6 48.63V59.63C129.6 69.0743 125.848 78.1319 119.17 84.81C112.492 91.4882 103.434 95.24 93.99 95.24H44.1C34.6557 95.24 25.5981 91.4882 18.9199 84.81C12.2418 78.1319 8.48999 69.0743 8.48999 59.63V48.63M23.49 89.32V104.4C23.49 105.071 23.7566 105.714 24.231 106.189C24.7055 106.663 25.349 106.93 26.02 106.93C26.926 106.931 27.8129 106.67 28.574 106.178C29.3351 105.687 29.938 104.986 30.31 104.16L34.66 94.5M114.6 89.32V104.4C114.6 105.071 114.333 105.714 113.859 106.189C113.385 106.663 112.741 106.93 112.07 106.93C111.164 106.931 110.277 106.67 109.516 106.178C108.755 105.687 108.152 104.986 107.78 104.16L103.43 94.5M31.27 34.94V65.65L67.07 72.7V34.94M123.61 34.91V15.74C123.611 14.6347 123.395 13.54 122.973 12.5185C122.551 11.497 121.931 10.5687 121.15 9.78671C120.369 9.00471 119.442 8.38441 118.421 7.96115C117.4 7.53788 116.305 7.32003 115.2 7.32003C114.095 7.32003 113 7.53788 111.979 7.96115C110.958 8.38441 110.031 9.00471 109.25 9.78671C108.469 10.5687 107.849 11.497 107.427 12.5185C107.005 13.54 106.789 14.6347 106.79 15.74V19.91M71.11 19.87C71.11 23.3273 68.3073 26.13 64.85 26.13C61.3927 26.13 58.59 23.3273 58.59 19.87C58.59 16.4127 61.3927 13.61 64.85 13.61C68.3073 13.61 71.11 16.4127 71.11 19.87ZM51.08 10.93C51.08 15.8619 47.0819 19.86 42.15 19.86C37.2181 19.86 33.22 15.8619 33.22 10.93C33.22 5.9981 37.2181 2 42.15 2C47.0819 2 51.08 5.9981 51.08 10.93Z" stroke="url(#paint0_linear_904_2440)" stroke-width="3" stroke-linecap="round" stroke-linejoin="round"/>
<defs>
<linearGradient id="paint0_linear_904_2440" x1="69.025" y1="2" x2="69.025" y2="106.93" gradientUnits="userSpaceOnUse">
<stop stop-color="#00F0FF"/>
<stop offset="1" stop-color="#C071FF"/>
</linearGradient>
</defs>
</svg>
