<svg width="144" height="142" viewBox="0 0 144 142" fill="none" xmlns="http://www.w3.org/2000/svg">
<path d="M26.5557 16.7233C23.8273 29.8586 16.4379 62.9123 16.4379 121.375H111.034C111.034 62.9123 103.645 29.8586 100.916 16.7233C100.654 15.4423 99.9566 14.2909 98.9415 13.4641C97.9264 12.6373 96.6562 12.1858 95.3458 12.1861H32.1262C30.8158 12.1858 29.5456 12.6373 28.5305 13.4641C27.5154 14.2909 26.8178 15.4423 26.5557 16.7233ZM26.5557 16.7233L2 21.6235C2 21.6235 7.59328 39.7725 19.1549 53.3842M101.11 17.6875C101.11 17.6875 148.857 1.96595 141.16 83.5454C141.116 84.0118 140.97 84.463 140.732 84.8668C140.494 85.2706 140.17 85.6172 139.783 85.8823C139.396 86.1474 138.955 86.3244 138.492 86.4009C138.028 86.4773 137.554 86.4512 137.102 86.3246C136.368 86.1145 135.727 85.665 135.28 85.048C134.832 84.4311 134.605 83.6824 134.635 82.9216C134.908 70.8866 134.203 21.9525 104.19 34.9857M60.9224 39.659H66.2541M60.9224 51.1382H66.2541M60.9224 62.6287H66.2541M60.9224 74.1079H66.2541M60.9224 85.5985H66.2541M39.6407 2H87.8086C88.8014 2 89.7844 2.19511 90.7017 2.57419C91.6189 2.95327 92.4523 3.50889 93.1543 4.20934C93.8563 4.90978 94.4132 5.74133 94.7931 6.65651C95.173 7.57169 95.3686 8.55257 95.3686 9.54315V12.2088H32.1035V9.54315C32.1035 7.54651 32.8969 5.63131 34.3097 4.21734C35.7226 2.80338 37.6396 2.006 39.6407 2ZM19.2117 122.112H108.272C111.287 122.112 114.178 123.307 116.31 125.434C118.442 127.562 119.64 130.447 119.64 133.455V140H7.83199V133.466C7.8305 131.975 8.12382 130.498 8.69518 129.119C9.26654 127.741 10.1047 126.489 11.1617 125.434C12.2187 124.38 13.4738 123.543 14.8551 122.973C16.2365 122.403 17.7169 122.11 19.2117 122.112ZM63.7303 29.8926H63.7417C69.1852 29.8926 73.5981 34.2956 73.5981 39.7271V95.5124C73.5981 100.944 69.1852 105.347 63.7417 105.347H63.7303C58.2868 105.347 53.8739 100.944 53.8739 95.5124V39.7271C53.8739 34.2956 58.2868 29.8926 63.7303 29.8926Z" stroke="url(#paint0_linear_912_2582)" stroke-width="3" stroke-linecap="round" stroke-linejoin="round"/>
<defs>
<linearGradient id="paint0_linear_912_2582" x1="72" y1="2" x2="72" y2="140" gradientUnits="userSpaceOnUse">
<stop stop-color="#00F0FF"/>
<stop offset="1" stop-color="#C071FF"/>
</linearGradient>
</defs>
</svg>
