<svg width="136" height="139" viewBox="0 0 136 139" fill="none" xmlns="http://www.w3.org/2000/svg">
<path d="M134 75.0701L121.114 86.6054L108.34 75.0701L95.4536 86.6054L82.6689 75.0701L69.783 86.6054L56.9983 75.0701L44.1124 86.6054L31.3378 75.0701M2.00001 81.177L16.4055 69.6317L30.6895 81.177M2.00001 69.6317L16.4055 58.0863L30.6895 69.6317M134 86.6054L121.114 98.1508L108.34 86.6054L95.4536 98.1508L82.6689 86.6054L69.783 98.1508L56.9983 86.6054L44.1124 98.1508L31.3378 86.6054M31.3378 124.057V137M45.9966 124.057V137M60.6655 124.057V137M2.00001 108.997V121.94M16.6689 108.997V121.94M31.3378 108.997V121.94M75.3345 124.057V137M90.0034 124.057V137M104.672 124.057V137M119.341 124.057V137M134 124.057V137M134 124.057L31.2872 124.057V16.0064M134 124.057L134 17.1913C134 13.1623 132.399 9.29839 129.549 6.44947C126.699 3.60055 122.834 2.00001 118.804 2.00001H31.2872M31.3378 2.00001H16.6689M16.6892 2.00001C18.6155 2.00267 20.5225 2.38462 22.3012 3.12404C24.0799 3.86347 25.6955 4.94589 27.0557 6.30951C28.416 7.67313 29.4943 9.29125 30.229 11.0715C30.9637 12.8517 31.3405 14.7591 31.3378 16.6849V108.339H2.00001V16.6849C1.99735 14.7557 2.37547 12.845 3.11273 11.0621C3.84998 9.27924 4.93188 7.65933 6.29643 6.29518C7.66097 4.93103 9.28135 3.84945 11.0647 3.11241C12.8481 2.37536 14.7594 1.99735 16.6892 2.00001Z" stroke="url(#paint0_linear_904_2281)" stroke-width="3" stroke-linecap="round" stroke-linejoin="round"/>
<defs>
<linearGradient id="paint0_linear_904_2281" x1="68" y1="2" x2="68" y2="137" gradientUnits="userSpaceOnUse">
<stop stop-color="#00F0FF"/>
<stop offset="1" stop-color="#C071FF"/>
</linearGradient>
</defs>
</svg>
